{
.appVersion = "1352";
classes = (
{
automatic = 1;

glyphs = (
{
color = 8;
glyphname = A;
lastChange = "2021-08-09 11:24:48 +0000";
layers = (
{
anchors = (
{
name = bottom;
position = "{381, 0}";
},
{
name = ogonek;
position = "{706, 0}";
},
{
name = top;
position = "{381, 682}";
}
);
hints = (
{
origin = "{0, 7}";
scale = "{0.76, 1}";
type = Corner;
name = _corner.Serif;
},
{
origin = "{0, 0}";
scale = "{-1.3, 1}";
type = Corner;
name = _corner.Serif;
options = 1;
},
{
origin = "{0, 3}";
scale = "{1.3, 1}";
type = Corner;
name = _corner.Serif;
},
{
origin = "{0, 4}";
scale = "{-0.76, 1}";
type = Corner;
name = _corner.Serif;
options = 1;
}
);
layerId = "1E61A082-F045-49A7-AB52-DD1B03FD9B54";
paths = (
{
closed = 1;
nodes = (
"114 0 LINE",
"383 667 LINE",
"375 667 LINE",
"643 0 LINE",
"667 0 LINE",
"389 688 LINE",
"373 688 LINE",
"95 0 LINE"
);
},
{
closed = 1;
nodes = (
"556 236 LINE",
"556 253 LINE",
"204 253 LINE",
"204 236 LINE"
);
}
);
width = 762;
},
{
anchors = (
{
name = bottom;
position = "{385, 0}";
},
{
name = ogonek;
position = "{755, 0}";
},
{
name = top;
position = "{422, 682}";
}
);
hints = (
{
origin = "{0, 0}";
scale = "{-1.7, 1}";
type = Corner;
name = _corner.Serif;
options = 1;
},
{
origin = "{0, 3}";
scale = "{1.7, 1}";
type = Corner;
name = _corner.Serif;
},
{
origin = "{0, 4}";
scale = "{-0.6, 1}";
type = Corner;
name = _corner.Serif;
options = 1;
},
{
origin = "{0, 7}";
scale = "{0.6, 1}";
type = Corner;
name = _corner.Serif;
}
);
layerId = "219068EA-2B9B-40DC-949E-B60449C01B8A";
paths = (
{
closed = 1;
nodes = (
"174 0 LINE",
"416 577 LINE",
"356 577 LINE",
"593 0 LINE",
"799 0 LINE",
"510 682 LINE",
"335 682 LINE",
"46 0 LINE"
);
},
{
closed = 1;
nodes = (
"547 193 LINE",
"547 293 LINE",
"230 293 LINE",
"230 193 LINE"
);
}
);
width = 845;
},
{
anchors = (
{
name = bottom;
position = "{366, 0}";
},
{
name = ogonek;
position = "{735, 0}";
},
{
name = top;
position = "{410, 682}";
}
);
hints = (
{
origin = "{0, 7}";
scale = "{0.6, 1}";
type = Corner;
name = _corner.Serif;
},
{
origin = "{0, 0}";
scale = "{-1.7, 1}";
type = Corner;
name = _corner.Serif;
options = 1;
},
{
origin = "{0, 3}";
scale = "{1.7, 1}";
type = Corner;
name = _corner.Serif;
},
{
origin = "{0, 4}";
scale = "{-0.6, 1}";
type = Corner;
name = _corner.Serif;
options = 1;
}
);
layerId = "0C29AA02-E021-4BD1-A2C4-87F681D64C35";
paths = (
{
closed = 1;
nodes = (
"160 0 LINE",
"395 580 LINE",
"337 580 LINE",
"565 0 LINE",
"770 0 LINE",
"490 685 LINE",
"330 685 LINE",
"50 0 LINE"
);
},
{
closed = 1;
nodes = (
"524 197 LINE",
"524 287 LINE",
"207 287 LINE",
"207 197 LINE"
);
}
);
width = 820;
},
{
anchors = (
{
name = bottom;
position = "{394, 0}";
},
{
name = ogonek;
position = "{733, 0}";
},
{
name = top;
position = "{394, 682}";
}
);
hints = (
{
origin = "{0, 0}";
scale = "{-1.32, 1}";
type = Corner;
name = _corner.Serif;
options = 1;
},
{
origin = "{0, 3}";
scale = "{1.32, 1}";
type = Corner;
name = _corner.Serif;
},
{
origin = "{0, 4}";
scale = "{-0.75, 1}";
type = Corner;
name = _corner.Serif;
options = 1;
},
{
origin = "{0, 7}";
scale = "{0.75, 1}";
type = Corner;
name = _corner.Serif;
}
);
layerId = "2B88661E-23DD-4EDA-82FC-C2AEA983F097";
paths = (
{
closed = 1;
nodes = (
"118 0 LINE",
"399 665 LINE",
"386 665 LINE",
"667 0 LINE",
"697 0 LINE",
"405 690 LINE",
"383 690 LINE",
"91 0 LINE"
);
},
{
closed = 1;
nodes = (
"577 233 LINE",
"577 256 LINE",
"208 256 LINE",
"208 233 LINE"
);
}
);
width = 788;
}
);
leftKerningGroup = A;
rightKerningGroup = A;
unicode = 0041;
},
{
color = 8;
glyphname = AE;
lastChange = "2021-07-06 17:30:32 +0000";
layers = (
{
anchors = (
{
name = top;
position = "{569, 682}";
}
);
hints = (
{
origin = "{0, 0}";
scale = "{-1.3, 1}";
type = Corner;
name = _corner.Serif;
options = 1;
},
{
origin = "{0, 3}";
scale = "{0.76, 1}";
type = Corner;
name = _corner.Serif;
},
{
origin = "{1, 2}";
scale = "{-1.28, 1}";
type = Corner;
name = _corner.Serif;
},
{
origin = "{1, 3}";
scale = "{1.1, 1}";
type = Corner;
name = _corner.Serif;
options = 1;
}
);
layerId = "1E61A082-F045-49A7-AB52-DD1B03FD9B54";
paths = (
{
closed = 1;
nodes = (
"115 0 LINE",
"558 682 LINE",
"538 682 LINE",
"93 0 LINE"
);
},
{
closed = 1;
nodes = (
"569 0 LINE",
"569 682 LINE",
"547 682 LINE",
"547 0 LINE"
);
},
{
closed = 1;
nodes = (
"547 236 LINE",
"547 253 LINE",
"263 253 LINE",
"263 236 LINE"
);
},
{
closed = 1;
nodes = (
"998 0 LINE",
"998 17 LINE",
"569 17 LINE",
"569 0 LINE"
);
},
{
closed = 1;
nodes = (
"815 140 LINE",
"815 351 LINE",
"744 351 LINE",
"786 351 OFFCURVE",
"797 340 OFFCURVE",
"797 295 CURVE SMOOTH",
"797 140 LINE"
);
},
{
closed = 1;
nodes = (
"815 351 LINE",
"815 368 LINE",
"569 368 LINE",
"569 351 LINE"
);
},
{
closed = 1;
nodes = (
"998 17 LINE",
"998 264 LINE",
"980 264 LINE",
"980 76 LINE SMOOTH",
"980 29 OFFCURVE",
"968 17 OFFCURVE",
"923 17 CURVE"
);
},
{
closed = 1;
nodes = (
"815 368 LINE",
"815 546 LINE",
"797 546 LINE",
"797 424 LINE SMOOTH",
"797 379 OFFCURVE",
"786 368 OFFCURVE",
"744 368 CURVE"
);
},
{
closed = 1;
nodes = (
"990 665 LINE",
"990 682 LINE",
"569 682 LINE",
"569 665 LINE"
);
},
{
closed = 1;
nodes = (
"990 427 LINE",
"990 665 LINE",
"915 665 LINE",
"960 665 OFFCURVE",
"972 653 OFFCURVE",
"972 605 CURVE SMOOTH",
"972 427 LINE"
);
}
);
width = 1067;
},
{
anchors = (
{
name = top;
position = "{612, 682}";
}
);
hints = (
{
origin = "{1, 2}";
scale = "{-2.9, 1}";
type = Corner;
name = _corner.Serif;
},
{
origin = "{1, 3}";
scale = "{1.1, 1}";
type = Corner;
name = _corner.Serif;
options = 1;
},
{
origin = "{0, 0}";
scale = "{-1.7, 1}";
type = Corner;
name = _corner.Serif;
options = 1;
},
{
origin = "{0, 3}";
scale = "{0.6, 1}";
type = Corner;
name = _corner.Serif;
}
);
layerId = "219068EA-2B9B-40DC-949E-B60449C01B8A";
paths = (
{
closed = 1;
nodes = (
"176 0 LINE",
"594 682 LINE",
"458 682 LINE",
"37 0 LINE"
);
},
{
closed = 1;
nodes = (
"703 0 LINE",
"703 682 LINE",
"517 682 LINE",
"517 0 LINE"
);
},
{
closed = 1;
nodes = (
"517 193 LINE",
"517 293 LINE",
"259 293 LINE",
"259 193 LINE"
);
},
{
closed = 1;
nodes = (
"1077 0 LINE",
"1077 102 LINE",
"703 102 LINE",
"703 0 LINE"
);
},
{
closed = 1;
nodes = (
"887 165 LINE",
"887 301 LINE",
"707 301 LINE",
"760 301 OFFCURVE",
"785 269 OFFCURVE",
"785 196 CURVE SMOOTH",
"785 165 LINE"
);
},
{
closed = 1;
nodes = (
"887 301 LINE",
"887 401 LINE",
"703 401 LINE",
"703 301 LINE"
);
},
{
closed = 1;
nodes = (
"1077 102 LINE",
"1077 255 LINE",
"971 255 LINE",
"971 211 LINE SMOOTH",
"971 134 OFFCURVE",
"943 102 OFFCURVE",
"871 102 CURVE"
);
},
{
closed = 1;
nodes = (
"887 401 LINE",
"887 516 LINE",
"785 516 LINE",
"785 505 LINE SMOOTH",
"785 433 OFFCURVE",
"760 401 OFFCURVE",
"707 401 CURVE"
);
},
{
closed = 1;
nodes = (
"1069 582 LINE",
"1069 682 LINE",
"703 682 LINE",
"703 582 LINE"
);
},
{
closed = 1;
nodes = (
"1069 436 LINE",
"1069 582 LINE",
"863 582 LINE",
"935 582 OFFCURVE",
"963 550 OFFCURVE",
"963 473 CURVE SMOOTH",
"963 436 LINE"
);
}
);
width = 1143;
},
{
anchors = (
{
name = top;
position = "{552, 682}";
}
);
hints = (
{
origin = "{0, 0}";
scale = "{-1.7, 1}";
type = Corner;
name = _corner.Serif;
options = 1;
},
{
origin = "{0, 3}";
scale = "{0.58, 1}";
type = Corner;
name = _corner.Serif;
},
{
origin = "{1, 2}";
scale = "{-2.52, 0.98}";
type = Corner;
name = _corner.Serif;
},
{
origin = "{1, 3}";
scale = "{1.18, 1}";
type = Corner;
name = _corner.Serif;
options = 1;
}
);
layerId = "0C29AA02-E021-4BD1-A2C4-87F681D64C35";
leftMetricsKey = "=A-12";
paths = (
{
closed = 1;
nodes = (
"148 0 LINE",
"527 682 LINE",
"413 682 LINE",
"31 0 LINE"
);
},
{
closed = 1;
nodes = (
"652 0 LINE",
"652 682 LINE",
"466 682 LINE",
"466 0 LINE"
);
},
{
closed = 1;
nodes = (
"466 197 LINE",
"466 287 LINE",
"232 287 LINE",
"232 197 LINE"
);
},
{
closed = 1;
nodes = (
"992 0 LINE",
"992 93 LINE",
"652 93 LINE",
"652 0 LINE"
);
},
{
closed = 1;
nodes = (
"830 155 LINE",
"830 307 LINE",
"655 307 LINE",
"722 307 OFFCURVE",
"748 275 OFFCURVE",
"748 203 CURVE SMOOTH",
"748 155 LINE"
);
},
{
closed = 1;
nodes = (
"830 307 LINE",
"830 395 LINE",
"652 395 LINE",
"652 307 LINE"
);
},
{
closed = 1;
nodes = (
"992 93 LINE",
"992 264 LINE",
"902 264 LINE",
"902 202 LINE SMOOTH",
"902 125 OFFCURVE",
"875 93 OFFCURVE",
"802 93 CURVE"
);
},
{
closed = 1;
nodes = (
"830 395 LINE",
"830 532 LINE",
"748 532 LINE",
"748 499 LINE SMOOTH",
"748 426 OFFCURVE",
"722 395 OFFCURVE",
"655 395 CURVE"
);
},
{
closed = 1;
nodes = (
"986 591 LINE",
"986 682 LINE",
"652 682 LINE",
"652 591 LINE"
);
},
{
closed = 1;
nodes = (
"986 427 LINE",
"986 591 LINE",
"796 591 LINE",
"869 591 OFFCURVE",
"896 559 OFFCURVE",
"896 482 CURVE SMOOTH",
"896 427 LINE"
);
}
);
width = 1049;
},
{
anchors = (
{
name = top;
position = "{583, 682}";
}
);
hints = (
{
origin = "{1, 2}";
scale = "{-1.34635, 1}";
type = Corner;
name = _corner.Serif;
},
{
origin = "{1, 3}";
scale = "{1.1, 1}";
type = Corner;
name = _corner.Serif;
options = 1;
},
{
origin = "{0, 0}";
scale = "{-1.314, 1}";
type = Corner;
name = _corner.Serif;
options = 1;
},
{
origin = "{0, 3}";
scale = "{0.7544, 1}";
type = Corner;
name = _corner.Serif;
}
);
layerId = "2B88661E-23DD-4EDA-82FC-C2AEA983F097";
paths = (
{
closed = 1;
nodes = (
"118 0 LINE",
"578 682 LINE",
"549 682 LINE",
"88 0 LINE"
);
},
{
closed = 1;
nodes = (
"587 0 LINE",
"587 682 LINE",
"559 682 LINE",
"559 0 LINE"
);
},
{
closed = 1;
nodes = (
"559 233 LINE",
"559 256 LINE",
"266 256 LINE",
"266 233 LINE"
);
},
{
closed = 1;
nodes = (
"1041 0 LINE",
"1041 23 LINE",
"587 23 LINE",
"587 0 LINE"
);
},
{
closed = 1;
nodes = (
"831 165 LINE",
"831 348 LINE",
"754 348 LINE",
"798 348 OFFCURVE",
"809 337 OFFCURVE",
"809 291 CURVE SMOOTH",
"809 165 LINE"
);
},
{
closed = 1;
nodes = (
"831 348 LINE",
"831 371 LINE",
"587 371 LINE",
"587 348 LINE"
);
},
{
closed = 1;
nodes = (
"1041 23 LINE",
"1041 237 LINE",
"1018 237 LINE",
"1018 84 LINE SMOOTH",
"1018 35 OFFCURVE",
"1005 23 OFFCURVE",
"959 23 CURVE"
);
},
{
closed = 1;
nodes = (
"831 371 LINE",
"831 521 LINE",
"809 521 LINE",
"809 428 LINE SMOOTH",
"809 383 OFFCURVE",
"798 371 OFFCURVE",
"754 371 CURVE"
);
},
{
closed = 1;
nodes = (
"1033 659 LINE",
"1033 682 LINE",
"587 682 LINE",
"587 659 LINE"
);
},
{
closed = 1;
nodes = (
"1033 454 LINE",
"1033 659 LINE",
"950 659 LINE",
"996 659 OFFCURVE",
"1009 646 OFFCURVE",
"1009 598 CURVE SMOOTH",
"1009 454 LINE"
);
}
);
width = 1113;
}
);
leftKerningGroup = AE;
leftMetricsKey = A;
rightKerningGroup = E;
rightMetricsKey = E;
unicode = 00C6;
},
{
color = 8;
glyphname = B;
lastChange = "2021-07-06 17:30:32 +0000";
layers = (
{
anchors = (
{
name = bottom;
position = "{333, 0}";
},
{
name = top;
position = "{333, 682}";
}
);
hints = (
{
origin = "{0, 2}";
scale = "{-1.08, 1}";
type = Corner;
name = _corner.Serif;
},
{
origin = "{0, 3}";
scale = "{1.1, 1}";
type = Corner;
name = _corner.Serif;
options = 1;
}
);
layerId = "1E61A082-F045-49A7-AB52-DD1B03FD9B54";
paths = (
{
closed = 1;
nodes = (
"159 0 LINE",
"159 682 LINE",
"137 682 LINE",
"137 0 LINE"
);
},
{
closed = 1;
nodes = (
"414 0 LINE SMOOTH",
"538 0 OFFCURVE",
"620 60 OFFCURVE",
"620 178 CURVE SMOOTH",
"620 292 OFFCURVE",
"542 350 OFFCURVE",
"414 350 CURVE SMOOTH",
"159 350 LINE",
"159 338 LINE",
"409 338 LINE SMOOTH",
"525 338 OFFCURVE",
"598 283 OFFCURVE",
"598 177 CURVE SMOOTH",
"598 71 OFFCURVE",
"525 17 OFFCURVE",
"409 17 CURVE SMOOTH",
"159 17 LINE",
"159 0 LINE"
);
},
{
closed = 1;
nodes = (
"394 345 LINE SMOOTH",
"519 345 OFFCURVE",
"594 400 OFFCURVE",
"594 510 CURVE SMOOTH",
"594 623 OFFCURVE",
"514 682 OFFCURVE",
"394 682 CURVE SMOOTH",
"159 682 LINE",
"159 665 LINE",
"389 665 LINE SMOOTH",
"501 665 OFFCURVE",
"572 612 OFFCURVE",
"572 510 CURVE SMOOTH",
"572 408 OFFCURVE",
"501 355 OFFCURVE",
"389 355 CURVE SMOOTH",
"159 355 LINE",
"159 345 LINE"
);
}
);
width = 664;
},
{
anchors = (
{
name = bottom;
position = "{381, 0}";
},
{
name = top;
position = "{381, 682}";
}
);
hints = (
{
origin = "{0, 2}";
scale = "{-1.08, 1}";
type = Corner;
name = _corner.Serif;
},
{
origin = "{0, 3}";
scale = "{1.1, 1}";
type = Corner;
name = _corner.Serif;
options = 1;
}
);
layerId = "219068EA-2B9B-40DC-949E-B60449C01B8A";
paths = (
{
closed = 1;
nodes = (
"299 0 LINE",
"299 682 LINE",
"109 682 LINE",
"109 0 LINE"
);
},
{
closed = 1;
nodes = (
"498 0 LINE SMOOTH",
"644 0 OFFCURVE",
"735 58 OFFCURVE",
"735 185 CURVE SMOOTH",
"735 309 OFFCURVE",
"644 360 OFFCURVE",
"498 360 CURVE SMOOTH",
"299 360 LINE",
"299 298 LINE",
"434 298 LINE SMOOTH",
"501 298 OFFCURVE",
"543 263 OFFCURVE",
"543 200 CURVE SMOOTH",
"543 136 OFFCURVE",
"501 102 OFFCURVE",
"434 102 CURVE SMOOTH",
"299 102 LINE",
"299 0 LINE"
);
},
{
closed = 1;
nodes = (
"463 343 LINE SMOOTH",
"605 343 OFFCURVE",
"697 393 OFFCURVE",
"697 508 CURVE SMOOTH",
"697 627 OFFCURVE",
"605 682 OFFCURVE",
"463 682 CURVE SMOOTH",
"299 682 LINE",
"299 582 LINE",
"405 582 LINE SMOOTH",
"469 582 OFFCURVE",
"507 551 OFFCURVE",
"507 490 CURVE SMOOTH",
"507 430 OFFCURVE",
"469 398 OFFCURVE",
"405 398 CURVE SMOOTH",
"299 398 LINE",
"299 343 LINE"
);
}
);
width = 771;
},
{
anchors = (
{
name = bottom;
position = "{361, 0}";
},
{
name = top;
position = "{361, 682}";
}
);
hints = (
{
origin = "{0, 2}";
scale = "{-1.08, 0.98}";
type = Corner;
name = _corner.Serif;
},
{
origin = "{0, 3}";
scale = "{1.1, 1}";
type = Corner;
name = _corner.Serif;
options = 1;
}
);
layerId = "0C29AA02-E021-4BD1-A2C4-87F681D64C35";
paths = (
{
closed = 1;
nodes = (
"294 0 LINE",
"294 682 LINE",
"104 682 LINE",
"104 0 LINE"
);
},
{
closed = 1;
nodes = (
"471 0 LINE SMOOTH",
"618 0 OFFCURVE",
"713 64 OFFCURVE",
"713 191 CURVE SMOOTH",
"713 310 OFFCURVE",
"619 359 OFFCURVE",
"467 359 CURVE SMOOTH",
"294 359 LINE",
"294 304 LINE",
"407 304 LINE SMOOTH",
"477 304 OFFCURVE",
"521 265 OFFCURVE",
"521 198 CURVE SMOOTH",
"521 130 OFFCURVE",
"477 92 OFFCURVE",
"407 92 CURVE SMOOTH",
"294 92 LINE",
"294 0 LINE"
);
},
{
closed = 1;
nodes = (
"457 353 LINE SMOOTH",
"588 353 OFFCURVE",
"677 404 OFFCURVE",
"677 517 CURVE SMOOTH",
"677 630 OFFCURVE",
"582 682 OFFCURVE",
"443 682 CURVE SMOOTH",
"294 682 LINE",
"294 592 LINE",
"379 592 LINE SMOOTH",
"446 592 OFFCURVE",
"487 557 OFFCURVE",
"487 492 CURVE SMOOTH",
"487 428 OFFCURVE",
"446 394 OFFCURVE",
"379 394 CURVE SMOOTH",
"294 394 LINE",
"294 353 LINE"
);
}
);
width = 738;
},
{
anchors = (
{
name = bottom;
position = "{351, 0}";
},
{
name = top;
position = "{351, 682}";
}
);
hints = (
{
origin = "{0, 2}";
scale = "{-1.08, 1}";
type = Corner;
name = _corner.Serif;
},
{
origin = "{0, 3}";
scale = "{1.1, 1}";
type = Corner;
name = _corner.Serif;
options = 1;
}
);
layerId = "2B88661E-23DD-4EDA-82FC-C2AEA983F097";
paths = (
{
closed = 1;
nodes = (
"168 0 LINE",
"168 682 LINE",
"140 682 LINE",
"140 0 LINE"
);
},
{
closed = 1;
nodes = (
"439 0 LINE SMOOTH",
"563 0 OFFCURVE",
"645 60 OFFCURVE",
"645 178 CURVE SMOOTH",
"645 294 OFFCURVE",
"567 353 OFFCURVE",
"439 353 CURVE SMOOTH",
"168 353 LINE",
"168 335 LINE",
"431 335 LINE SMOOTH",
"546 335 OFFCURVE",
"617 282 OFFCURVE",
"617 179 CURVE SMOOTH",
"617 76 OFFCURVE",
"546 23 OFFCURVE",
"431 23 CURVE SMOOTH",
"168 23 LINE",
"168 0 LINE"
);
},
{
closed = 1;
nodes = (
"418 343 LINE SMOOTH",
"544 343 OFFCURVE",
"619 400 OFFCURVE",
"619 510 CURVE SMOOTH",
"619 623 OFFCURVE",
"539 682 OFFCURVE",
"418 682 CURVE SMOOTH",
"168 682 LINE",
"168 659 LINE",
"411 659 LINE SMOOTH",
"522 659 OFFCURVE",
"591 608 OFFCURVE",
"591 509 CURVE SMOOTH",
"591 410 OFFCURVE",
"522 358 OFFCURVE",
"411 358 CURVE SMOOTH",
"168 358 LINE",
"168 343 LINE"
);
}
);
width = 703;
}
);
leftKerningGroup = I;
leftMetricsKey = H;
rightKerningGroup = B;
unicode = 0042;
},
{
color = 8;
glyphname = C;
lastChange = "2021-07-13 20:05:58 +0000";
layers = (
{
anchors = (
{
name = bottom;
position = "{373, 0}";
},
{
name = top;
position = "{376, 682}";
}
);
layerId = "1E61A082-F045-49A7-AB52-DD1B03FD9B54";
paths = (
{
closed = 1;
nodes = (
"556 -12 OFFCURVE",
"654 119 OFFCURVE",
"657 267 CURVE",
"639 267 LINE",
"634 126 OFFCURVE",
"544 6 OFFCURVE",
"373 6 CURVE SMOOTH",
"205 6 OFFCURVE",
"76 136 OFFCURVE",
"76 341 CURVE SMOOTH",
"76 545 OFFCURVE",
"203 677 OFFCURVE",
"368 677 CURVE SMOOTH",
"544 677 OFFCURVE",
"623 556 OFFCURVE",
"633 427 CURVE",
"645 427 LINE",
"640 585 OFFCURVE",
"539 694 OFFCURVE",
"368 694 CURVE SMOOTH",
"191 694 OFFCURVE",
"54 564 OFFCURVE",
"54 341 CURVE SMOOTH",
"54 118 OFFCURVE",
"193 -12 OFFCURVE",
"373 -12 CURVE SMOOTH"
);
},
{
closed = 1;
nodes = (
"653 427 LINE",
"653 682 LINE",
"635 682 LINE",
"635 452 LINE",
"645 427 LINE"
);
}
);
width = 725;
},
{
anchors = (
{
name = bottom;
position = "{406, 0}";
},
{
name = top;
position = "{409, 682}";
}
);
layerId = "219068EA-2B9B-40DC-949E-B60449C01B8A";
paths = (
{
closed = 1;
nodes = (
"634 -17 OFFCURVE",
"730 120 OFFCURVE",
"738 274 CURVE",
"625 274 LINE",
"613 190 OFFCURVE",
"559 125 OFFCURVE",
"449 125 CURVE SMOOTH",
"324 125 OFFCURVE",
"244 215 OFFCURVE",
"244 358 CURVE SMOOTH",
"244 497 OFFCURVE",
"316 588 OFFCURVE",
"443 588 CURVE SMOOTH",
"558 588 OFFCURVE",
"607 511 OFFCURVE",
"617 447 CURVE",
"658 447 LINE",
"658 593 OFFCURVE",
"566 699 OFFCURVE",
"385 699 CURVE SMOOTH",
"178 699 OFFCURVE",
"38 566 OFFCURVE",
"38 341 CURVE SMOOTH",
"38 115 OFFCURVE",
"180 -17 OFFCURVE",
"406 -17 CURVE SMOOTH"
);
},
{
closed = 1;
nodes = (
"730 447 LINE",
"730 682 LINE",
"619 682 LINE",
"619 529 LINE",
"658 447 LINE"
);
}
);
width = 780;
},
{
anchors = (
{
name = bottom;
position = "{384, 0}";
},
{
name = top;
position = "{388, 682}";
}
);
layerId = "0C29AA02-E021-4BD1-A2C4-87F681D64C35";
paths = (
{
closed = 1;
nodes = (
"593 -15 OFFCURVE",
"693 125 OFFCURVE",
"699 301 CURVE",
"613 301 LINE",
"601 196 OFFCURVE",
"547 115 OFFCURVE",
"432 115 CURVE SMOOTH",
"314 115 OFFCURVE",
"238 212 OFFCURVE",
"238 355 CURVE SMOOTH",
"238 505 OFFCURVE",
"312 604 OFFCURVE",
"432 604 CURVE SMOOTH",
"550 604 OFFCURVE",
"599 516 OFFCURVE",
"605 416 CURVE",
"649 416 LINE",
"648 590 OFFCURVE",
"561 696 OFFCURVE",
"370 696 CURVE SMOOTH",
"171 696 OFFCURVE",
"34 565 OFFCURVE",
"34 341 CURVE SMOOTH",
"34 116 OFFCURVE",
"171 -15 OFFCURVE",
"384 -15 CURVE SMOOTH"
);
},
{
closed = 1;
nodes = (
"693 416 LINE",
"693 682 LINE",
"599 682 LINE",
"599 529 LINE",
"649 416 LINE"
);
}
);
width = 741;
},
{
anchors = (
{
name = bottom;
position = "{405, 0}";
},
{
name = top;
position = "{407, 682}";
}
);
layerId = "2B88661E-23DD-4EDA-82FC-C2AEA983F097";
paths = (
{
closed = 1;
nodes = (
"606 -15 OFFCURVE",
"708 105 OFFCURVE",
"713 250 CURVE",
"690 250 LINE",
"684 120 OFFCURVE",
"588 10 OFFCURVE",
"406 10 CURVE SMOOTH",
"228 10 OFFCURVE",
"90 135 OFFCURVE",
"90 341 CURVE SMOOTH",
"90 546 OFFCURVE",
"227 674 OFFCURVE",
"404 674 CURVE SMOOTH",
"590 674 OFFCURVE",
"675 563 OFFCURVE",
"685 445 CURVE",
"700 445 LINE",
"696 595 OFFCURVE",
"590 697 OFFCURVE",
"402 697 CURVE SMOOTH",
"211 697 OFFCURVE",
"62 565 OFFCURVE",
"62 341 CURVE SMOOTH",
"62 115 OFFCURVE",
"211 -15 OFFCURVE",
"405 -15 CURVE SMOOTH"
);
},
{
closed = 1;
nodes = (
"708 445 LINE",
"708 682 LINE",
"685 682 LINE",
"685 481 LINE",
"700 445 LINE"
);
}
);
width = 784;
}
);
leftKerningGroup = O;
leftMetricsKey = O;
rightKerningGroup = C;
unicode = 0043;
},
{
color = 8;
glyphname = D;
lastChange = "2021-07-14 22:06:56 +0000";
layers = (
{
anchors = (
{
name = bottom;
position = "{332, 0}";
},
{
name = stroke;
position = "{137, 341}";
},
{
name = top;
position = "{332, 682}";
}
);
hints = (
{
origin = "{1, 2}";
scale = "{-1.08, 1}";
type = Corner;
name = _corner.Serif;
},
{
origin = "{1, 3}";
scale = "{1.1, 1}";
type = Corner;
name = _corner.Serif;
options = 1;
}
);
layerId = "1E61A082-F045-49A7-AB52-DD1B03FD9B54";
paths = (
{
closed = 1;
nodes = (
"317 0 LINE SMOOTH",
"527 0 OFFCURVE",
"665 125 OFFCURVE",
"665 341 CURVE SMOOTH",
"665 557 OFFCURVE",
"527 682 OFFCURVE",
"317 682 CURVE SMOOTH",
"159 682 LINE",
"159 665 LINE",
"317 665 LINE SMOOTH",
"514 665 OFFCURVE",
"643 539 OFFCURVE",
"643 341 CURVE SMOOTH",
"643 143 OFFCURVE",
"514 17 OFFCURVE",
"317 17 CURVE SMOOTH",
"159 17 LINE",
"159 0 LINE"
);
},
{
closed = 1;
nodes = (
"159 0 LINE",
"159 682 LINE",
"137 682 LINE",
"137 0 LINE"
);
}
);
width = 719;
},
{
anchors = (
{
name = bottom;
position = "{385, 0}";
},
{
name = stroke;
position = "{109, 341}";
},
{
name = top;
position = "{385, 682}";
}
);
hints = (
{
origin = "{1, 2}";
scale = "{-1.08, 1}";
type = Corner;
name = _corner.Serif;
},
{
origin = "{1, 3}";
scale = "{1.1, 1}";
type = Corner;
name = _corner.Serif;
options = 1;
}
);
layerId = "219068EA-2B9B-40DC-949E-B60449C01B8A";
paths = (
{
closed = 1;
nodes = (
"398 0 LINE SMOOTH",
"631 0 OFFCURVE",
"787 123 OFFCURVE",
"787 341 CURVE SMOOTH",
"787 559 OFFCURVE",
"631 682 OFFCURVE",
"398 682 CURVE SMOOTH",
"300 682 LINE",
"300 582 LINE",
"379 582 LINE SMOOTH",
"498 582 OFFCURVE",
"585 489 OFFCURVE",
"585 341 CURVE SMOOTH",
"585 194 OFFCURVE",
"498 102 OFFCURVE",
"379 102 CURVE SMOOTH",
"300 102 LINE",
"300 0 LINE"
);
},
{
closed = 1;
nodes = (
"300 0 LINE",
"300 682 LINE",
"109 682 LINE",
"109 0 LINE"
);
}
);
width = 825;
},
{
anchors = (
{
name = bottom;
position = "{359, 0}";
},
{
name = stroke;
position = "{104, 341}";
},
{
name = top;
position = "{359, 682}";
}
);
hints = (
{
origin = "{1, 2}";
scale = "{-1.08, 0.98}";
type = Corner;
name = _corner.Serif;
},
{
origin = "{1, 3}";
scale = "{1.1, 1}";
type = Corner;
name = _corner.Serif;
options = 1;
}
);
layerId = "0C29AA02-E021-4BD1-A2C4-87F681D64C35";
paths = (
{
closed = 1;
nodes = (
"374 0 LINE SMOOTH",
"597 0 OFFCURVE",
"745 123 OFFCURVE",
"745 341 CURVE SMOOTH",
"745 559 OFFCURVE",
"597 682 OFFCURVE",
"374 682 CURVE SMOOTH",
"294 682 LINE",
"294 592 LINE",
"355 592 LINE SMOOTH",
"464 592 OFFCURVE",
"539 495 OFFCURVE",
"539 341 CURVE SMOOTH",
"539 188 OFFCURVE",
"464 92 OFFCURVE",
"355 92 CURVE SMOOTH",
"294 92 LINE",
"294 0 LINE"
);
},
{
closed = 1;
nodes = (
"294 0 LINE",
"294 682 LINE",
"104 682 LINE",
"104 0 LINE"
);
}
);
width = 779;
},
{
anchors = (
{
name = bottom;
position = "{348, 0}";
},
{
name = stroke;
position = "{140, 341}";
},
{
name = top;
position = "{348, 682}";
}
);
hints = (
{
origin = "{1, 2}";
scale = "{-1.08, 1}";
type = Corner;
name = _corner.Serif;
},
{
origin = "{1, 3}";
scale = "{1.1, 1}";
type = Corner;
name = _corner.Serif;
options = 1;
}
);
layerId = "2B88661E-23DD-4EDA-82FC-C2AEA983F097";
paths = (
{
closed = 1;
nodes = (
"346 0 LINE SMOOTH",
"562 0 OFFCURVE",
"705 125 OFFCURVE",
"705 341 CURVE SMOOTH",
"705 557 OFFCURVE",
"562 682 OFFCURVE",
"346 682 CURVE SMOOTH",
"168 682 LINE",
"168 659 LINE",
"345 659 LINE SMOOTH",
"545 659 OFFCURVE",
"677 535 OFFCURVE",
"677 341 CURVE SMOOTH",
"677 147 OFFCURVE",
"545 23 OFFCURVE",
"345 23 CURVE SMOOTH",
"168 23 LINE",
"168 0 LINE"
);
},
{
closed = 1;
nodes = (
"168 0 LINE",
"168 682 LINE",
"140 682 LINE",
"140 0 LINE"
);
}
);
width = 767;
}
);
leftKerningGroup = I;
leftMetricsKey = H;
rightKerningGroup = O;
rightMetricsKey = O;
unicode = 0044;
},
{
color = 8;
glyphname = E;
lastChange = "2021-07-13 20:01:29 +0000";
layers = (
{
anchors = (
{
name = bottom;
position = "{355, 0}";
},
{
name = ogonek;
position = "{606, 0}";
},
{
name = top;
position = "{355, 682}";
}
);
hints = (
{
origin = "{0, 2}";
scale = "{-1.08, 1}";
type = Corner;
name = _corner.Serif;
},
{
origin = "{0, 3}";
scale = "{1.1, 1}";
type = Corner;
name = _corner.Serif;
options = 1;
}
);
layerId = "1E61A082-F045-49A7-AB52-DD1B03FD9B54";
paths = (
{
closed = 1;
nodes = (
"159 0 LINE",
"159 682 LINE",
"137 682 LINE",
"137 0 LINE"
);
},
{
closed = 1;
nodes = (
"606 0 LINE",
"606 17 LINE",
"159 17 LINE",
"159 0 LINE"
);
},
{
closed = 1;
nodes = (
"418 140 LINE",
"418 351 LINE",
"347 351 LINE",
"390 351 OFFCURVE",
"400 340 OFFCURVE",
"400 295 CURVE SMOOTH",
"400 140 LINE"
);
},
{
closed = 1;
nodes = (
"418 351 LINE",
"418 368 LINE",
"159 368 LINE",
"159 351 LINE"
);
},
{
closed = 1;
nodes = (
"606 17 LINE",
"606 264 LINE",
"588 264 LINE",
"588 76 LINE SMOOTH",
"588 29 OFFCURVE",
"576 17 OFFCURVE",
"530 17 CURVE"
);
},
{
closed = 1;
nodes = (
"418 368 LINE",
"418 546 LINE",
"400 546 LINE",
"400 424 LINE SMOOTH",
"400 379 OFFCURVE",
"390 368 OFFCURVE",
"347 368 CURVE"
);
},
{
closed = 1;
nodes = (
"598 665 LINE",
"598 682 LINE",
"159 682 LINE",
"159 665 LINE"
);
},
{
closed = 1;
nodes = (
"598 427 LINE",
"598 665 LINE",
"522 665 LINE",
"568 665 OFFCURVE",
"580 653 OFFCURVE",
"580 605 CURVE SMOOTH",
"580 427 LINE"
);
}
);
width = 675;
},
{
anchors = (
{
name = bottom;
position = "{382, 0}";
},
{
name = ogonek;
position = "{691, 0}";
},
{
name = top;
position = "{382, 682}";
}
);
hints = (
{
origin = "{0, 2}";
scale = "{-1.08, 1}";
type = Corner;
name = _corner.Serif;
},
{
origin = "{0, 3}";
scale = "{1.1, 1}";
type = Corner;
name = _corner.Serif;
options = 1;
}
);
layerId = "219068EA-2B9B-40DC-949E-B60449C01B8A";
paths = (
{
closed = 1;
nodes = (
"299 0 LINE",
"299 682 LINE",
"109 682 LINE",
"109 0 LINE"
);
},
{
closed = 1;
nodes = (
"691 0 LINE",
"691 102 LINE",
"299 102 LINE",
"299 0 LINE"
);
},
{
closed = 1;
nodes = (
"501 165 LINE",
"501 301 LINE",
"312 301 LINE",
"375 301 OFFCURVE",
"403 269 OFFCURVE",
"403 196 CURVE SMOOTH",
"403 165 LINE"
);
},
{
closed = 1;
nodes = (
"501 301 LINE",
"501 401 LINE",
"299 401 LINE",
"299 301 LINE"
);
},
{
closed = 1;
nodes = (
"691 102 LINE",
"691 255 LINE",
"586 255 LINE",
"586 211 LINE SMOOTH",
"586 134 OFFCURVE",
"559 102 OFFCURVE",
"486 102 CURVE"
);
},
{
closed = 1;
nodes = (
"501 401 LINE",
"501 516 LINE",
"403 516 LINE",
"403 505 LINE SMOOTH",
"403 432 OFFCURVE",
"375 401 OFFCURVE",
"312 401 CURVE"
);
},
{
closed = 1;
nodes = (
"683 582 LINE",
"683 682 LINE",
"299 682 LINE",
"299 582 LINE"
);
},
{
closed = 1;
nodes = (
"683 436 LINE",
"683 582 LINE",
"478 582 LINE",
"550 582 OFFCURVE",
"578 549 OFFCURVE",
"578 470 CURVE SMOOTH",
"578 436 LINE"
);
}
);
width = 757;
},
{
anchors = (
{
name = bottom;
position = "{363, 0}";
},
{
name = ogonek;
position = "{649, 0}";
},
{
name = top;
position = "{363, 682}";
}
);
hints = (
{
origin = "{0, 2}";
scale = "{-1.08, 0.98}";
type = Corner;
name = _corner.Serif;
},
{
origin = "{0, 3}";
scale = "{1.1, 1}";
type = Corner;
name = _corner.Serif;
options = 1;
}
);
layerId = "0C29AA02-E021-4BD1-A2C4-87F681D64C35";
paths = (
{
closed = 1;
nodes = (
"294 0 LINE",
"294 682 LINE",
"104 682 LINE",
"104 0 LINE"
);
},
{
closed = 1;
nodes = (
"649 0 LINE",
"649 92 LINE",
"294 92 LINE",
"294 0 LINE"
);
},
{
closed = 1;
nodes = (
"487 155 LINE",
"487 306 LINE",
"309 306 LINE",
"378 306 OFFCURVE",
"405 274 OFFCURVE",
"405 202 CURVE SMOOTH",
"405 155 LINE"
);
},
{
closed = 1;
nodes = (
"487 306 LINE",
"487 396 LINE",
"294 396 LINE",
"294 306 LINE"
);
},
{
closed = 1;
nodes = (
"649 92 LINE",
"649 264 LINE",
"559 264 LINE",
"559 201 LINE SMOOTH",
"559 124 OFFCURVE",
"532 92 OFFCURVE",
"459 92 CURVE"
);
},
{
closed = 1;
nodes = (
"487 396 LINE",
"487 532 LINE",
"405 532 LINE",
"405 500 LINE SMOOTH",
"405 427 OFFCURVE",
"378 396 OFFCURVE",
"309 396 CURVE"
);
},
{
closed = 1;
nodes = (
"643 592 LINE",
"643 682 LINE",
"294 682 LINE",
"294 592 LINE"
);
},
{
closed = 1;
nodes = (
"643 427 LINE",
"643 592 LINE",
"453 592 LINE",
"525 592 OFFCURVE",
"553 560 OFFCURVE",
"553 483 CURVE SMOOTH",
"553 427 LINE"
);
}
);
width = 706;
},
{
anchors = (
{
name = bottom;
position = "{369, 0}";
},
{
name = ogonek;
position = "{640, 0}";
},
{
name = top;
position = "{369, 682}";
}
);
hints = (
{
origin = "{0, 2}";
scale = "{-1.08, 1}";
type = Corner;
name = _corner.Serif;
},
{
origin = "{0, 3}";
scale = "{1.1, 1}";
type = Corner;
name = _corner.Serif;
options = 1;
}
);
layerId = "2B88661E-23DD-4EDA-82FC-C2AEA983F097";
paths = (
{
closed = 1;
nodes = (
"168 0 LINE",
"168 682 LINE",
"140 682 LINE",
"140 0 LINE"
);
},
{
closed = 1;
nodes = (
"640 0 LINE",
"640 23 LINE",
"168 23 LINE",
"168 0 LINE"
);
},
{
closed = 1;
nodes = (
"425 165 LINE",
"425 348 LINE",
"348 348 LINE",
"392 348 OFFCURVE",
"403 337 OFFCURVE",
"403 291 CURVE SMOOTH",
"403 165 LINE"
);
},
{
closed = 1;
nodes = (
"425 348 LINE",
"425 371 LINE",
"168 371 LINE",
"168 348 LINE"
);
},
{
closed = 1;
nodes = (
"640 23 LINE",
"640 237 LINE",
"617 237 LINE",
"617 84 LINE SMOOTH",
"617 35 OFFCURVE",
"604 23 OFFCURVE",
"558 23 CURVE"
);
},
{
closed = 1;
nodes = (
"425 371 LINE",
"425 521 LINE",
"403 521 LINE",
"403 428 LINE SMOOTH",
"403 383 OFFCURVE",
"392 371 OFFCURVE",
"348 371 CURVE"
);
},
{
closed = 1;
nodes = (
"631 659 LINE",
"631 682 LINE",
"168 682 LINE",
"168 659 LINE"
);
},
{
closed = 1;
nodes = (
"631 454 LINE",
"631 659 LINE",
"549 659 LINE",
"595 659 OFFCURVE",
"608 646 OFFCURVE",
"608 598 CURVE SMOOTH",
"608 454 LINE"
);
}
);
width = 712;
}
);
leftKerningGroup = I;
leftMetricsKey = H;
rightKerningGroup = E;
unicode = 0045;
},
{
color = 8;
glyphname = F;
lastChange = "2021-07-21 20:31:15 +0000";
layers = (
{
hints = (
{
origin = "{0, 3}";
scale = "{1.1, 1}";
type = Corner;
name = _corner.Serif;
options = 1;
},
{
origin = "{0, 0}";
scale = "{-1.9, 1}";
type = Corner;
name = _corner.Serif;
},
{
origin = "{0, 2}";
scale = "{-1.08, 1}";
type = Corner;
name = _corner.Serif;
}
);
layerId = "1E61A082-F045-49A7-AB52-DD1B03FD9B54";
paths = (
{
closed = 1;
nodes = (
"159 0 LINE",
"159 682 LINE",
"137 682 LINE",
"137 0 LINE"
);
},
{
closed = 1;
nodes = (
"577 665 LINE",
"577 682 LINE",
"159 682 LINE",
"159 665 LINE"
);
},
{
closed = 1;
nodes = (
"413 342 LINE",
"413 359 LINE",
"159 359 LINE",
"159 342 LINE"
);
},
{
closed = 1;
nodes = (
"577 427 LINE",
"577 665 LINE",
"501 665 LINE",
"547 665 OFFCURVE",
"559 653 OFFCURVE",
"559 605 CURVE SMOOTH",
"559 427 LINE"
);
},
{
closed = 1;
nodes = (
"413 359 LINE",
"413 546 LINE",
"396 546 LINE",
"396 415 LINE SMOOTH",
"396 370 OFFCURVE",
"385 359 OFFCURVE",
"342 359 CURVE"
);
},
{
closed = 1;
nodes = (
"413 150 LINE",
"413 342 LINE",
"342 342 LINE",
"385 342 OFFCURVE",
"396 331 OFFCURVE",
"396 286 CURVE SMOOTH",
"396 150 LINE"
);
}
);
width = 629;
},
{
hints = (
{
origin = "{0, 3}";
type = Corner;
name = _corner.Serif;
options = 1;
},
{
origin = "{0, 0}";
scale = "{-1.4, 1}";
type = Corner;
name = _corner.Serif;
},
{
origin = "{0, 2}";
scale = "{-0.96, 0.98467}";
type = Corner;
name = _corner.Serif;
}
);
layerId = "219068EA-2B9B-40DC-949E-B60449C01B8A";
paths = (
{
closed = 1;
nodes = (
"292 0 LINE",
"292 682 LINE",
"102 682 LINE",
"102 0 LINE"
);
},
{
closed = 1;
nodes = (
"684 582 LINE",
"684 682 LINE",
"292 682 LINE",
"292 582 LINE"
);
},
{
closed = 1;
nodes = (
"501 296 LINE",
"501 396 LINE",
"292 396 LINE",
"292 296 LINE"
);
},
{
closed = 1;
nodes = (
"684 427 LINE",
"684 582 LINE",
"478 582 LINE",
"551 582 OFFCURVE",
"578 549 OFFCURVE",
"578 470 CURVE SMOOTH",
"578 427 LINE"
);
},
{
closed = 1;
nodes = (
"501 396 LINE",
"501 516 LINE",
"399 516 LINE",
"399 502 LINE SMOOTH",
"399 428 OFFCURVE",
"371 396 OFFCURVE",
"302 396 CURVE"
);
},
{
closed = 1;
nodes = (
"501 156 LINE",
"501 296 LINE",
"302 296 LINE",
"371 296 OFFCURVE",
"399 264 OFFCURVE",
"399 190 CURVE SMOOTH",
"399 156 LINE"
);
}
);
width = 725;
},
{
hints = (
{
origin = "{0, 3}";
type = Corner;
name = _corner.Serif;
options = 1;
},
{
origin = "{0, 0}";
scale = "{-2, 1}";
type = Corner;
name = _corner.Serif;
},
{
origin = "{0, 2}";
scale = "{-0.96, 0.98}";
type = Corner;
name = _corner.Serif;
}
);
layerId = "0C29AA02-E021-4BD1-A2C4-87F681D64C35";
paths = (
{
closed = 1;
nodes = (
"287 0 LINE",
"287 682 LINE",
"97 682 LINE",
"97 0 LINE"
);
},
{
closed = 1;
nodes = (
"629 592 LINE",
"629 682 LINE",
"287 682 LINE",
"287 592 LINE"
);
},
{
closed = 1;
nodes = (
"477 302 LINE",
"477 390 LINE",
"287 390 LINE",
"287 302 LINE"
);
},
{
closed = 1;
nodes = (
"629 418 LINE",
"629 592 LINE",
"439 592 LINE",
"512 592 OFFCURVE",
"539 559 OFFCURVE",
"539 482 CURVE SMOOTH",
"539 418 LINE"
);
},
{
closed = 1;
nodes = (
"477 390 LINE",
"477 530 LINE",
"395 530 LINE",
"395 495 LINE SMOOTH",
"395 422 OFFCURVE",
"368 390 OFFCURVE",
"299 390 CURVE"
);
},
{
closed = 1;
nodes = (
"477 147 LINE",
"477 302 LINE",
"299 302 LINE",
"368 302 OFFCURVE",
"395 270 OFFCURVE",
"395 197 CURVE SMOOTH",
"395 147 LINE"
);
}
);
width = 667;
},
{
hints = (
{
origin = "{0, 3}";
scale = "{1.0965, 1}";
type = Corner;
name = _corner.Serif;
options = 1;
},
{
origin = "{0, 0}";
scale = "{-1.593, 1}";
type = Corner;
name = _corner.Serif;
},
{
origin = "{0, 2}";
scale = "{-1.0758, 0.99946}";
type = Corner;
name = _corner.Serif;
}
);
layerId = "2B88661E-23DD-4EDA-82FC-C2AEA983F097";
paths = (
{
closed = 1;
nodes = (
"167 0 LINE",
"167 682 LINE",
"139 682 LINE",
"139 0 LINE"
);
},
{
closed = 1;
nodes = (
"610 659 LINE",
"610 682 LINE",
"167 682 LINE",
"167 659 LINE"
);
},
{
closed = 1;
nodes = (
"419 340 LINE",
"419 363 LINE",
"167 363 LINE",
"167 340 LINE"
);
},
{
closed = 1;
nodes = (
"610 454 LINE",
"610 659 LINE",
"529 659 LINE",
"575 659 OFFCURVE",
"587 646 OFFCURVE",
"587 598 CURVE SMOOTH",
"587 454 LINE"
);
},
{
closed = 1;
nodes = (
"419 363 LINE",
"419 521 LINE",
"397 521 LINE",
"397 421 LINE SMOOTH",
"397 375 OFFCURVE",
"385 363 OFFCURVE",
"342 363 CURVE"
);
},
{
closed = 1;
nodes = (
"419 175 LINE",
"419 340 LINE",
"342 340 LINE",
"385 340 OFFCURVE",
"397 328 OFFCURVE",
"397 282 CURVE SMOOTH",
"397 175 LINE"
);
}
);
width = 665;
}
);
leftKerningGroup = I;
leftMetricsKey = H;
rightKerningGroup = F;
unicode = 0046;
},
{
color = 8;
glyphname = G;
lastChange = "2021-08-11 15:11:30 +0000";
layers = (
{
anchors = (
{
name = bottom;
position = "{379, 0}";
},
{
name = top;
position = "{379, 682}";
}
);
layerId = "1E61A082-F045-49A7-AB52-DD1B03FD9B54";
paths = (
{
closed = 1;
nodes = (
"563 -13 OFFCURVE",
"653 121 OFFCURVE",
"653 301 CURVE",
"640 301 LINE",
"640 140 OFFCURVE",
"554 4 OFFCURVE",
"378 4 CURVE SMOOTH",
"205 4 OFFCURVE",
"76 136 OFFCURVE",
"76 341 CURVE SMOOTH",
"76 545 OFFCURVE",
"203 678 OFFCURVE",
"371 678 CURVE SMOOTH",
"537 678 OFFCURVE",
"614 575 OFFCURVE",
"624 445 CURVE",
"636 445 LINE",
"633 600 OFFCURVE",
"534 695 OFFCURVE",
"371 695 CURVE SMOOTH",
"190 695 OFFCURVE",
"54 565 OFFCURVE",
"54 341 CURVE SMOOTH",
"54 117 OFFCURVE",
"193 -13 OFFCURVE",
"378 -13 CURVE SMOOTH"
);
},
{
closed = 1;
nodes = (
"658 0 LINE",
"658 301 LINE",
"653 301 LINE",
"640 229 LINE",
"640 0 LINE"
);
},
{
closed = 1;
nodes = (
"763 301 LINE",
"763 318 LINE",
"326 318 LINE",
"326 301 LINE"
);
},
{
closed = 1;
nodes = (
"644 445 LINE",
"644 682 LINE",
"626 682 LINE",
"626 470 LINE",
"636 445 LINE"
);
}
);
width = 773;
},
{
anchors = (
{
name = bottom;
position = "{407, 0}";
},
{
name = top;
position = "{397, 682}";
}
);
layerId = "219068EA-2B9B-40DC-949E-B60449C01B8A";
paths = (
{
closed = 1;
nodes = (
"595 -16 OFFCURVE",
"660 100 OFFCURVE",
"663 253 CURVE",
"631 253 LINE",
"619 174 OFFCURVE",
"568 110 OFFCURVE",
"450 110 CURVE SMOOTH",
"325 110 OFFCURVE",
"250 205 OFFCURVE",
"250 349 CURVE SMOOTH",
"250 497 OFFCURVE",
"323 588 OFFCURVE",
"447 588 CURVE SMOOTH",
"557 588 OFFCURVE",
"602 518 OFFCURVE",
"610 452 CURVE",
"651 452 LINE",
"651 602 OFFCURVE",
"555 699 OFFCURVE",
"379 699 CURVE SMOOTH",
"178 699 OFFCURVE",
"38 570 OFFCURVE",
"38 341 CURVE SMOOTH",
"38 113 OFFCURVE",
"182 -16 OFFCURVE",
"391 -16 CURVE SMOOTH"
);
},
{
closed = 1;
nodes = (
"747 0 LINE",
"747 253 LINE",
"663 253 LINE",
"636 173 LINE",
"636 0 LINE"
);
},
{
closed = 1;
nodes = (
"820 253 LINE",
"820 355 LINE",
"460 355 LINE",
"460 253 LINE"
);
},
{
closed = 1;
nodes = (
"723 452 LINE",
"723 682 LINE",
"612 682 LINE",
"612 529 LINE",
"651 452 LINE"
);
}
);
width = 841;
},
{
anchors = (
{
name = bottom;
position = "{393, 0}";
},
{
name = top;
position = "{383, 682}";
}
);
layerId = "0C29AA02-E021-4BD1-A2C4-87F681D64C35";
paths = (
{
closed = 1;
nodes = (
"580 -15 OFFCURVE",
"650 108 OFFCURVE",
"652 268 CURVE",
"617 268 LINE",
"610 169 OFFCURVE",
"554 92 OFFCURVE",
"438 92 CURVE SMOOTH",
"318 92 OFFCURVE",
"246 189 OFFCURVE",
"246 341 CURVE SMOOTH",
"246 495 OFFCURVE",
"317 595 OFFCURVE",
"433 595 CURVE SMOOTH",
"543 595 OFFCURVE",
"587 515 OFFCURVE",
"593 425 CURVE",
"630 425 LINE",
"628 594 OFFCURVE",
"551 696 OFFCURVE",
"370 696 CURVE SMOOTH",
"182 696 OFFCURVE",
"34 565 OFFCURVE",
"34 341 CURVE SMOOTH",
"34 116 OFFCURVE",
"182 -15 OFFCURVE",
"379 -15 CURVE SMOOTH"
);
},
{
closed = 1;
nodes = (
"713 0 LINE",
"713 268 LINE",
"652 268 LINE",
"619 167 LINE",
"619 0 LINE"
);
},
{
closed = 1;
nodes = (
"793 268 LINE",
"793 358 LINE",
"416 358 LINE",
"416 268 LINE"
);
},
{
closed = 1;
nodes = (
"686 425 LINE",
"686 682 LINE",
"592 682 LINE",
"592 529 LINE",
"630 425 LINE"
);
}
);
width = 801;
},
{
anchors = (
{
name = bottom;
position = "{411, 0}";
},
{
name = top;
position = "{411, 682}";
}
);
layerId = "2B88661E-23DD-4EDA-82FC-C2AEA983F097";
paths = (
{
closed = 1;
nodes = (
"613 -15 OFFCURVE",
"710 123 OFFCURVE",
"707 308 CURVE",
"690 308 LINE",
"690 150 OFFCURVE",
"599 8 OFFCURVE",
"411 8 CURVE SMOOTH",
"228 8 OFFCURVE",
"90 136 OFFCURVE",
"90 341 CURVE SMOOTH",
"90 547 OFFCURVE",
"228 674 OFFCURVE",
"409 674 CURVE SMOOTH",
"582 674 OFFCURVE",
"661 580 OFFCURVE",
"671 463 CURVE",
"687 463 LINE",
"684 609 OFFCURVE",
"580 697 OFFCURVE",
"406 697 CURVE SMOOTH",
"211 697 OFFCURVE",
"62 566 OFFCURVE",
"62 341 CURVE SMOOTH",
"62 116 OFFCURVE",
"211 -15 OFFCURVE",
"410 -15 CURVE SMOOTH"
);
},
{
closed = 1;
nodes = (
"714 0 LINE",
"714 308 LINE",
"707 308 LINE",
"691 222 LINE",
"691 0 LINE"
);
},
{
closed = 1;
nodes = (
"817 308 LINE",
"817 331 LINE",
"410 331 LINE",
"410 308 LINE"
);
},
{
closed = 1;
nodes = (
"695 463 LINE",
"695 682 LINE",
"672 682 LINE",
"672 503 LINE",
"687 463 LINE"
);
}
);
width = 820;
}
);
leftKerningGroup = O;
leftMetricsKey = O;
rightKerningGroup = G;
unicode = 0047;
},
{
color = 8;
glyphname = H;
lastChange = "2021-07-06 17:24:42 +0000";
layers = (
{
anchors = (
{
name = bottom;
position = "{383, 0}";
},
{
name = center;
position = "{383, 341}";
},
{
name = top;
position = "{383, 682}";
},
{
name = topleft;
position = "{10, 682}";
}
);
hints = (
{
origin = "{0, 1}";
scale = "{1.18, 1}";
type = Corner;
name = _corner.Serif;
},
{
origin = "{0, 2}";
scale = "{-1.08, 1}";
type = Corner;
name = _corner.Serif;
},
{
origin = "{0, 3}";
scale = "{1.1, 1}";
type = Corner;
name = _corner.Serif;
options = 1;
},
{
origin = "{0, 0}";
scale = "{-1.2, 1}";
type = Corner;
name = _corner.Serif;
},
{
origin = "{1, 1}";
scale = "{1.08, 1}";
type = Corner;
name = _corner.Serif;
},
{
origin = "{1, 2}";
scale = "{-1.18, 1}";
type = Corner;
name = _corner.Serif;
},
{
origin = "{1, 3}";
scale = "{1.2, 1}";
type = Corner;
name = _corner.Serif;
options = 1;
},
{
origin = "{1, 0}";
scale = "{-1.1, 1}";
type = Corner;
name = _corner.Serif;
}
);
layerId = "1E61A082-F045-49A7-AB52-DD1B03FD9B54";
paths = (
{
closed = 1;
nodes = (
"159 0 LINE",
"159 682 LINE",
"137 682 LINE",
"137 0 LINE"
);
},
{
closed = 1;
nodes = (
"629 0 LINE",
"629 682 LINE",
"607 682 LINE",
"607 0 LINE"
);
},
{
closed = 1;
nodes = (
"607 337 LINE",
"607 354 LINE",
"159 354 LINE",
"159 337 LINE"
);
}
);
width = 765;
},
{
anchors = (
{
name = bottom;
position = "{422, 0}";
},
{
name = center;
position = "{422, 341}";
},
{
name = top;
position = "{422, 682}";
},
{
name = topleft;
position = "{14, 682}";
}
);
hints = (
{
origin = "{0, 1}";
scale = "{1.18, 1}";
type = Corner;
name = _corner.Serif;
},
{
origin = "{0, 2}";
scale = "{-1.08, 1}";
type = Corner;
name = _corner.Serif;
},
{
origin = "{0, 3}";
scale = "{1.1, 1}";
type = Corner;
name = _corner.Serif;
options = 1;
},
{
origin = "{0, 0}";
scale = "{-1.18, 1}";
type = Corner;
name = _corner.Serif;
},
{
origin = "{1, 1}";
scale = "{1.08, 1}";
type = Corner;
name = _corner.Serif;
},
{
origin = "{1, 2}";
scale = "{-1.18, 1}";
type = Corner;
name = _corner.Serif;
},
{
origin = "{1, 3}";
scale = "{1.18, 1}";
type = Corner;
name = _corner.Serif;
options = 1;
},
{
origin = "{1, 0}";
scale = "{-1.08, 1}";
type = Corner;
name = _corner.Serif;
}
);
layerId = "219068EA-2B9B-40DC-949E-B60449C01B8A";
paths = (
{
closed = 1;
nodes = (
"299 0 LINE",
"299 682 LINE",
"109 682 LINE",
"109 0 LINE"
);
},
{
closed = 1;
nodes = (
"737 0 LINE",
"737 682 LINE",
"547 682 LINE",
"547 0 LINE"
);
},
{
closed = 1;
nodes = (
"547 295 LINE",
"547 397 LINE",
"299 397 LINE",
"299 295 LINE"
);
}
);
width = 844;
},
{
anchors = (
{
name = bottom;
position = "{403, 0}";
},
{
name = center;
position = "{403, 341}";
},
{
name = top;
position = "{403, 682}";
},
{
name = topleft;
position = "{12, 682}";
}
);
hints = (
{
origin = "{0, 1}";
scale = "{1.18, 0.98}";
type = Corner;
name = _corner.Serif;
},
{
origin = "{0, 2}";
scale = "{-1.08, 0.98}";
type = Corner;
name = _corner.Serif;
},
{
origin = "{0, 3}";
scale = "{1.1, 1}";
type = Corner;
name = _corner.Serif;
options = 1;
},
{
origin = "{0, 0}";
scale = "{-1.18, 1}";
type = Corner;
name = _corner.Serif;
},
{
origin = "{1, 1}";
scale = "{1.08, 0.98}";
type = Corner;
name = _corner.Serif;
},
{
origin = "{1, 2}";
scale = "{-1.18, 0.98}";
type = Corner;
name = _corner.Serif;
},
{
origin = "{1, 3}";
scale = "{1.18, 1}";
type = Corner;
name = _corner.Serif;
options = 1;
},
{
origin = "{1, 0}";
scale = "{-1.08, 1}";
type = Corner;
name = _corner.Serif;
}
);
layerId = "0C29AA02-E021-4BD1-A2C4-87F681D64C35";
paths = (
{
closed = 1;
nodes = (
"294 0 LINE",
"294 682 LINE",
"104 682 LINE",
"104 0 LINE"
);
},
{
closed = 1;
nodes = (
"702 0 LINE",
"702 682 LINE",
"512 682 LINE",
"512 0 LINE"
);
},
{
closed = 1;
nodes = (
"512 302 LINE",
"512 394 LINE",
"294 394 LINE",
"294 302 LINE"
);
}
);
width = 805;
},
{
anchors = (
{
name = bottom;
position = "{400, 0}";
},
{
name = center;
position = "{400, 341}";
},
{
name = top;
position = "{400, 682}";
},
{
name = topleft;
position = "{10, 682}";
}
);
hints = (
{
origin = "{0, 1}";
scale = "{1.18, 1}";
type = Corner;
name = _corner.Serif;
},
{
origin = "{0, 2}";
scale = "{-1.08, 1}";
type = Corner;
name = _corner.Serif;
},
{
origin = "{0, 3}";
scale = "{1.1, 1}";
type = Corner;
name = _corner.Serif;
options = 1;
},
{
origin = "{0, 0}";
scale = "{-1.1993, 1}";
type = Corner;
name = _corner.Serif;
},
{
origin = "{1, 1}";
scale = "{1.08, 1}";
type = Corner;
name = _corner.Serif;
},
{
origin = "{1, 2}";
scale = "{-1.18, 1}";
type = Corner;
name = _corner.Serif;
},
{
origin = "{1, 3}";
scale = "{1.1993, 1}";
type = Corner;
name = _corner.Serif;
options = 1;
},
{
origin = "{1, 0}";
scale = "{-1.0993, 1}";
type = Corner;
name = _corner.Serif;
}
);
layerId = "2B88661E-23DD-4EDA-82FC-C2AEA983F097";
paths = (
{
closed = 1;
nodes = (
"168 0 LINE",
"168 682 LINE",
"140 682 LINE",
"140 0 LINE"
);
},
{
closed = 1;
nodes = (
"659 0 LINE",
"659 682 LINE",
"631 682 LINE",
"631 0 LINE"
);
},
{
closed = 1;
nodes = (
"631 334 LINE",
"631 357 LINE",
"168 357 LINE",
"168 334 LINE"
);
}
);
width = 799;
}
);
leftKerningGroup = I;
rightKerningGroup = I;
unicode = 0048;
},
{
color = 8;
glyphname = I;
lastChange = "2021-07-13 20:09:20 +0000";
layers = (
{
anchors = (
{
name = bottom;
position = "{155, 0}";
},
{
name = ogonek;
position = "{213, 0}";
},
{
name = top;
position = "{155, 682}";
},
{
name = topleft;
position = "{8, 682}";
}
);
hints = (
{
origin = "{0, 2}";
scale = "{-1.18, 1}";
type = Corner;
name = _corner.Serif;
},
{
origin = "{0, 3}";
scale = "{1.2, 1}";
type = Corner;
name = _corner.Serif;
options = 1;
},
{
origin = "{0, 0}";
scale = "{-1.2, 1}";
type = Corner;
name = _corner.Serif;
},
{
origin = "{0, 1}";
scale = "{1.18, 1}";
type = Corner;
name = _corner.Serif;
}
);
layerId = "1E61A082-F045-49A7-AB52-DD1B03FD9B54";
paths = (
{
closed = 1;
nodes = (
"166 0 LINE",
"166 682 LINE",
"144 682 LINE",
"144 0 LINE"
);
}
);
width = 310;
},
{
anchors = (
{
name = bottom;
position = "{204, 0}";
},
{
name = ogonek;
position = "{299, 0}";
},
{
name = top;
position = "{204, 682}";
},
{
name = topleft;
position = "{9, 682}";
}
);
hints = (
{
origin = "{0, 2}";
scale = "{-1.18, 1}";
type = Corner;
name = _corner.Serif;
},
{
origin = "{0, 3}";
scale = "{1.2, 1}";
type = Corner;
name = _corner.Serif;
options = 1;
},
{
origin = "{0, 0}";
scale = "{-1.2, 1}";
type = Corner;
name = _corner.Serif;
},
{
origin = "{0, 1}";
scale = "{1.18, 1}";
type = Corner;
name = _corner.Serif;
}
);
layerId = "219068EA-2B9B-40DC-949E-B60449C01B8A";
paths = (
{
closed = 1;
nodes = (
"299 0 LINE",
"299 682 LINE",
"109 682 LINE",
"109 0 LINE"
);
}
);
width = 407;
},
{
anchors = (
{
name = bottom;
position = "{207, 0}";
},
{
name = ogonek;
position = "{303, 0}";
},
{
name = top;
position = "{207, 682}";
},
{
name = topleft;
position = "{15, 682}";
}
);
hints = (
{
origin = "{0, 2}";
scale = "{-1.18, 0.98}";
type = Corner;
name = _corner.Serif;
},
{
origin = "{0, 3}";
scale = "{1.2, 1}";
type = Corner;
name = _corner.Serif;
options = 1;
},
{
origin = "{0, 0}";
scale = "{-1.2, 1}";
type = Corner;
name = _corner.Serif;
},
{
origin = "{0, 1}";
scale = "{1.18, 0.98}";
type = Corner;
name = _corner.Serif;
}
);
layerId = "0C29AA02-E021-4BD1-A2C4-87F681D64C35";
paths = (
{
closed = 1;
nodes = (
"302 0 LINE",
"302 682 LINE",
"112 682 LINE",
"112 0 LINE"
);
}
);
width = 414;
},
{
anchors = (
{
name = bottom;
position = "{162, 0}";
},
{
name = ogonek;
position = "{221, 0}";
},
{
name = top;
position = "{162, 682}";
},
{
name = topleft;
position = "{9, 682}";
}
);
hints = (
{
origin = "{0, 2}";
scale = "{-1.18, 1}";
type = Corner;
name = _corner.Serif;
},
{
origin = "{0, 3}";
scale = "{1.2, 1}";
type = Corner;
name = _corner.Serif;
options = 1;
},
{
origin = "{0, 0}";
scale = "{-1.2, 1}";
type = Corner;
name = _corner.Serif;
},
{
origin = "{0, 1}";
scale = "{1.18, 1}";
type = Corner;
name = _corner.Serif;
}
);
layerId = "2B88661E-23DD-4EDA-82FC-C2AEA983F097";
paths = (
{
closed = 1;
nodes = (
"176 0 LINE",
"176 682 LINE",
"148 682 LINE",
"148 0 LINE"
);
}
);
width = 324;
}
);
leftKerningGroup = I;
rightKerningGroup = I;
unicode = 0049;
},
{
color = 8;
glyphname = J;
lastChange = "2021-07-13 20:09:50 +0000";
layers = (
{
anchors = (
{
name = bottom;
position = "{272, 0}";
},
{
name = top;
position = "{365, 682}";
}
);
hints = (
{
origin = "{0, 3}";
scale = "{1.08, 1}";
type = Corner;
name = _corner.Serif;
},
{
origin = "{0, 4}";
scale = "{-1.88, 1}";
type = Corner;
name = _corner.Serif;
options = 1;
}
);
layerId = "1E61A082-F045-49A7-AB52-DD1B03FD9B54";
paths = (
{
closed = 1;
nodes = (
"345 -7 OFFCURVE",
"417 56 OFFCURVE",
"417 195 CURVE SMOOTH",
"417 682 LINE",
"395 682 LINE",
"395 194 LINE SMOOTH",
"395 72 OFFCURVE",
"333 11 OFFCURVE",
"231 11 CURVE SMOOTH",
"129 11 OFFCURVE",
"66 72 OFFCURVE",
"66 194 CURVE SMOOTH",
"66 268 LINE",
"48 268 LINE",
"48 192 LINE SMOOTH",
"48 56 OFFCURVE",
"121 -7 OFFCURVE",
"233 -7 CURVE SMOOTH"
);
}
);
width = 538;
},
{
anchors = (
{
name = bottom;
position = "{312, 0}";
},
{
name = top;
position = "{411, 682}";
}
);
hints = (
{
origin = "{0, 4}";
scale = "{-1.38, 1}";
type = Corner;
name = _corner.Serif;
options = 1;
},
{
origin = "{0, 3}";
scale = "{1.08, 1}";
type = Corner;
name = _corner.Serif;
}
);
layerId = "219068EA-2B9B-40DC-949E-B60449C01B8A";
paths = (
{
closed = 1;
nodes = (
"430 -13 OFFCURVE",
"519 65 OFFCURVE",
"519 210 CURVE SMOOTH",
"519 682 LINE",
"329 682 LINE",
"329 210 LINE SMOOTH",
"329 152 OFFCURVE",
"304 108 OFFCURVE",
"236 108 CURVE SMOOTH",
"169 108 OFFCURVE",
"141 153 OFFCURVE",
"141 210 CURVE SMOOTH",
"141 271 LINE",
"28 271 LINE",
"28 200 LINE SMOOTH",
"28 62 OFFCURVE",
"128 -13 OFFCURVE",
"275 -13 CURVE SMOOTH"
);
}
);
width = 616;
},
{
anchors = (
{
name = bottom;
position = "{278, 0}";
},
{
name = top;
position = "{334, 682}";
}
);
hints = (
{
origin = "{0, 3}";
scale = "{1.08, 0.98}";
type = Corner;
name = _corner.Serif;
},
{
origin = "{0, 4}";
scale = "{-1.98, 0.98}";
type = Corner;
name = _corner.Serif;
options = 1;
}
);
layerId = "0C29AA02-E021-4BD1-A2C4-87F681D64C35";
paths = (
{
closed = 1;
nodes = (
"380 -15 OFFCURVE",
"459 57 OFFCURVE",
"459 190 CURVE SMOOTH",
"459 682 LINE",
"269 682 LINE",
"269 190 LINE SMOOTH",
"269 142 OFFCURVE",
"245 108 OFFCURVE",
"190 108 CURVE SMOOTH",
"135 108 OFFCURVE",
"113 143 OFFCURVE",
"113 190 CURVE SMOOTH",
"113 271 LINE",
"23 271 LINE",
"23 190 LINE SMOOTH",
"23 57 OFFCURVE",
"103 -15 OFFCURVE",
"241 -15 CURVE SMOOTH"
);
}
);
width = 556;
},
{
anchors = (
{
name = bottom;
position = "{289, 0}";
},
{
name = top;
position = "{407, 682}";
}
);
hints = (
{
origin = "{0, 4}";
scale = "{-1.573, 1}";
type = Corner;
name = _corner.Serif;
options = 1;
},
{
origin = "{0, 3}";
scale = "{1.08, 1}";
type = Corner;
name = _corner.Serif;
}
);
layerId = "2B88661E-23DD-4EDA-82FC-C2AEA983F097";
paths = (
{
closed = 1;
nodes = (
"369 -7 OFFCURVE",
"447 60 OFFCURVE",
"447 209 CURVE SMOOTH",
"447 682 LINE",
"419 682 LINE",
"419 208 LINE SMOOTH",
"419 82 OFFCURVE",
"354 16 OFFCURVE",
"246 16 CURVE SMOOTH",
"138 16 OFFCURVE",
"71 80 OFFCURVE",
"71 208 CURVE SMOOTH",
"71 242 LINE",
"48 242 LINE",
"48 205 LINE SMOOTH",
"48 63 OFFCURVE",
"121 -7 OFFCURVE",
"247 -7 CURVE SMOOTH"
);
}
);
width = 585;
}
);
leftKerningGroup = J;
rightKerningGroup = U;
rightMetricsKey = U;
unicode = 004A;
},
{
color = 8;
glyphname = K;
lastChange = "2021-07-13 20:10:20 +0000";
layers = (
{
anchors = (
{
name = bottom;
position = "{379, 0}";
},
{
name = top;
position = "{371, 682}";
}
);
hints = (
{
origin = "{1, 2}";
scale = "{-1.08, 1}";
type = Corner;
name = _corner.Serif;
},
{
origin = "{1, 3}";
scale = "{1.1, 1}";
type = Corner;
name = _corner.Serif;
options = 1;
},
{
origin = "{1, 0}";
scale = "{-1.2, 1}";
type = Corner;
name = _corner.Serif;
},
{
origin = "{1, 1}";
scale = "{1.18, 1}";
type = Corner;
name = _corner.Serif;
},
{
origin = "{0, 1}";
scale = "{-1.38, 1}";
type = Corner;
name = _corner.Serif;
options = 1;
},
{
origin = "{0, 0}";
scale = "{0.62, 1}";
type = Corner;
name = _corner.Serif;
},
{
origin = "{2, 3}";
scale = "{1.4, 1}";
type = Corner;
name = _corner.Serif;
},
{
origin = "{2, 0}";
scale = "{-0.66, 1}";
type = Corner;
name = _corner.Serif;
options = 1;
}
);
layerId = "1E61A082-F045-49A7-AB52-DD1B03FD9B54";
paths = (
{
closed = 1;
nodes = (
"626 682 LINE",
"598 682 LINE",
"143 279 LINE",
"155 265 LINE"
);
},
{
closed = 1;
nodes = (
"159 0 LINE",
"159 682 LINE",
"137 682 LINE",
"137 0 LINE"
);
},
{
closed = 1;
nodes = (
"653 0 LINE",
"275 385 LINE",
"261 371 LINE",
"624 0 LINE"
);
}
);
width = 741;
},
{
anchors = (
{
name = bottom;
position = "{392, 0}";
},
{
name = top;
position = "{394, 682}";
}
);
hints = (
{
origin = "{1, 2}";
scale = "{-1.08, 1}";
type = Corner;
name = _corner.Serif;
},
{
origin = "{1, 3}";
scale = "{1.1, 1}";
type = Corner;
name = _corner.Serif;
options = 1;
},
{
origin = "{1, 0}";
scale = "{-0.94, 1}";
type = Corner;
name = _corner.Serif;
},
{
origin = "{1, 1}";
scale = "{1.08, 1}";
type = Corner;
name = _corner.Serif;
},
{
origin = "{0, 1}";
scale = "{-2.14, 1}";
type = Corner;
name = _corner.Serif;
options = 1;
},
{
origin = "{0, 0}";
scale = "{0.02, 1}";
type = Corner;
name = _corner.Serif;
},
{
origin = "{2, 0}";
scale = "{-0.2, 1}";
type = Corner;
name = _corner.Serif;
options = 1;
},
{
origin = "{2, 3}";
scale = "{1.54, 1}";
type = Corner;
name = _corner.Serif;
}
);
layerId = "219068EA-2B9B-40DC-949E-B60449C01B8A";
paths = (
{
closed = 1;
nodes = (
"800 682 LINE",
"629 682 LINE",
"184 283 LINE",
"257 198 LINE"
);
},
{
closed = 1;
nodes = (
"299 0 LINE",
"299 682 LINE",
"109 682 LINE",
"109 0 LINE"
);
},
{
closed = 1;
nodes = (
"796 0 LINE",
"462 428 LINE",
"326 307 LINE",
"558 0 LINE"
);
}
);
width = 802;
},
{
anchors = (
{
name = bottom;
position = "{393, 0}";
},
{
name = top;
position = "{392, 682}";
}
);
hints = (
{
origin = "{1, 2}";
scale = "{-1.08, 0.98}";
type = Corner;
name = _corner.Serif;
},
{
origin = "{1, 3}";
scale = "{1.1, 1}";
type = Corner;
name = _corner.Serif;
options = 1;
},
{
origin = "{1, 0}";
scale = "{-0.92, 1}";
type = Corner;
name = _corner.Serif;
},
{
origin = "{1, 1}";
scale = "{1.08, 0.98}";
type = Corner;
name = _corner.Serif;
},
{
origin = "{0, 1}";
scale = "{-2.06, 0.98}";
type = Corner;
name = _corner.Serif;
options = 1;
},
{
origin = "{0, 0}";
scale = "{0.04, 0.98}";
type = Corner;
name = _corner.Serif;
},
{
origin = "{2, 3}";
scale = "{1.54, 1}";
type = Corner;
name = _corner.Serif;
},
{
origin = "{2, 0}";
scale = "{-0.15, 1}";
type = Corner;
name = _corner.Serif;
options = 1;
}
);
layerId = "0C29AA02-E021-4BD1-A2C4-87F681D64C35";
paths = (
{
closed = 1;
nodes = (
"787 682 LINE",
"638 682 LINE",
"192 275 LINE",
"257 203 LINE"
);
},
{
closed = 1;
nodes = (
"294 0 LINE",
"294 682 LINE",
"104 682 LINE",
"104 0 LINE"
);
},
{
closed = 1;
nodes = (
"796 0 LINE",
"463 420 LINE",
"329 307 LINE",
"563 0 LINE"
);
}
);
width = 800;
},
{
anchors = (
{
name = bottom;
position = "{386, 0}";
},
{
name = top;
position = "{375, 682}";
}
);
hints = (
{
origin = "{1, 2}";
scale = "{-1.08, 1}";
type = Corner;
name = _corner.Serif;
},
{
origin = "{1, 3}";
scale = "{1.1, 1}";
type = Corner;
name = _corner.Serif;
options = 1;
},
{
origin = "{1, 0}";
scale = "{-1.1909, 1}";
type = Corner;
name = _corner.Serif;
},
{
origin = "{1, 1}";
scale = "{1.1765, 1}";
type = Corner;
name = _corner.Serif;
},
{
origin = "{0, 1}";
scale = "{-1.4066, 1}";
type = Corner;
name = _corner.Serif;
options = 1;
},
{
origin = "{0, 0}";
scale = "{0.599, 1}";
type = Corner;
name = _corner.Serif;
},
{
origin = "{2, 3}";
scale = "{1.4049, 1}";
type = Corner;
name = _corner.Serif;
},
{
origin = "{2, 0}";
scale = "{-0.6439, 1}";
type = Corner;
name = _corner.Serif;
options = 1;
}
);
layerId = "2B88661E-23DD-4EDA-82FC-C2AEA983F097";
paths = (
{
closed = 1;
nodes = (
"645 682 LINE",
"608 682 LINE",
"149 268 LINE",
"163 249 LINE"
);
},
{
closed = 1;
nodes = (
"168 0 LINE",
"168 682 LINE",
"140 682 LINE",
"140 0 LINE"
);
},
{
closed = 1;
nodes = (
"671 0 LINE",
"296 381 LINE",
"277 364 LINE",
"633 0 LINE"
);
}
);
width = 752;
}
);
leftKerningGroup = I;
leftMetricsKey = H;
rightKerningGroup = K;
rightMetricsKey = X;
unicode = 004B;
},
{
color = 8;
glyphname = L;
lastChange = "2021-07-21 13:24:38 +0000";
layers = (
{
anchors = (
{
name = bottom;
position = "{326, 0}";
},
{
name = center;
position = "{148, 545}";
},
{
name = top;
position = "{148, 682}";
},
{
name = topright;
position = "{318, 682}";
}
);
hints = (
{
origin = "{0, 1}";
scale = "{1.88, 1}";
type = Corner;
name = _corner.Serif;
},
{
origin = "{0, 2}";
scale = "{-1.08, 1}";
type = Corner;
name = _corner.Serif;
},
{
origin = "{0, 3}";
scale = "{1.1, 1}";
type = Corner;
name = _corner.Serif;
options = 1;
}
);
layerId = "1E61A082-F045-49A7-AB52-DD1B03FD9B54";
paths = (
{
closed = 1;
nodes = (
"159 0 LINE",
"159 682 LINE",
"137 682 LINE",
"137 0 LINE"
);
},
{
closed = 1;
nodes = (
"583 0 LINE",
"583 17 LINE",
"159 17 LINE",
"159 0 LINE"
);
},
{
closed = 1;
nodes = (
"583 17 LINE",
"583 264 LINE",
"565 264 LINE",
"565 76 LINE SMOOTH",
"565 29 OFFCURVE",
"553 17 OFFCURVE",
"508 17 CURVE"
);
}
);
width = 634;
},
{
anchors = (
{
name = bottom;
position = "{368, 0}";
},
{
name = center;
position = "{203, 573}";
},
{
name = top;
position = "{204, 682}";
},
{
name = topright;
position = "{384, 682}";
}
);
hints = (
{
origin = "{0, 1}";
scale = "{1.38, 1}";
type = Corner;
name = _corner.Serif;
},
{
origin = "{0, 2}";
scale = "{-1.08, 1}";
type = Corner;
name = _corner.Serif;
},
{
origin = "{0, 3}";
scale = "{1.1, 1}";
type = Corner;
name = _corner.Serif;
options = 1;
}
);
layerId = "219068EA-2B9B-40DC-949E-B60449C01B8A";
paths = (
{
closed = 1;
nodes = (
"299 0 LINE",
"299 682 LINE",
"109 682 LINE",
"109 0 LINE"
);
},
{
closed = 1;
nodes = (
"671 0 LINE",
"671 102 LINE",
"299 102 LINE",
"299 0 LINE"
);
},
{
closed = 1;
nodes = (
"671 102 LINE",
"671 245 LINE",
"565 245 LINE",
"565 211 LINE SMOOTH",
"565 134 OFFCURVE",
"538 102 OFFCURVE",
"465 102 CURVE"
);
}
);
width = 712;
},
{
anchors = (
{
name = bottom;
position = "{337, 0}";
},
{
name = center;
position = "{199, 564}";
},
{
name = top;
position = "{199, 682}";
},
{
name = topright;
position = "{435, 682}";
}
);
hints = (
{
origin = "{0, 1}";
scale = "{1.98, 0.98}";
type = Corner;
name = _corner.Serif;
},
{
origin = "{0, 2}";
scale = "{-1.08, 0.98}";
type = Corner;
name = _corner.Serif;
},
{
origin = "{0, 3}";
scale = "{1.1, 1}";
type = Corner;
name = _corner.Serif;
options = 1;
}
);
layerId = "0C29AA02-E021-4BD1-A2C4-87F681D64C35";
paths = (
{
closed = 1;
nodes = (
"294 0 LINE",
"294 682 LINE",
"104 682 LINE",
"104 0 LINE"
);
},
{
closed = 1;
nodes = (
"635 0 LINE",
"635 92 LINE",
"294 92 LINE",
"294 0 LINE"
);
},
{
closed = 1;
nodes = (
"635 92 LINE",
"635 255 LINE",
"545 255 LINE",
"545 201 LINE SMOOTH",
"545 123 OFFCURVE",
"518 92 OFFCURVE",
"445 92 CURVE"
);
}
);
width = 674;
},
{
anchors = (
{
name = bottom;
position = "{341, 0}";
},
{
name = center;
position = "{154, 555}";
},
{
name = top;
position = "{154, 682}";
},
{
name = topright;
position = "{267, 682}";
}
);
hints = (
{
origin = "{0, 1}";
scale = "{1.573, 1}";
type = Corner;
name = _corner.Serif;
},
{
origin = "{0, 2}";
scale = "{-1.08, 1}";
type = Corner;
name = _corner.Serif;
},
{
origin = "{0, 3}";
scale = "{1.1, 1}";
type = Corner;
name = _corner.Serif;
options = 1;
}
);
layerId = "2B88661E-23DD-4EDA-82FC-C2AEA983F097";
paths = (
{
closed = 1;
nodes = (
"168 0 LINE",
"168 682 LINE",
"140 682 LINE",
"140 0 LINE"
);
},
{
closed = 1;
nodes = (
"617 0 LINE",
"617 23 LINE",
"168 23 LINE",
"168 0 LINE"
);
},
{
closed = 1;
nodes = (
"617 23 LINE",
"617 237 LINE",
"594 237 LINE",
"594 84 LINE SMOOTH",
"594 35 OFFCURVE",
"581 23 OFFCURVE",
"535 23 CURVE"
);
}
);
width = 674;
}
);
leftKerningGroup = I;
leftMetricsKey = H;
rightKerningGroup = L;
unicode = 004C;
},
{
color = 8;
glyphname = M;
lastChange = "2021-07-06 17:30:32 +0000";
layers = (
{
anchors = (
{
name = bottom;
position = "{465, 0}";
},
{
name = top;
position = "{465, 682}";
}
);
hints = (
{
origin = "{1, 3}";
scale = "{-1.08, 1}";
type = Corner;
name = _corner.Serif;
},
{
origin = "{1, 4}";
scale = "{1.1, 1}";
type = Corner;
name = _corner.Serif;
options = 1;
},
{
origin = "{1, 0}";
scale = "{-1.2, 1}";
type = Corner;
name = _corner.Serif;
},
{
origin = "{2, 1}";
scale = "{1.08, 1}";
type = Corner;
name = _corner.Serif;
},
{
origin = "{2, 3}";
scale = "{1.2, 1}";
type = Corner;
name = _corner.Serif;
},
{
origin = "{2, 0}";
scale = "{-1.1, 1}";
type = Corner;
name = _corner.Serif;
options = 1;
}
);
layerId = "1E61A082-F045-49A7-AB52-DD1B03FD9B54";
paths = (
{
closed = 1;
nodes = (
"472 0 LINE",
"772 650 LINE",
"772 682 LINE",
"767 682 LINE",
"463 24 LINE",
"469 24 LINE",
"166 682 LINE",
"155 682 LINE",
"155 654 LINE",
"456 0 LINE"
);
},
{
closed = 1;
nodes = (
"155 0 LINE",
"155 654 LINE",
"155 682 LINE",
"137 682 LINE",
"137 0 LINE"
);
},
{
closed = 1;
nodes = (
"794 0 LINE",
"794 682 LINE",
"772 682 LINE",
"772 0 LINE"
);
}
);
width = 930;
},
{
anchors = (
{
name = bottom;
position = "{499, 0}";
},
{
name = top;
position = "{531, 682}";
}
);
hints = (
{
origin = "{1, 3}";
scale = "{-1.08, 1}";
type = Corner;
name = _corner.Serif;
},
{
origin = "{1, 4}";
scale = "{1.1, 1}";
type = Corner;
name = _corner.Serif;
options = 1;
},
{
origin = "{1, 0}";
scale = "{-1.2, 1}";
type = Corner;
name = _corner.Serif;
},
{
origin = "{2, 1}";
scale = "{1.08, 1}";
type = Corner;
name = _corner.Serif;
},
{
origin = "{2, 3}";
scale = "{1.2, 1}";
type = Corner;
name = _corner.Serif;
},
{
origin = "{2, 0}";
scale = "{-1.1, 1}";
type = Corner;
name = _corner.Serif;
options = 1;
}
);
layerId = "219068EA-2B9B-40DC-949E-B60449C01B8A";
paths = (
{
closed = 1;
nodes = (
"560 0 LINE",
"760 440 LINE",
"760 682 LINE",
"745 682 LINE",
"517 180 LINE",
"544 180 LINE",
"301 682 LINE",
"227 682 LINE",
"227 416 LINE",
"429 0 LINE"
);
},
{
closed = 1;
nodes = (
"227 0 LINE",
"227 416 LINE",
"227 682 LINE",
"109 682 LINE",
"109 0 LINE"
);
},
{
closed = 1;
nodes = (
"946 0 LINE",
"946 682 LINE",
"760 682 LINE",
"760 0 LINE"
);
}
);
width = 1055;
},
{
anchors = (
{
name = bottom;
position = "{448, 0}";
},
{
name = top;
position = "{489, 682}";
}
);
hints = (
{
origin = "{1, 3}";
scale = "{-1.08, 0.98}";
type = Corner;
name = _corner.Serif;
},
{
origin = "{1, 4}";
scale = "{1.1, 1}";
type = Corner;
name = _corner.Serif;
options = 1;
},
{
origin = "{1, 0}";
scale = "{-1.2, 1}";
type = Corner;
name = _corner.Serif;
},
{
origin = "{2, 1}";
scale = "{1.08, 0.98}";
type = Corner;
name = _corner.Serif;
},
{
origin = "{2, 3}";
scale = "{1.2, 1}";
type = Corner;
name = _corner.Serif;
},
{
origin = "{2, 0}";
scale = "{-1.1, 1}";
type = Corner;
name = _corner.Serif;
options = 1;
}
);
layerId = "0C29AA02-E021-4BD1-A2C4-87F681D64C35";
paths = (
{
closed = 1;
nodes = (
"498 0 LINE",
"680 457 LINE",
"680 682 LINE",
"671 682 LINE",
"471 180 LINE",
"500 180 LINE",
"287 682 LINE",
"204 682 LINE",
"204 432 LINE",
"388 0 LINE"
);
},
{
closed = 1;
nodes = (
"204 0 LINE",
"204 432 LINE",
"204 682 LINE",
"104 682 LINE",
"104 0 LINE"
);
},
{
closed = 1;
nodes = (
"866 0 LINE",
"866 682 LINE",
"680 682 LINE",
"680 0 LINE"
);
}
);
width = 970;
},
{
anchors = (
{
name = bottom;
position = "{494, 0}";
},
{
name = top;
position = "{496, 682}";
}
);
hints = (
{
origin = "{1, 3}";
scale = "{-1.08, 1}";
type = Corner;
name = _corner.Serif;
},
{
origin = "{1, 4}";
scale = "{1.1, 1}";
type = Corner;
name = _corner.Serif;
options = 1;
},
{
origin = "{1, 0}";
scale = "{-1.2, 1}";
type = Corner;
name = _corner.Serif;
},
{
origin = "{2, 1}";
scale = "{1.08, 1}";
type = Corner;
name = _corner.Serif;
},
{
origin = "{2, 3}";
scale = "{1.2, 1}";
type = Corner;
name = _corner.Serif;
},
{
origin = "{2, 0}";
scale = "{-1.1, 1}";
type = Corner;
name = _corner.Serif;
options = 1;
}
);
layerId = "2B88661E-23DD-4EDA-82FC-C2AEA983F097";
paths = (
{
closed = 1;
nodes = (
"504 0 LINE",
"823 643 LINE",
"823 682 LINE",
"815 682 LINE",
"488 22 LINE",
"504 22 LINE",
"178 682 LINE",
"165 682 LINE",
"165 645 LINE",
"484 0 LINE"
);
},
{
closed = 1;
nodes = (
"165 0 LINE",
"165 645 LINE",
"165 682 LINE",
"140 682 LINE",
"140 0 LINE"
);
},
{
closed = 1;
nodes = (
"851 0 LINE",
"851 682 LINE",
"823 682 LINE",
"823 0 LINE"
);
}
);
width = 991;
}
);
leftKerningGroup = I;
leftMetricsKey = H;
rightKerningGroup = I;
rightMetricsKey = H;
unicode = 004D;
},
{
color = 8;
glyphname = N;
lastChange = "2021-07-13 20:12:39 +0000";
layers = (
{
anchors = (
{
name = bottom;
position = "{410, 0}";
},
{
name = top;
position = "{397, 682}";
}
);
hints = (
{
origin = "{1, 3}";
scale = "{-1.08, 1}";
type = Corner;
name = _corner.Serif;
},
{
origin = "{1, 4}";
scale = "{1.1, 1}";
type = Corner;
name = _corner.Serif;
options = 1;
},
{
origin = "{1, 0}";
scale = "{-1.2, 1}";
type = Corner;
name = _corner.Serif;
},
{
origin = "{2, 1}";
scale = "{1.08, 1}";
type = Corner;
name = _corner.Serif;
},
{
origin = "{2, 2}";
scale = "{-1.18, 1}";
type = Corner;
name = _corner.Serif;
options = 1;
}
);
layerId = "1E61A082-F045-49A7-AB52-DD1B03FD9B54";
rightMetricsKey = "=H-16";
paths = (
{
closed = 1;
nodes = (
"630 35 LINE",
"157 682 LINE",
"155 647 LINE",
"629 0 LINE"
);
},
{
closed = 1;
nodes = (
"155 0 LINE",
"155 647 LINE",
"157 682 LINE",
"137 682 LINE",
"137 0 LINE"
);
},
{
closed = 1;
nodes = (
"648 0 LINE",
"648 682 LINE",
"630 682 LINE",
"630 35 LINE",
"626 35 LINE",
"629 0 LINE"
);
}
);
width = 765;
},
{
anchors = (
{
name = bottom;
position = "{429, 0}";
},
{
name = top;
position = "{427, 682}";
}
);
hints = (
{
origin = "{1, 3}";
scale = "{-1.08, 1}";
type = Corner;
name = _corner.Serif;
},
{
origin = "{1, 4}";
scale = "{1.1, 1}";
type = Corner;
name = _corner.Serif;
options = 1;
},
{
origin = "{1, 0}";
scale = "{-1.2, 1}";
type = Corner;
name = _corner.Serif;
},
{
origin = "{2, 1}";
scale = "{1.08, 1}";
type = Corner;
name = _corner.Serif;
},
{
origin = "{2, 2}";
scale = "{-1.18, 1}";
type = Corner;
name = _corner.Serif;
options = 1;
}
);
layerId = "219068EA-2B9B-40DC-949E-B60449C01B8A";
rightMetricsKey = "=H-6";
paths = (
{
closed = 1;
nodes = (
"605 286 LINE",
"263 682 LINE",
"227 436 LINE",
"604 0 LINE"
);
},
{
closed = 1;
nodes = (
"227 0 LINE",
"227 436 LINE",
"263 682 LINE",
"109 682 LINE",
"109 0 LINE"
);
},
{
closed = 1;
nodes = (
"723 0 LINE",
"723 682 LINE",
"605 682 LINE",
"605 286 LINE",
"600 286 LINE",
"604 0 LINE"
);
}
);
width = 824;
},
{
anchors = (
{
name = bottom;
position = "{420, 0}";
},
{
name = top;
position = "{400, 682}";
}
);
hints = (
{
origin = "{1, 3}";
scale = "{-1.08, 0.98}";
type = Corner;
name = _corner.Serif;
},
{
origin = "{1, 4}";
scale = "{1.1, 1}";
type = Corner;
name = _corner.Serif;
options = 1;
},
{
origin = "{1, 0}";
scale = "{-1.2, 1}";
type = Corner;
name = _corner.Serif;
},
{
origin = "{2, 1}";
scale = "{1, 0.98}";
type = Corner;
name = _corner.Serif;
},
{
origin = "{2, 2}";
scale = "{-1.18, 0.98}";
type = Corner;
name = _corner.Serif;
options = 1;
}
);
layerId = "0C29AA02-E021-4BD1-A2C4-87F681D64C35";
rightMetricsKey = "=H-12";
paths = (
{
closed = 1;
nodes = (
"581 287 LINE",
"236 682 LINE",
"204 433 LINE",
"581 0 LINE"
);
},
{
closed = 1;
nodes = (
"204 0 LINE",
"204 433 LINE",
"236 682 LINE",
"104 682 LINE",
"104 0 LINE"
);
},
{
closed = 1;
nodes = (
"681 0 LINE",
"681 682 LINE",
"581 682 LINE",
"581 287 LINE",
"577 287 LINE",
"581 0 LINE"
);
}
);
width = 766;
},
{
anchors = (
{
name = bottom;
position = "{429, 0}";
},
{
name = top;
position = "{420, 682}";
}
);
hints = (
{
origin = "{1, 3}";
scale = "{-1.08, 1}";
type = Corner;
name = _corner.Serif;
},
{
origin = "{1, 4}";
scale = "{1.1, 1}";
type = Corner;
name = _corner.Serif;
options = 1;
},
{
origin = "{1, 0}";
scale = "{-1.2, 1}";
type = Corner;
name = _corner.Serif;
},
{
origin = "{2, 1}";
scale = "{1.08, 1}";
type = Corner;
name = _corner.Serif;
},
{
origin = "{2, 2}";
scale = "{-1.18, 1}";
type = Corner;
name = _corner.Serif;
options = 1;
}
);
layerId = "2B88661E-23DD-4EDA-82FC-C2AEA983F097";
paths = (
{
closed = 1;
nodes = (
"659 44 LINE",
"168 682 LINE",
"165 641 LINE",
"658 0 LINE"
);
},
{
closed = 1;
nodes = (
"165 0 LINE",
"165 641 LINE",
"168 682 LINE",
"140 682 LINE",
"140 0 LINE"
);
},
{
closed = 1;
nodes = (
"684 0 LINE",
"684 682 LINE",
"659 682 LINE",
"659 44 LINE",
"654 44 LINE",
"658 0 LINE"
);
}
);
width = 822;
}
);
leftKerningGroup = I;
leftMetricsKey = H;
rightKerningGroup = N;
rightMetricsKey = H;
unicode = 004E;
},
{
color = 8;
glyphname = Eng;
lastChange = "2021-07-06 17:30:32 +0000";
layers = (
{
hints = (
{
origin = "{2, 1}";
scale = "{1.08, 1}";
type = Corner;
name = _corner.Serif;
},
{
origin = "{2, 2}";
scale = "{-1.18, 1}";
type = Corner;
name = _corner.Serif;
options = 1;
},
{
origin = "{0, 0}";
scale = "{-1.2, 1}";
type = Corner;
name = _corner.Serif;
},
{
origin = "{0, 3}";
scale = "{-1.08, 1}";
type = Corner;
name = _corner.Serif;
},
{
origin = "{0, 4}";
scale = "{1.1, 1}";
type = Corner;
name = _corner.Serif;
options = 1;
}
);
layerId = "1E61A082-F045-49A7-AB52-DD1B03FD9B54";
paths = (
{
closed = 1;
nodes = (
"155 0 LINE",
"155 647 LINE",
"157 682 LINE",
"137 682 LINE",
"137 0 LINE"
);
},
{
closed = 1;
nodes = (
"630 35 LINE",
"157 682 LINE",
"155 647 LINE",
"638 -12 LINE"
);
},
{
closed = 1;
nodes = (
"648 -37 LINE",
"648 682 LINE",
"630 682 LINE",
"630 -38 LINE"
);
},
{
closed = 1;
nodes = (
"603 -206 OFFCURVE",
"648 -157 OFFCURVE",
"648 -37 CURVE",
"630 -38 LINE",
"630 -143 OFFCURVE",
"594 -190 OFFCURVE",
"521 -190 CURVE",
"521 -206 LINE"
);
},
{
closed = 1;
nodes = (
"438 -99 OFFCURVE",
"427 -117 OFFCURVE",
"427 -138 CURVE SMOOTH",
"427 -182 OFFCURVE",
"469 -206 OFFCURVE",
"521 -206 CURVE",
"521 -190 LINE",
"477 -190 OFFCURVE",
"450 -175 OFFCURVE",
"445 -144 CURVE",
"441 -155 LINE",
"469 -155 OFFCURVE",
"487 -144 OFFCURVE",
"487 -124 CURVE SMOOTH",
"487 -109 OFFCURVE",
"475 -99 OFFCURVE",
"460 -99 CURVE SMOOTH"
);
}
);
width = 765;
},
{
hints = (
{
origin = "{0, 3}";
scale = "{-1.08, 1}";
type = Corner;
name = _corner.Serif;
},
{
origin = "{0, 4}";
scale = "{1.1, 1}";
type = Corner;
name = _corner.Serif;
options = 1;
},
{
origin = "{0, 0}";
scale = "{-1.2, 1}";
type = Corner;
name = _corner.Serif;
},
{
origin = "{2, 1}";
scale = "{1.08, 1}";
type = Corner;
name = _corner.Serif;
},
{
origin = "{2, 2}";
scale = "{-1.18, 1}";
type = Corner;
name = _corner.Serif;
options = 1;
}
);
layerId = "219068EA-2B9B-40DC-949E-B60449C01B8A";
paths = (
{
closed = 1;
nodes = (
"227 0 LINE",
"227 436 LINE",
"263 682 LINE",
"109 682 LINE",
"109 0 LINE"
);
},
{
closed = 1;
nodes = (
"605 286 LINE",
"263 682 LINE",
"227 436 LINE",
"614 -12 LINE"
);
},
{
closed = 1;
nodes = (
"723 -7 LINE",
"723 682 LINE",
"605 682 LINE",
"605 -52 LINE"
);
},
{
closed = 1;
nodes = (
"650 -205 OFFCURVE",
"723 -145 OFFCURVE",
"723 -7 CURVE",
"605 -52 LINE",
"605 -107 OFFCURVE",
"577 -129 OFFCURVE",
"531 -129 CURVE",
"534 -205 LINE"
);
},
{
closed = 1;
nodes = (
"415 -45 OFFCURVE",
"381 -70 OFFCURVE",
"381 -111 CURVE SMOOTH",
"381 -165 OFFCURVE",
"444 -205 OFFCURVE",
"534 -205 CURVE",
"531 -129 LINE",
"511 -129 OFFCURVE",
"492 -123 OFFCURVE",
"480 -115 CURVE",
"474 -150 LINE",
"516 -150 OFFCURVE",
"550 -138 OFFCURVE",
"550 -96 CURVE SMOOTH",
"550 -61 OFFCURVE",
"515 -45 OFFCURVE",
"474 -45 CURVE SMOOTH"
);
}
);
width = 824;
},
{
hints = (
{
origin = "{0, 3}";
scale = "{-1.08, 0.98}";
type = Corner;
name = _corner.Serif;
},
{
origin = "{0, 4}";
scale = "{1.1, 1}";
type = Corner;
name = _corner.Serif;
options = 1;
},
{
origin = "{0, 0}";
scale = "{-1.2, 1}";
type = Corner;
name = _corner.Serif;
},
{
origin = "{2, 1}";
scale = "{1.08, 0.98}";
type = Corner;
name = _corner.Serif;
},
{
origin = "{2, 2}";
scale = "{-1.18, 0.98}";
type = Corner;
name = _corner.Serif;
options = 1;
}
);
layerId = "0C29AA02-E021-4BD1-A2C4-87F681D64C35";
paths = (
{
closed = 1;
nodes = (
"204 0 LINE",
"204 433 LINE",
"236 682 LINE",
"104 682 LINE",
"104 0 LINE"
);
},
{
closed = 1;
nodes = (
"581 287 LINE",
"236 682 LINE",
"204 433 LINE",
"595 -16 LINE"
);
},
{
closed = 1;
nodes = (
"681 -21 LINE",
"681 682 LINE",
"581 682 LINE",
"581 -52 LINE"
);
},
{
closed = 1;
nodes = (
"610 -205 OFFCURVE",
"681 -158 OFFCURVE",
"681 -21 CURVE",
"581 -52 LINE",
"581 -115 OFFCURVE",
"552 -139 OFFCURVE",
"503 -139 CURVE",
"514 -205 LINE"
);
},
{
closed = 1;
nodes = (
"401 -41 OFFCURVE",
"367 -66 OFFCURVE",
"367 -107 CURVE SMOOTH",
"367 -169 OFFCURVE",
"433 -205 OFFCURVE",
"514 -205 CURVE",
"503 -139 LINE",
"483 -139 OFFCURVE",
"469 -133 OFFCURVE",
"461 -123 CURVE",
"448 -153 LINE",
"489 -152 OFFCURVE",
"520 -135 OFFCURVE",
"520 -97 CURVE SMOOTH",
"520 -59 OFFCURVE",
"490 -41 OFFCURVE",
"448 -41 CURVE SMOOTH"
);
}
);
width = 772;
},
{
hints = (
{
origin = "{0, 0}";
scale = "{-1.2, 1}";
type = Corner;
name = _corner.Serif;
},
{
origin = "{0, 3}";
scale = "{-1.08, 1}";
type = Corner;
name = _corner.Serif;
},
{
origin = "{0, 4}";
scale = "{1.1, 1}";
type = Corner;
name = _corner.Serif;
options = 1;
},
{
origin = "{2, 1}";
scale = "{1.08, 1}";
type = Corner;
name = _corner.Serif;
},
{
origin = "{2, 2}";
scale = "{-1.18, 1}";
type = Corner;
name = _corner.Serif;
options = 1;
}
);
layerId = "2B88661E-23DD-4EDA-82FC-C2AEA983F097";
paths = (
{
closed = 1;
nodes = (
"165 0 LINE",
"165 641 LINE",
"168 682 LINE",
"140 682 LINE",
"140 0 LINE"
);
},
{
closed = 1;
nodes = (
"659 44 LINE",
"168 682 LINE",
"165 641 LINE",
"676 -23 LINE"
);
},
{
closed = 1;
nodes = (
"684 -52 LINE",
"684 682 LINE",
"659 682 LINE",
"659 -55 LINE"
);
},
{
closed = 1;
nodes = (
"640 -206 OFFCURVE",
"684 -157 OFFCURVE",
"684 -52 CURVE",
"659 -55 LINE",
"659 -145 OFFCURVE",
"622 -185 OFFCURVE",
"554 -185 CURVE",
"554 -206 LINE"
);
},
{
closed = 1;
nodes = (
"466 -104 OFFCURVE",
"454 -120 OFFCURVE",
"454 -140 CURVE SMOOTH",
"454 -181 OFFCURVE",
"497 -206 OFFCURVE",
"554 -206 CURVE",
"554 -185 LINE",
"511 -185 OFFCURVE",
"484 -172 OFFCURVE",
"477 -147 CURVE",
"471 -165 LINE",
"494 -165 OFFCURVE",
"516 -155 OFFCURVE",
"516 -131 CURVE SMOOTH",
"516 -115 OFFCURVE",
"504 -104 OFFCURVE",
"487 -104 CURVE SMOOTH"
);
}
);
width = 822;
}
);
leftKerningGroup = I;
leftMetricsKey = N;
rightKerningGroup = N;
rightMetricsKey = N;
unicode = 014A;
},
{
color = 8;
glyphname = O;
lastChange = "2021-08-16 10:15:18 +0000";
layers = (
{
anchors = (
{
name = bottom;
position = "{385, 0}";
},
{
name = ogonek;
position = "{525, 0}";
},
{
name = top;
position = "{385, 682}";
},
{
name = topleft;
position = "{4, 682}";
},
{
name = topright;
position = "{647, 573}";
}
);
layerId = "1E61A082-F045-49A7-AB52-DD1B03FD9B54";
paths = (
{
closed = 1;
nodes = (
"575 -12 OFFCURVE",
"715 118 OFFCURVE",
"715 341 CURVE SMOOTH",
"715 564 OFFCURVE",
"575 694 OFFCURVE",
"385 694 CURVE SMOOTH",
"194 694 OFFCURVE",
"54 564 OFFCURVE",
"54 341 CURVE SMOOTH",
"54 118 OFFCURVE",
"194 -12 OFFCURVE",
"385 -12 CURVE SMOOTH"
);
},
{
closed = 1;
nodes = (
"199 5 OFFCURVE",
"76 138 OFFCURVE",
"76 341 CURVE SMOOTH",
"76 544 OFFCURVE",
"199 677 OFFCURVE",
"385 677 CURVE SMOOTH",
"570 677 OFFCURVE",
"693 544 OFFCURVE",
"693 341 CURVE SMOOTH",
"693 138 OFFCURVE",
"570 5 OFFCURVE",
"385 5 CURVE SMOOTH"
);
}
);
width = 769;
},
{
anchors = (
{
name = bottom;
position = "{439, 0}";
},
{
name = ogonek;
position = "{604, 0}";
},
{
name = top;
position = "{439, 682}";
},
{
name = topleft;
position = "{15, 682}";
},
{
name = topright;
position = "{772, 577}";
}
);
layerId = "219068EA-2B9B-40DC-949E-B60449C01B8A";
paths = (
{
closed = 1;
nodes = (
"682 -16 OFFCURVE",
"840 113 OFFCURVE",
"840 341 CURVE SMOOTH",
"840 569 OFFCURVE",
"682 698 OFFCURVE",
"439 698 CURVE SMOOTH",
"196 698 OFFCURVE",
"38 569 OFFCURVE",
"38 341 CURVE SMOOTH",
"38 113 OFFCURVE",
"196 -16 OFFCURVE",
"439 -16 CURVE SMOOTH"
);
},
{
closed = 1;
nodes = (
"320 90 OFFCURVE",
"250 180 OFFCURVE",
"250 341 CURVE SMOOTH",
"250 502 OFFCURVE",
"320 592 OFFCURVE",
"439 592 CURVE SMOOTH",
"559 592 OFFCURVE",
"628 502 OFFCURVE",
"628 341 CURVE SMOOTH",
"628 180 OFFCURVE",
"559 90 OFFCURVE",
"439 90 CURVE SMOOTH"
);
}
);
width = 878;
},
{
anchors = (
{
name = bottom;
position = "{415, 0}";
},
{
name = ogonek;
position = "{573, 0}";
},
{
name = top;
position = "{415, 682}";
},
{
name = topleft;
position = "{14, 682}";
},
{
name = topright;
position = "{727, 577}";
}
);
layerId = "0C29AA02-E021-4BD1-A2C4-87F681D64C35";
paths = (
{
closed = 1;
nodes = (
"646 -15 OFFCURVE",
"796 116 OFFCURVE",
"796 341 CURVE SMOOTH",
"796 565 OFFCURVE",
"646 696 OFFCURVE",
"415 696 CURVE SMOOTH",
"184 696 OFFCURVE",
"34 565 OFFCURVE",
"34 341 CURVE SMOOTH",
"34 116 OFFCURVE",
"184 -15 OFFCURVE",
"415 -15 CURVE SMOOTH"
);
},
{
closed = 1;
nodes = (
"308 77 OFFCURVE",
"246 170 OFFCURVE",
"246 341 CURVE SMOOTH",
"246 512 OFFCURVE",
"308 606 OFFCURVE",
"415 606 CURVE SMOOTH",
"523 606 OFFCURVE",
"584 512 OFFCURVE",
"584 341 CURVE SMOOTH",
"584 170 OFFCURVE",
"523 77 OFFCURVE",
"415 77 CURVE SMOOTH"
);
}
);
width = 830;
},
{
anchors = (
{
name = bottom;
position = "{413, 0}";
},
{
name = ogonek;
position = "{560, 0}";
},
{
name = top;
position = "{413, 682}";
},
{
name = topleft;
position = "{9, 682}";
},
{
name = topright;
position = "{697, 579}";
}
);
layerId = "2B88661E-23DD-4EDA-82FC-C2AEA983F097";
paths = (
{
closed = 1;
nodes = (
"616 -15 OFFCURVE",
"764 114 OFFCURVE",
"764 341 CURVE SMOOTH",
"764 568 OFFCURVE",
"616 697 OFFCURVE",
"413 697 CURVE SMOOTH",
"210 697 OFFCURVE",
"62 568 OFFCURVE",
"62 341 CURVE SMOOTH",
"62 114 OFFCURVE",
"210 -15 OFFCURVE",
"413 -15 CURVE SMOOTH"
);
},
{
closed = 1;
nodes = (
"219 8 OFFCURVE",
"90 134 OFFCURVE",
"90 341 CURVE SMOOTH",
"90 548 OFFCURVE",
"219 674 OFFCURVE",
"413 674 CURVE SMOOTH",
"606 674 OFFCURVE",
"736 548 OFFCURVE",
"736 341 CURVE SMOOTH",
"736 134 OFFCURVE",
"606 8 OFFCURVE",
"413 8 CURVE SMOOTH"
);
}
);
width = 826;
}
);
leftKerningGroup = O;
rightKerningGroup = O;
unicode = 004F;
},
{
color = 8;
glyphname = OE;
lastChange = "2021-07-06 17:30:32 +0000";
layers = (
{
layerId = "1E61A082-F045-49A7-AB52-DD1B03FD9B54";
paths = (
{
closed = 1;
nodes = (
"528 0 LINE",
"528 17 LINE",
"402 17 LINE SMOOTH",
"205 17 OFFCURVE",
"76 143 OFFCURVE",
"76 341 CURVE SMOOTH",
"76 539 OFFCURVE",
"205 665 OFFCURVE",
"402 665 CURVE SMOOTH",
"528 665 LINE",
"528 682 LINE",
"402 682 LINE SMOOTH",
"192 682 OFFCURVE",
"54 557 OFFCURVE",
"54 341 CURVE SMOOTH",
"54 125 OFFCURVE",
"192 0 OFFCURVE",
"402 0 CURVE SMOOTH"
);
},
{
closed = 1;
nodes = (
"550 0 LINE",
"550 682 LINE",
"528 682 LINE",
"528 0 LINE"
);
},
{
closed = 1;
nodes = (
"979 0 LINE",
"979 17 LINE",
"550 17 LINE",
"550 0 LINE"
);
},
{
closed = 1;
nodes = (
"795 140 LINE",
"795 351 LINE",
"725 351 LINE",
"767 351 OFFCURVE",
"778 340 OFFCURVE",
"778 295 CURVE SMOOTH",
"778 140 LINE"
);
},
{
closed = 1;
nodes = (
"795 351 LINE",
"795 368 LINE",
"550 368 LINE",
"550 351 LINE"
);
},
{
closed = 1;
nodes = (
"979 17 LINE",
"979 264 LINE",
"961 264 LINE",
"961 76 LINE SMOOTH",
"961 29 OFFCURVE",
"949 17 OFFCURVE",
"904 17 CURVE"
);
},
{
closed = 1;
nodes = (
"795 368 LINE",
"795 546 LINE",
"778 546 LINE",
"778 424 LINE SMOOTH",
"778 379 OFFCURVE",
"767 368 OFFCURVE",
"725 368 CURVE"
);
},
{
closed = 1;
nodes = (
"971 665 LINE",
"971 682 LINE",
"550 682 LINE",
"550 665 LINE"
);
},
{
closed = 1;
nodes = (
"971 427 LINE",
"971 665 LINE",
"895 665 LINE",
"941 665 OFFCURVE",
"953 653 OFFCURVE",
"953 605 CURVE SMOOTH",
"953 427 LINE"
);
}
);
width = 1048;
},
{
layerId = "219068EA-2B9B-40DC-949E-B60449C01B8A";
paths = (
{
closed = 1;
nodes = (
"507 0 LINE",
"507 102 LINE",
"466 102 LINE SMOOTH",
"335 102 OFFCURVE",
"248 194 OFFCURVE",
"248 341 CURVE SMOOTH",
"248 488 OFFCURVE",
"335 582 OFFCURVE",
"466 582 CURVE SMOOTH",
"507 582 LINE",
"507 682 LINE",
"438 682 LINE SMOOTH",
"198 682 OFFCURVE",
"38 559 OFFCURVE",
"38 341 CURVE SMOOTH",
"38 123 OFFCURVE",
"198 0 OFFCURVE",
"438 0 CURVE SMOOTH"
);
},
{
closed = 1;
nodes = (
"693 0 LINE",
"693 682 LINE",
"507 682 LINE",
"507 0 LINE"
);
},
{
closed = 1;
nodes = (
"1067 0 LINE",
"1067 102 LINE",
"693 102 LINE",
"693 0 LINE"
);
},
{
closed = 1;
nodes = (
"877 165 LINE",
"877 301 LINE",
"697 301 LINE",
"750 301 OFFCURVE",
"775 269 OFFCURVE",
"775 196 CURVE SMOOTH",
"775 165 LINE"
);
},
{
closed = 1;
nodes = (
"877 301 LINE",
"877 401 LINE",
"693 401 LINE",
"693 301 LINE"
);
},
{
closed = 1;
nodes = (
"1067 102 LINE",
"1067 255 LINE",
"961 255 LINE",
"961 211 LINE SMOOTH",
"961 134 OFFCURVE",
"934 102 OFFCURVE",
"861 102 CURVE"
);
},
{
closed = 1;
nodes = (
"877 401 LINE",
"877 516 LINE",
"775 516 LINE",
"775 505 LINE SMOOTH",
"775 433 OFFCURVE",
"750 401 OFFCURVE",
"697 401 CURVE"
);
},
{
closed = 1;
nodes = (
"1059 582 LINE",
"1059 682 LINE",
"693 682 LINE",
"693 582 LINE"
);
},
{
closed = 1;
nodes = (
"1059 436 LINE",
"1059 582 LINE",
"853 582 LINE",
"926 582 OFFCURVE",
"953 550 OFFCURVE",
"953 473 CURVE SMOOTH",
"953 436 LINE"
);
}
);
width = 1133;
},
{
layerId = "0C29AA02-E021-4BD1-A2C4-87F681D64C35";
paths = (
{
closed = 1;
nodes = (
"471 0 LINE",
"471 94 LINE",
"420 94 LINE SMOOTH",
"311 94 OFFCURVE",
"240 189 OFFCURVE",
"240 341 CURVE SMOOTH",
"240 493 OFFCURVE",
"311 588 OFFCURVE",
"420 588 CURVE SMOOTH",
"471 588 LINE",
"471 682 LINE",
"391 682 LINE SMOOTH",
"174 682 OFFCURVE",
"34 559 OFFCURVE",
"34 341 CURVE SMOOTH",
"34 123 OFFCURVE",
"174 0 OFFCURVE",
"391 0 CURVE SMOOTH"
);
},
{
closed = 1;
nodes = (
"657 0 LINE",
"657 682 LINE",
"471 682 LINE",
"471 0 LINE"
);
},
{
closed = 1;
nodes = (
"998 0 LINE",
"998 94 LINE",
"657 94 LINE",
"657 0 LINE"
);
},
{
closed = 1;
nodes = (
"838 148 LINE",
"838 305 LINE",
"660 305 LINE",
"725 305 OFFCURVE",
"751 273 OFFCURVE",
"751 200 CURVE SMOOTH",
"751 148 LINE"
);
},
{
closed = 1;
nodes = (
"838 305 LINE",
"838 397 LINE",
"657 397 LINE",
"657 305 LINE"
);
},
{
closed = 1;
nodes = (
"998 94 LINE",
"998 264 LINE",
"908 264 LINE",
"908 203 LINE SMOOTH",
"908 125 OFFCURVE",
"881 94 OFFCURVE",
"808 94 CURVE"
);
},
{
closed = 1;
nodes = (
"838 397 LINE",
"838 534 LINE",
"751 534 LINE",
"751 502 LINE SMOOTH",
"751 429 OFFCURVE",
"725 397 OFFCURVE",
"660 397 CURVE"
);
},
{
closed = 1;
nodes = (
"992 588 LINE",
"992 682 LINE",
"657 682 LINE",
"657 588 LINE"
);
},
{
closed = 1;
nodes = (
"992 427 LINE",
"992 588 LINE",
"802 588 LINE",
"875 588 OFFCURVE",
"902 556 OFFCURVE",
"902 479 CURVE SMOOTH",
"902 427 LINE"
);
}
);
width = 1055;
},
{
layerId = "2B88661E-23DD-4EDA-82FC-C2AEA983F097";
paths = (
{
closed = 1;
nodes = (
"557 0 LINE",
"557 23 LINE",
"421 23 LINE SMOOTH",
"221 23 OFFCURVE",
"90 147 OFFCURVE",
"90 341 CURVE SMOOTH",
"90 535 OFFCURVE",
"221 659 OFFCURVE",
"421 659 CURVE SMOOTH",
"557 659 LINE",
"557 682 LINE",
"420 682 LINE SMOOTH",
"204 682 OFFCURVE",
"62 557 OFFCURVE",
"62 341 CURVE SMOOTH",
"62 125 OFFCURVE",
"204 0 OFFCURVE",
"420 0 CURVE SMOOTH"
);
},
{
closed = 1;
nodes = (
"585 0 LINE",
"585 682 LINE",
"557 682 LINE",
"557 0 LINE"
);
},
{
closed = 1;
nodes = (
"1039 0 LINE",
"1039 23 LINE",
"585 23 LINE",
"585 0 LINE"
);
},
{
closed = 1;
nodes = (
"829 165 LINE",
"829 348 LINE",
"752 348 LINE",
"796 348 OFFCURVE",
"807 337 OFFCURVE",
"807 291 CURVE SMOOTH",
"807 165 LINE"
);
},
{
closed = 1;
nodes = (
"829 348 LINE",
"829 371 LINE",
"585 371 LINE",
"585 348 LINE"
);
},
{
closed = 1;
nodes = (
"1039 23 LINE",
"1039 237 LINE",
"1016 237 LINE",
"1016 84 LINE SMOOTH",
"1016 35 OFFCURVE",
"1004 23 OFFCURVE",
"957 23 CURVE"
);
},
{
closed = 1;
nodes = (
"829 371 LINE",
"829 521 LINE",
"807 521 LINE",
"807 428 LINE SMOOTH",
"807 383 OFFCURVE",
"796 371 OFFCURVE",
"752 371 CURVE"
);
},
{
closed = 1;
nodes = (
"1031 659 LINE",
"1031 682 LINE",
"585 682 LINE",
"585 659 LINE"
);
},
{
closed = 1;
nodes = (
"1031 454 LINE",
"1031 659 LINE",
"948 659 LINE",
"994 659 OFFCURVE",
"1007 646 OFFCURVE",
"1007 598 CURVE SMOOTH",
"1007 454 LINE"
);
}
);
width = 1111;
}
);
leftKerningGroup = O;
leftMetricsKey = O;
rightKerningGroup = E;
rightMetricsKey = E;
unicode = 0152;
},
{
color = 8;
glyphname = P;
lastChange = "2021-07-06 17:30:32 +0000";
layers = (
{
anchors = (
{
name = bottom;
position = "{327, 0}";
},
{
name = top;
position = "{327, 682}";
}
);
hints = (
{
origin = "{0, 3}";
scale = "{1.1, 1}";
type = Corner;
name = _corner.Serif;
options = 1;
},
{
origin = "{0, 0}";
scale = "{-1.9, 1}";
type = Corner;
name = _corner.Serif;
},
{
origin = "{0, 2}";
scale = "{-1.08, 1}";
type = Corner;
name = _corner.Serif;
}
);
layerId = "1E61A082-F045-49A7-AB52-DD1B03FD9B54";
paths = (
{
closed = 1;
nodes = (
"159 0 LINE",
"159 682 LINE",
"137 682 LINE",
"137 0 LINE"
);
},
{
closed = 1;
nodes = (
"394 310 LINE SMOOTH",
"522 310 OFFCURVE",
"608 373 OFFCURVE",
"608 496 CURVE SMOOTH",
"608 619 OFFCURVE",
"522 682 OFFCURVE",
"394 682 CURVE SMOOTH",
"159 682 LINE",
"159 665 LINE",
"389 665 LINE SMOOTH",
"510 665 OFFCURVE",
"586 608 OFFCURVE",
"586 496 CURVE SMOOTH",
"586 384 OFFCURVE",
"510 327 OFFCURVE",
"389 327 CURVE SMOOTH",
"159 327 LINE",
"159 310 LINE"
);
}
);
width = 652;
},
{
anchors = (
{
name = bottom;
position = "{371, 0}";
},
{
name = top;
position = "{371, 682}";
}
);
hints = (
{
origin = "{0, 3}";
scale = "{1.1, 1}";
type = Corner;
name = _corner.Serif;
options = 1;
},
{
origin = "{0, 0}";
scale = "{-1.8, 1}";
type = Corner;
name = _corner.Serif;
},
{
origin = "{0, 2}";
scale = "{-1.08, 1}";
type = Corner;
name = _corner.Serif;
}
);
layerId = "219068EA-2B9B-40DC-949E-B60449C01B8A";
paths = (
{
closed = 1;
nodes = (
"299 0 LINE",
"299 682 LINE",
"109 682 LINE",
"109 0 LINE"
);
},
{
closed = 1;
nodes = (
"472 272 LINE SMOOTH",
"624 272 OFFCURVE",
"724 340 OFFCURVE",
"724 477 CURVE SMOOTH",
"724 613 OFFCURVE",
"624 682 OFFCURVE",
"472 682 CURVE SMOOTH",
"299 682 LINE",
"299 582 LINE",
"412 582 LINE SMOOTH",
"487 582 OFFCURVE",
"532 548 OFFCURVE",
"532 477 CURVE SMOOTH",
"532 405 OFFCURVE",
"487 372 OFFCURVE",
"412 372 CURVE SMOOTH",
"299 372 LINE",
"299 272 LINE"
);
}
);
width = 755;
},
{
anchors = (
{
name = bottom;
position = "{343, 0}";
},
{
name = top;
position = "{343, 682}";
}
);
hints = (
{
origin = "{0, 3}";
scale = "{1.1, 1}";
type = Corner;
name = _corner.Serif;
options = 1;
},
{
origin = "{0, 0}";
scale = "{-2.2, 1}";
type = Corner;
name = _corner.Serif;
},
{
origin = "{0, 2}";
scale = "{-1.08, 0.98}";
type = Corner;
name = _corner.Serif;
}
);
layerId = "0C29AA02-E021-4BD1-A2C4-87F681D64C35";
paths = (
{
closed = 1;
nodes = (
"294 0 LINE",
"294 682 LINE",
"104 682 LINE",
"104 0 LINE"
);
},
{
closed = 1;
nodes = (
"452 290 LINE SMOOTH",
"598 290 OFFCURVE",
"694 356 OFFCURVE",
"694 486 CURVE SMOOTH",
"694 616 OFFCURVE",
"598 682 OFFCURVE",
"452 682 CURVE SMOOTH",
"294 682 LINE",
"294 592 LINE",
"385 592 LINE SMOOTH",
"457 592 OFFCURVE",
"502 557 OFFCURVE",
"502 486 CURVE SMOOTH",
"502 415 OFFCURVE",
"457 380 OFFCURVE",
"385 380 CURVE SMOOTH",
"294 380 LINE",
"294 290 LINE"
);
}
);
width = 711;
},
{
anchors = (
{
name = bottom;
position = "{340, 0}";
},
{
name = top;
position = "{340, 682}";
}
);
hints = (
{
origin = "{0, 3}";
scale = "{1.1, 1}";
type = Corner;
name = _corner.Serif;
options = 1;
},
{
origin = "{0, 0}";
scale = "{-1.607, 1}";
type = Corner;
name = _corner.Serif;
},
{
origin = "{0, 2}";
scale = "{-1.08, 1}";
type = Corner;
name = _corner.Serif;
}
);
layerId = "2B88661E-23DD-4EDA-82FC-C2AEA983F097";
paths = (
{
closed = 1;
nodes = (
"168 0 LINE",
"168 682 LINE",
"140 682 LINE",
"140 0 LINE"
);
},
{
closed = 1;
nodes = (
"416 300 LINE SMOOTH",
"550 300 OFFCURVE",
"640 364 OFFCURVE",
"640 491 CURVE SMOOTH",
"640 618 OFFCURVE",
"550 682 OFFCURVE",
"416 682 CURVE SMOOTH",
"168 682 LINE",
"168 659 LINE",
"409 659 LINE SMOOTH",
"533 659 OFFCURVE",
"612 603 OFFCURVE",
"612 491 CURVE SMOOTH",
"612 379 OFFCURVE",
"533 323 OFFCURVE",
"409 323 CURVE SMOOTH",
"168 323 LINE",
"168 300 LINE"
);
}
);
width = 691;
}
);
leftKerningGroup = I;
leftMetricsKey = H;
rightKerningGroup = P;
unicode = 0050;
},
{
color = 8;
glyphname = Thorn;
lastChange = "2021-07-06 17:30:32 +0000";
layers = (
{
hints = (
{
origin = "{0, 2}";
scale = "{-1.18, 1}";
type = Corner;
name = _corner.Serif;
},
{
origin = "{0, 3}";
scale = "{1.2, 1}";
type = Corner;
name = _corner.Serif;
options = 1;
},
{
origin = "{0, 0}";
scale = "{-1.2, 1}";
type = Corner;
name = _corner.Serif;
},
{
origin = "{0, 1}";
scale = "{1.18, 1}";
type = Corner;
name = _corner.Serif;
}
);
layerId = "1E61A082-F045-49A7-AB52-DD1B03FD9B54";
paths = (
{
closed = 1;
nodes = (
"166 0 LINE",
"166 682 LINE",
"144 682 LINE",
"144 0 LINE"
);
},
{
closed = 1;
nodes = (
"401 165 LINE SMOOTH",
"529 165 OFFCURVE",
"615 228 OFFCURVE",
"615 351 CURVE SMOOTH",
"615 474 OFFCURVE",
"529 537 OFFCURVE",
"401 537 CURVE SMOOTH",
"166 537 LINE",
"166 520 LINE",
"396 520 LINE SMOOTH",
"517 520 OFFCURVE",
"593 463 OFFCURVE",
"593 351 CURVE SMOOTH",
"593 239 OFFCURVE",
"517 182 OFFCURVE",
"396 182 CURVE SMOOTH",
"166 182 LINE",
"166 165 LINE"
);
}
);
width = 659;
},
{
hints = (
{
origin = "{0, 2}";
scale = "{-1.18, 1}";
type = Corner;
name = _corner.Serif;
},
{
origin = "{0, 3}";
scale = "{1.2, 1}";
type = Corner;
name = _corner.Serif;
options = 1;
},
{
origin = "{0, 0}";
scale = "{-1.2, 1}";
type = Corner;
name = _corner.Serif;
},
{
origin = "{0, 1}";
scale = "{1.18, 1}";
type = Corner;
name = _corner.Serif;
}
);
layerId = "219068EA-2B9B-40DC-949E-B60449C01B8A";
paths = (
{
closed = 1;
nodes = (
"299 0 LINE",
"299 682 LINE",
"109 682 LINE",
"109 0 LINE"
);
},
{
closed = 1;
nodes = (
"473 164 LINE SMOOTH",
"613 164 OFFCURVE",
"706 226 OFFCURVE",
"706 349 CURVE SMOOTH",
"706 473 OFFCURVE",
"613 534 OFFCURVE",
"473 534 CURVE SMOOTH",
"299 534 LINE",
"299 434 LINE",
"415 434 LINE SMOOTH",
"477 434 OFFCURVE",
"514 407 OFFCURVE",
"514 349 CURVE SMOOTH",
"514 292 OFFCURVE",
"477 264 OFFCURVE",
"415 264 CURVE SMOOTH",
"299 264 LINE",
"299 164 LINE"
);
}
);
width = 737;
},
{
hints = (
{
origin = "{0, 2}";
scale = "{-1.18, 0.98}";
type = Corner;
name = _corner.Serif;
},
{
origin = "{0, 3}";
scale = "{1.2, 1}";
type = Corner;
name = _corner.Serif;
options = 1;
},
{
origin = "{0, 0}";
scale = "{-1.2, 1}";
type = Corner;
name = _corner.Serif;
},
{
origin = "{0, 1}";
scale = "{1.18, 0.98}";
type = Corner;
name = _corner.Serif;
}
);
layerId = "0C29AA02-E021-4BD1-A2C4-87F681D64C35";
rightMetricsKey = "=P-26";
paths = (
{
closed = 1;
nodes = (
"303 0 LINE",
"303 682 LINE",
"112 682 LINE",
"112 0 LINE"
);
},
{
closed = 1;
nodes = (
"437 163 LINE SMOOTH",
"575 163 OFFCURVE",
"666 224 OFFCURVE",
"666 345 CURVE SMOOTH",
"666 466 OFFCURVE",
"575 527 OFFCURVE",
"437 527 CURVE SMOOTH",
"303 527 LINE",
"303 437 LINE",
"372 437 LINE SMOOTH",
"435 437 OFFCURVE",
"474 407 OFFCURVE",
"474 345 CURVE SMOOTH",
"474 283 OFFCURVE",
"435 253 OFFCURVE",
"372 253 CURVE SMOOTH",
"303 253 LINE",
"303 163 LINE"
);
}
);
width = 657;
},
{
hints = (
{
origin = "{0, 2}";
scale = "{-1.18, 1}";
type = Corner;
name = _corner.Serif;
},
{
origin = "{0, 3}";
scale = "{1.2, 1}";
type = Corner;
name = _corner.Serif;
options = 1;
},
{
origin = "{0, 0}";
scale = "{-1.2, 1}";
type = Corner;
name = _corner.Serif;
},
{
origin = "{0, 1}";
scale = "{1.18, 1}";
type = Corner;
name = _corner.Serif;
}
);
layerId = "2B88661E-23DD-4EDA-82FC-C2AEA983F097";
paths = (
{
closed = 1;
nodes = (
"176 0 LINE",
"176 682 LINE",
"148 682 LINE",
"148 0 LINE"
);
},
{
closed = 1;
nodes = (
"424 161 LINE SMOOTH",
"558 161 OFFCURVE",
"648 225 OFFCURVE",
"648 352 CURVE SMOOTH",
"648 479 OFFCURVE",
"558 543 OFFCURVE",
"424 543 CURVE SMOOTH",
"176 543 LINE",
"176 520 LINE",
"417 520 LINE SMOOTH",
"541 520 OFFCURVE",
"620 464 OFFCURVE",
"620 352 CURVE SMOOTH",
"620 240 OFFCURVE",
"541 184 OFFCURVE",
"417 184 CURVE SMOOTH",
"176 184 LINE",
"176 161 LINE"
);
}
);
width = 699;
}
);
leftKerningGroup = I;
leftMetricsKey = I;
rightMetricsKey = P;
unicode = 00DE;
},
{
color = 8;
glyphname = Q;
lastChange = "2021-07-14 22:06:56 +0000";
layers = (
{
anchors = (
{
name = bottom;
position = "{385, 0}";
},
{
name = top;
position = "{385, 682}";
}
);
layerId = "1E61A082-F045-49A7-AB52-DD1B03FD9B54";
paths = (
{
closed = 1;
nodes = (
"575 -13 OFFCURVE",
"715 117 OFFCURVE",
"715 341 CURVE SMOOTH",
"715 565 OFFCURVE",
"575 695 OFFCURVE",
"385 695 CURVE SMOOTH",
"194 695 OFFCURVE",
"54 565 OFFCURVE",
"54 341 CURVE SMOOTH",
"54 117 OFFCURVE",
"194 -13 OFFCURVE",
"385 -13 CURVE SMOOTH"
);
},
{
closed = 1;
nodes = (
"199 4 OFFCURVE",
"76 137 OFFCURVE",
"76 341 CURVE SMOOTH",
"76 545 OFFCURVE",
"199 678 OFFCURVE",
"385 678 CURVE SMOOTH",
"570 678 OFFCURVE",
"693 545 OFFCURVE",
"693 341 CURVE SMOOTH",
"693 137 OFFCURVE",
"570 4 OFFCURVE",
"385 4 CURVE SMOOTH"
);
},
{
closed = 1;
nodes = (
"340 0 LINE",
"340 89 LINE SMOOTH",
"340 145 OFFCURVE",
"365 174 OFFCURVE",
"408 174 CURVE SMOOTH",
"451 174 OFFCURVE",
"475 145 OFFCURVE",
"475 89 CURVE SMOOTH",
"475 0 LINE",
"495 0 LINE",
"495 89 LINE SMOOTH",
"495 157 OFFCURVE",
"461 191 OFFCURVE",
"410 191 CURVE SMOOTH",
"359 191 OFFCURVE",
"322 157 OFFCURVE",
"322 89 CURVE SMOOTH",
"322 0 LINE"
);
},
{
closed = 1;
nodes = (
"616 -155 OFFCURVE",
"651 -120 OFFCURVE",
"651 -53 CURVE SMOOTH",
"651 0 LINE",
"633 0 LINE",
"633 -53 LINE SMOOTH",
"633 -109 OFFCURVE",
"608 -137 OFFCURVE",
"564 -137 CURVE SMOOTH",
"520 -137 OFFCURVE",
"495 -109 OFFCURVE",
"495 -53 CURVE SMOOTH",
"495 0 LINE",
"475 0 LINE",
"475 -53 LINE SMOOTH",
"475 -120 OFFCURVE",
"513 -155 OFFCURVE",
"565 -155 CURVE SMOOTH"
);
}
);
width = 769;
},
{
anchors = (
{
name = bottom;
position = "{440, 0}";
},
{
name = top;
position = "{440, 682}";
}
);
layerId = "219068EA-2B9B-40DC-949E-B60449C01B8A";
paths = (
{
closed = 1;
nodes = (
"683 -16 OFFCURVE",
"842 113 OFFCURVE",
"842 341 CURVE SMOOTH",
"842 569 OFFCURVE",
"683 698 OFFCURVE",
"440 698 CURVE SMOOTH",
"197 698 OFFCURVE",
"38 569 OFFCURVE",
"38 341 CURVE SMOOTH",
"38 113 OFFCURVE",
"197 -16 OFFCURVE",
"440 -16 CURVE SMOOTH"
);
},
{
closed = 1;
nodes = (
"319 86 OFFCURVE",
"246 177 OFFCURVE",
"246 341 CURVE SMOOTH",
"246 503 OFFCURVE",
"319 594 OFFCURVE",
"440 594 CURVE SMOOTH",
"561 594 OFFCURVE",
"634 503 OFFCURVE",
"634 341 CURVE SMOOTH",
"634 177 OFFCURVE",
"561 86 OFFCURVE",
"440 86 CURVE SMOOTH"
);
},
{
closed = 1;
nodes = (
"401 30 LINE",
"401 190 LINE SMOOTH",
"401 205 OFFCURVE",
"408 214 OFFCURVE",
"421 214 CURVE SMOOTH",
"434 214 OFFCURVE",
"441 205 OFFCURVE",
"441 190 CURVE SMOOTH",
"441 0 LINE",
"559 0 LINE",
"559 175 LINE SMOOTH",
"559 263 OFFCURVE",
"516 308 OFFCURVE",
"436 308 CURVE SMOOTH",
"360 308 OFFCURVE",
"311 263 OFFCURVE",
"311 175 CURVE SMOOTH",
"311 30 LINE"
);
},
{
closed = 1;
nodes = (
"636 -173 OFFCURVE",
"683 -130 OFFCURVE",
"683 -45 CURVE SMOOTH",
"683 -18 LINE",
"599 -18 LINE",
"599 -60 LINE SMOOTH",
"599 -75 OFFCURVE",
"592 -84 OFFCURVE",
"579 -84 CURVE SMOOTH",
"565 -84 OFFCURVE",
"559 -75 OFFCURVE",
"559 -60 CURVE SMOOTH",
"559 0 LINE",
"441 0 LINE",
"441 -45 LINE SMOOTH",
"441 -130 OFFCURVE",
"487 -173 OFFCURVE",
"562 -173 CURVE SMOOTH"
);
}
);
width = 880;
},
{
anchors = (
{
name = bottom;
position = "{416, 0}";
},
{
name = top;
position = "{416, 682}";
}
);
layerId = "0C29AA02-E021-4BD1-A2C4-87F681D64C35";
paths = (
{
closed = 1;
nodes = (
"647 -15 OFFCURVE",
"799 116 OFFCURVE",
"799 341 CURVE SMOOTH",
"799 565 OFFCURVE",
"647 696 OFFCURVE",
"416 696 CURVE SMOOTH",
"185 696 OFFCURVE",
"34 565 OFFCURVE",
"34 341 CURVE SMOOTH",
"34 116 OFFCURVE",
"185 -15 OFFCURVE",
"416 -15 CURVE SMOOTH"
);
},
{
closed = 1;
nodes = (
"299 71 OFFCURVE",
"236 169 OFFCURVE",
"236 340 CURVE SMOOTH",
"236 511 OFFCURVE",
"299 608 OFFCURVE",
"416 608 CURVE SMOOTH",
"534 608 OFFCURVE",
"596 511 OFFCURVE",
"596 340 CURVE SMOOTH",
"596 160 OFFCURVE",
"534 71 OFFCURVE",
"416 71 CURVE SMOOTH"
);
},
{
closed = 1;
nodes = (
"375 30 LINE",
"375 190 LINE SMOOTH",
"375 205 OFFCURVE",
"384 214 OFFCURVE",
"397 214 CURVE SMOOTH",
"411 214 OFFCURVE",
"419 205 OFFCURVE",
"419 190 CURVE SMOOTH",
"419 0 LINE",
"543 0 LINE",
"543 175 LINE SMOOTH",
"543 263 OFFCURVE",
"494 308 OFFCURVE",
"418 308 CURVE SMOOTH",
"342 308 OFFCURVE",
"295 263 OFFCURVE",
"295 175 CURVE SMOOTH",
"295 30 LINE"
);
},
{
closed = 1;
nodes = (
"614 -173 OFFCURVE",
"658 -130 OFFCURVE",
"658 -45 CURVE SMOOTH",
"658 -17 LINE",
"584 -17 LINE",
"584 -60 LINE SMOOTH",
"584 -75 OFFCURVE",
"576 -84 OFFCURVE",
"563 -84 CURVE SMOOTH",
"549 -84 OFFCURVE",
"543 -75 OFFCURVE",
"543 -60 CURVE SMOOTH",
"543 0 LINE",
"419 0 LINE",
"419 -45 LINE SMOOTH",
"419 -130 OFFCURVE",
"465 -173 OFFCURVE",
"540 -173 CURVE SMOOTH"
);
}
);
width = 833;
},
{
anchors = (
{
name = bottom;
position = "{413, 0}";
},
{
name = top;
position = "{413, 682}";
}
);
layerId = "2B88661E-23DD-4EDA-82FC-C2AEA983F097";
paths = (
{
closed = 1;
nodes = (
"616 -15 OFFCURVE",
"764 114 OFFCURVE",
"764 341 CURVE SMOOTH",
"764 568 OFFCURVE",
"616 697 OFFCURVE",
"413 697 CURVE SMOOTH",
"210 697 OFFCURVE",
"62 568 OFFCURVE",
"62 341 CURVE SMOOTH",
"62 114 OFFCURVE",
"210 -15 OFFCURVE",
"413 -15 CURVE SMOOTH"
);
},
{
closed = 1;
nodes = (
"219 8 OFFCURVE",
"90 134 OFFCURVE",
"90 341 CURVE SMOOTH",
"90 548 OFFCURVE",
"219 674 OFFCURVE",
"413 674 CURVE SMOOTH",
"606 674 OFFCURVE",
"736 548 OFFCURVE",
"736 341 CURVE SMOOTH",
"736 134 OFFCURVE",
"606 8 OFFCURVE",
"413 8 CURVE SMOOTH"
);
},
{
closed = 1;
nodes = (
"373 1 LINE",
"373 117 LINE SMOOTH",
"373 170 OFFCURVE",
"395 198 OFFCURVE",
"436 198 CURVE SMOOTH",
"477 198 OFFCURVE",
"500 170 OFFCURVE",
"500 117 CURVE SMOOTH",
"500 0 LINE",
"525 0 LINE",
"525 117 LINE SMOOTH",
"525 185 OFFCURVE",
"491 220 OFFCURVE",
"437 220 CURVE SMOOTH",
"384 220 OFFCURVE",
"349 185 OFFCURVE",
"349 117 CURVE SMOOTH",
"349 1 LINE"
);
},
{
closed = 1;
nodes = (
"645 -192 OFFCURVE",
"679 -158 OFFCURVE",
"679 -89 CURVE SMOOTH",
"679 -37 LINE",
"655 -37 LINE",
"655 -90 LINE SMOOTH",
"655 -143 OFFCURVE",
"631 -170 OFFCURVE",
"590 -170 CURVE SMOOTH",
"548 -170 OFFCURVE",
"525 -143 OFFCURVE",
"525 -90 CURVE SMOOTH",
"525 0 LINE",
"500 0 LINE",
"500 -89 LINE SMOOTH",
"500 -158 OFFCURVE",
"537 -192 OFFCURVE",
"591 -192 CURVE SMOOTH"
);
}
);
width = 826;
}
);
leftKerningGroup = O;
leftMetricsKey = O;
rightKerningGroup = O;
rightMetricsKey = O;
unicode = 0051;
},
{
color = 8;
glyphname = R;
lastChange = "2021-08-11 15:11:40 +0000";
layers = (
{
anchors = (
{
name = bottom;
position = "{366, 0}";
},
{
name = top;
position = "{348, 682}";
}
);
hints = (
{
origin = "{0, 3}";
scale = "{1.1, 1}";
type = Corner;
name = _corner.Serif;
options = 1;
},
{
origin = "{0, 0}";
scale = "{-1.4, 1}";
type = Corner;
name = _corner.Serif;
},
{
origin = "{0, 2}";
scale = "{-1.08, 1}";
type = Corner;
name = _corner.Serif;
}
);
layerId = "1E61A082-F045-49A7-AB52-DD1B03FD9B54";
paths = (
{
closed = 1;
nodes = (
"159 0 LINE",
"159 682 LINE",
"137 682 LINE",
"137 0 LINE"
);
},
{
closed = 1;
nodes = (
"605 -9 OFFCURVE",
"631 28 OFFCURVE",
"631 86 CURVE SMOOTH",
"631 265 LINE",
"613 265 LINE",
"613 86 LINE SMOOTH",
"613 43 OFFCURVE",
"595 8 OFFCURVE",
"550 8 CURVE SMOOTH",
"503 8 OFFCURVE",
"489 43 OFFCURVE",
"484 86 CURVE SMOOTH",
"475 169 LINE SMOOTH",
"463 279 OFFCURVE",
"422 337 OFFCURVE",
"307 337 CURVE SMOOTH",
"159 337 LINE",
"159 328 LINE",
"299 328 LINE SMOOTH",
"399 328 OFFCURVE",
"445 270 OFFCURVE",
"454 173 CURVE SMOOTH",
"462 86 LINE SMOOTH",
"467 29 OFFCURVE",
"490 -9 OFFCURVE",
"548 -9 CURVE SMOOTH"
);
},
{
closed = 1;
nodes = (
"348 328 LINE",
"353 330 LINE",
"419 330 LINE SMOOTH",
"542 330 OFFCURVE",
"628 388 OFFCURVE",
"628 505 CURVE SMOOTH",
"628 622 OFFCURVE",
"542 682 OFFCURVE",
"419 682 CURVE SMOOTH",
"159 682 LINE",
"159 665 LINE",
"413 665 LINE SMOOTH",
"531 665 OFFCURVE",
"606 611 OFFCURVE",
"606 505 CURVE SMOOTH",
"606 399 OFFCURVE",
"531 345 OFFCURVE",
"413 345 CURVE SMOOTH",
"159 345 LINE",
"159 328 LINE"
);
}
);
width = 694;
},
{
anchors = (
{
name = bottom;
position = "{420, 0}";
},
{
name = top;
position = "{396, 682}";
}
);
hints = (
{
origin = "{0, 3}";
scale = "{1.1, 1}";
type = Corner;
name = _corner.Serif;
options = 1;
},
{
origin = "{0, 0}";
scale = "{-1, 1}";
type = Corner;
name = _corner.Serif;
},
{
origin = "{0, 2}";
scale = "{-1.08, 1}";
type = Corner;
name = _corner.Serif;
}
);
layerId = "219068EA-2B9B-40DC-949E-B60449C01B8A";
paths = (
{
closed = 1;
nodes = (
"299 0 LINE",
"299 685 LINE",
"109 685 LINE",
"109 0 LINE"
);
},
{
closed = 1;
nodes = (
"716 -8 OFFCURVE",
"770 60 OFFCURVE",
"770 165 CURVE SMOOTH",
"770 276 LINE",
"657 276 LINE",
"657 145 LINE SMOOTH",
"657 120 OFFCURVE",
"648 105 OFFCURVE",
"625 105 CURVE SMOOTH",
"601 105 OFFCURVE",
"593 120 OFFCURVE",
"593 145 CURVE SMOOTH",
"593 166 LINE SMOOTH",
"593 263 OFFCURVE",
"555 320 OFFCURVE",
"449 319 CURVE SMOOTH",
"299 318 LINE",
"299 295 LINE",
"315 295 LINE SMOOTH",
"373 295 OFFCURVE",
"395 278 OFFCURVE",
"401 210 CURVE SMOOTH",
"405 168 LINE SMOOTH",
"415 60 OFFCURVE",
"466 -8 OFFCURVE",
"593 -8 CURVE SMOOTH"
);
},
{
closed = 1;
nodes = (
"412 295 LINE",
"436 316 LINE",
"506 316 LINE SMOOTH",
"651 316 OFFCURVE",
"747 379 OFFCURVE",
"747 502 CURVE SMOOTH",
"747 624 OFFCURVE",
"649 685 OFFCURVE",
"501 685 CURVE SMOOTH",
"299 685 LINE",
"299 585 LINE",
"441 585 LINE SMOOTH",
"512 585 OFFCURVE",
"555 555 OFFCURVE",
"555 490 CURVE SMOOTH",
"555 426 OFFCURVE",
"512 395 OFFCURVE",
"441 395 CURVE SMOOTH",
"299 395 LINE",
"299 295 LINE"
);
}
);
width = 807;
},
{
anchors = (
{
name = bottom;
position = "{389, 0}";
},
{
name = top;
position = "{368, 682}";
}
);
hints = (
{
origin = "{0, 3}";
scale = "{1.1, 1}";
type = Corner;
name = _corner.Serif;
options = 1;
},
{
origin = "{0, 0}";
scale = "{-0.96, 1}";
type = Corner;
name = _corner.Serif;
},
{
origin = "{0, 2}";
scale = "{-1.08, 0.98}";
type = Corner;
name = _corner.Serif;
}
);
layerId = "0C29AA02-E021-4BD1-A2C4-87F681D64C35";
paths = (
{
closed = 1;
nodes = (
"294 0 LINE",
"294 682 LINE",
"104 682 LINE",
"104 0 LINE"
);
},
{
closed = 1;
nodes = (
"683 -10 OFFCURVE",
"723 55 OFFCURVE",
"723 155 CURVE SMOOTH",
"723 305 LINE",
"629 305 LINE",
"629 153 LINE SMOOTH",
"629 125 OFFCURVE",
"617 113 OFFCURVE",
"597 113 CURVE SMOOTH",
"578 113 OFFCURVE",
"565 125 OFFCURVE",
"565 153 CURVE SMOOTH",
"565 162 LINE SMOOTH",
"565 286 OFFCURVE",
"506 329 OFFCURVE",
"386 329 CURVE SMOOTH",
"294 329 LINE",
"294 299 LINE",
"305 299 LINE SMOOTH",
"353 299 OFFCURVE",
"369 274 OFFCURVE",
"380 213 CURVE SMOOTH",
"388 168 LINE SMOOTH",
"407 60 OFFCURVE",
"451 -10 OFFCURVE",
"569 -10 CURVE SMOOTH"
);
},
{
closed = 1;
nodes = (
"343 299 LINE",
"371 327 LINE",
"468 327 LINE SMOOTH",
"613 327 OFFCURVE",
"709 384 OFFCURVE",
"709 501 CURVE SMOOTH",
"709 623 OFFCURVE",
"613 682 OFFCURVE",
"468 682 CURVE SMOOTH",
"294 682 LINE",
"294 592 LINE",
"402 592 LINE SMOOTH",
"473 592 OFFCURVE",
"517 559 OFFCURVE",
"517 490 CURVE SMOOTH",
"517 422 OFFCURVE",
"473 389 OFFCURVE",
"402 389 CURVE SMOOTH",
"294 389 LINE",
"294 299 LINE"
);
}
);
width = 758;
},
{
anchors = (
{
name = bottom;
position = "{386, 0}";
},
{
name = top;
position = "{361, 682}";
}
);
hints = (
{
origin = "{0, 3}";
scale = "{1.1, 1}";
type = Corner;
name = _corner.Serif;
options = 1;
},
{
origin = "{0, 0}";
scale = "{-1.386, 1}";
type = Corner;
name = _corner.Serif;
},
{
origin = "{0, 2}";
scale = "{-1.08, 1}";
type = Corner;
name = _corner.Serif;
}
);
layerId = "2B88661E-23DD-4EDA-82FC-C2AEA983F097";
paths = (
{
closed = 1;
nodes = (
"168 0 LINE",
"168 682 LINE",
"140 682 LINE",
"140 0 LINE"
);
},
{
closed = 1;
nodes = (
"644 -9 OFFCURVE",
"675 35 OFFCURVE",
"675 102 CURVE SMOOTH",
"675 246 LINE",
"652 246 LINE",
"652 101 LINE SMOOTH",
"652 53 OFFCURVE",
"630 15 OFFCURVE",
"577 15 CURVE SMOOTH",
"522 15 OFFCURVE",
"501 53 OFFCURVE",
"501 101 CURVE SMOOTH",
"501 155 LINE SMOOTH",
"501 270 OFFCURVE",
"450 329 OFFCURVE",
"333 329 CURVE SMOOTH",
"168 329 LINE",
"168 318 LINE",
"320 318 LINE SMOOTH",
"412 318 OFFCURVE",
"474 261 OFFCURVE",
"474 160 CURVE SMOOTH",
"474 102 LINE SMOOTH",
"474 35 OFFCURVE",
"506 -9 OFFCURVE",
"575 -9 CURVE SMOOTH"
);
},
{
closed = 1;
nodes = (
"381 318 LINE",
"384 321 LINE",
"442 321 LINE SMOOTH",
"572 321 OFFCURVE",
"662 380 OFFCURVE",
"662 501 CURVE SMOOTH",
"662 621 OFFCURVE",
"573 682 OFFCURVE",
"443 682 CURVE SMOOTH",
"168 682 LINE",
"168 659 LINE",
"436 659 LINE SMOOTH",
"558 659 OFFCURVE",
"634 606 OFFCURVE",
"634 500 CURVE SMOOTH",
"634 394 OFFCURVE",
"558 341 OFFCURVE",
"436 341 CURVE SMOOTH",
"168 341 LINE",
"168 318 LINE"
);
}
);
width = 733;
}
);
leftKerningGroup = I;
leftMetricsKey = H;
rightKerningGroup = R;
unicode = 0052;
},
{
color = 8;
glyphname = S;
lastChange = "2021-07-13 20:15:12 +0000";
layers = (
{
anchors = (
{
name = bottom;
position = "{360, 0}";
},
{
name = top;
position = "{325, 682}";
}
);
layerId = "1E61A082-F045-49A7-AB52-DD1B03FD9B54";
paths = (
{
closed = 1;
nodes = (
"514 -11 OFFCURVE",
"597 48 OFFCURVE",
"597 169 CURVE SMOOTH",
"597 290 OFFCURVE",
"509 329 OFFCURVE",
"389 351 CURVE SMOOTH",
"295 368 LINE SMOOTH",
"190 387 OFFCURVE",
"114 419 OFFCURVE",
"114 522 CURVE SMOOTH",
"114 623 OFFCURVE",
"183 676 OFFCURVE",
"302 676 CURVE SMOOTH",
"418 676 OFFCURVE",
"515 607 OFFCURVE",
"558 450 CURVE",
"573 450 LINE",
"538 625 OFFCURVE",
"425 693 OFFCURVE",
"302 693 CURVE SMOOTH",
"175 693 OFFCURVE",
"92 639 OFFCURVE",
"92 522 CURVE SMOOTH",
"92 405 OFFCURVE",
"179 370 OFFCURVE",
"291 349 CURVE SMOOTH",
"385 331 LINE SMOOTH",
"490 311 OFFCURVE",
"575 279 OFFCURVE",
"575 169 CURVE SMOOTH",
"575 65 OFFCURVE",
"505 6 OFFCURVE",
"385 6 CURVE SMOOTH",
"261 6 OFFCURVE",
"155 81 OFFCURVE",
"106 241 CURVE",
"91 241 LINE",
"134 63 OFFCURVE",
"252 -11 OFFCURVE",
"385 -11 CURVE SMOOTH"
);
},
{
closed = 1;
nodes = (
"104 0 LINE",
"104 211 LINE",
"91 241 LINE",
"86 241 LINE",
"86 0 LINE"
);
},
{
closed = 1;
nodes = (
"578 450 LINE",
"578 682 LINE",
"560 682 LINE",
"560 484 LINE",
"573 450 LINE"
);
}
);
width = 676;
},
{
anchors = (
{
name = bottom;
position = "{390, 0}";
},
{
name = top;
position = "{352, 682}";
}
);
layerId = "219068EA-2B9B-40DC-949E-B60449C01B8A";
paths = (
{
closed = 1;
nodes = (
"586 -12 OFFCURVE",
"692 60 OFFCURVE",
"692 206 CURVE SMOOTH",
"692 353 OFFCURVE",
"564 407 OFFCURVE",
"392 431 CURVE SMOOTH",
"328 440 LINE SMOOTH",
"273 448 OFFCURVE",
"225 466 OFFCURVE",
"225 517 CURVE SMOOTH",
"225 568 OFFCURVE",
"267 589 OFFCURVE",
"331 589 CURVE SMOOTH",
"424 589 OFFCURVE",
"506 551 OFFCURVE",
"542 473 CURVE",
"584 473 LINE",
"559 629 OFFCURVE",
"446 694 OFFCURVE",
"305 694 CURVE SMOOTH",
"161 694 OFFCURVE",
"47 631 OFFCURVE",
"47 488 CURVE SMOOTH",
"47 344 OFFCURVE",
"173 277 OFFCURVE",
"338 254 CURVE SMOOTH",
"402 245 LINE SMOOTH",
"460 237 OFFCURVE",
"513 220 OFFCURVE",
"513 168 CURVE SMOOTH",
"513 117 OFFCURVE",
"473 94 OFFCURVE",
"406 94 CURVE SMOOTH",
"301 94 OFFCURVE",
"218 134 OFFCURVE",
"175 218 CURVE",
"131 218 LINE",
"153 54 OFFCURVE",
"279 -12 OFFCURVE",
"431 -12 CURVE SMOOTH"
);
},
{
closed = 1;
nodes = (
"172 0 LINE",
"172 130 LINE",
"131 218 LINE",
"61 218 LINE",
"61 0 LINE"
);
},
{
closed = 1;
nodes = (
"656 473 LINE",
"656 682 LINE",
"545 682 LINE",
"545 560 LINE",
"584 473 LINE"
);
}
);
width = 734;
},
{
anchors = (
{
name = bottom;
position = "{364, 0}";
},
{
name = top;
position = "{323, 682}";
}
);
layerId = "0C29AA02-E021-4BD1-A2C4-87F681D64C35";
paths = (
{
closed = 1;
nodes = (
"550 -15 OFFCURVE",
"646 60 OFFCURVE",
"646 205 CURVE SMOOTH",
"646 352 OFFCURVE",
"527 408 OFFCURVE",
"366 434 CURVE SMOOTH",
"303 444 LINE SMOOTH",
"248 453 OFFCURVE",
"207 480 OFFCURVE",
"207 529 CURVE SMOOTH",
"207 578 OFFCURVE",
"244 606 OFFCURVE",
"306 606 CURVE SMOOTH",
"398 606 OFFCURVE",
"484 546 OFFCURVE",
"520 446 CURVE",
"559 446 LINE",
"532 627 OFFCURVE",
"415 696 OFFCURVE",
"279 696 CURVE SMOOTH",
"142 696 OFFCURVE",
"42 630 OFFCURVE",
"42 487 CURVE SMOOTH",
"42 343 OFFCURVE",
"159 275 OFFCURVE",
"313 251 CURVE SMOOTH",
"376 241 LINE SMOOTH",
"432 232 OFFCURVE",
"478 210 OFFCURVE",
"478 158 CURVE SMOOTH",
"478 106 OFFCURVE",
"443 77 OFFCURVE",
"380 77 CURVE SMOOTH",
"275 77 OFFCURVE",
"185 140 OFFCURVE",
"146 245 CURVE",
"107 245 LINE",
"127 57 OFFCURVE",
"254 -15 OFFCURVE",
"402 -15 CURVE SMOOTH"
);
},
{
closed = 1;
nodes = (
"150 0 LINE",
"150 176 LINE",
"107 245 LINE",
"56 245 LINE",
"56 0 LINE"
);
},
{
closed = 1;
nodes = (
"610 446 LINE",
"610 682 LINE",
"516 682 LINE",
"516 507 LINE",
"559 446 LINE"
);
}
);
width = 680;
},
{
anchors = (
{
name = bottom;
position = "{375, 0}";
},
{
name = top;
position = "{352, 682}";
}
);
layerId = "2B88661E-23DD-4EDA-82FC-C2AEA983F097";
paths = (
{
closed = 1;
nodes = (
"546 -11 OFFCURVE",
"633 50 OFFCURVE",
"633 172 CURVE SMOOTH",
"633 291 OFFCURVE",
"537 335 OFFCURVE",
"405 356 CURVE SMOOTH",
"309 371 LINE SMOOTH",
"197 388 OFFCURVE",
"114 421 OFFCURVE",
"114 522 CURVE SMOOTH",
"114 619 OFFCURVE",
"185 670 OFFCURVE",
"313 670 CURVE SMOOTH",
"437 670 OFFCURVE",
"543 611 OFFCURVE",
"589 477 CURVE",
"606 477 LINE",
"570 633 OFFCURVE",
"445 693 OFFCURVE",
"312 693 CURVE SMOOTH",
"175 693 OFFCURVE",
"87 639 OFFCURVE",
"87 521 CURVE SMOOTH",
"87 405 OFFCURVE",
"181 364 OFFCURVE",
"306 344 CURVE SMOOTH",
"402 329 LINE SMOOTH",
"515 311 OFFCURVE",
"606 278 OFFCURVE",
"606 171 CURVE SMOOTH",
"606 70 OFFCURVE",
"534 12 OFFCURVE",
"404 12 CURVE SMOOTH",
"273 12 OFFCURVE",
"157 76 OFFCURVE",
"106 214 CURVE",
"86 214 LINE",
"128 63 OFFCURVE",
"262 -11 OFFCURVE",
"405 -11 CURVE SMOOTH"
);
},
{
closed = 1;
nodes = (
"105 0 LINE",
"105 176 LINE",
"86 214 LINE",
"82 214 LINE",
"82 0 LINE"
);
},
{
closed = 1;
nodes = (
"613 477 LINE",
"613 682 LINE",
"590 682 LINE",
"590 513 LINE",
"606 477 LINE"
);
}
);
width = 703;
}
);
leftKerningGroup = S;
rightKerningGroup = S;
unicode = 0053;
},
{
color = 8;
glyphname = Germandbls;
lastChange = "2021-07-06 17:30:32 +0000";
layers = (
{
hints = (
{
origin = "{0, 32}";
scale = "{0.86, 1}";
type = Corner;
name = _corner.Serif;
}
);
layerId = "1E61A082-F045-49A7-AB52-DD1B03FD9B54";
paths = (
{
closed = 1;
nodes = (
"130 0 LINE",
"130 449 LINE SMOOTH",
"130 602 OFFCURVE",
"219 680 OFFCURVE",
"366 680 CURVE SMOOTH",
"450 680 OFFCURVE",
"521 654 OFFCURVE",
"556 630 CURVE",
"558 639 LINE",
"350 415 LINE",
"350 400 LINE",
"496 400 OFFCURVE",
"590 347 OFFCURVE",
"590 195 CURVE SMOOTH",
"590 91 OFFCURVE",
"535 8 OFFCURVE",
"426 8 CURVE",
"427 -9 LINE",
"547 -9 OFFCURVE",
"612 76 OFFCURVE",
"612 197 CURVE SMOOTH",
"612 356 OFFCURVE",
"506 417 OFFCURVE",
"360 417 CURVE",
"366 407 LINE",
"579 636 LINE",
"524 675 OFFCURVE",
"460 697 OFFCURVE",
"366 697 CURVE SMOOTH",
"207 697 OFFCURVE",
"108 615 OFFCURVE",
"108 449 CURVE SMOOTH",
"108 0 LINE"
);
},
{
closed = 1;
nodes = (
"426 8 LINE",
"336 8 OFFCURVE",
"272 63 OFFCURVE",
"267 169 CURVE",
"252 169 LINE",
"256 52 OFFCURVE",
"324 -9 OFFCURVE",
"427 -9 CURVE"
);
}
);
width = 691;
},
{
hints = (
{
origin = "{0, 32}";
scale = "{0.86, 1}";
type = Corner;
name = _corner.Serif;
}
);
layerId = "219068EA-2B9B-40DC-949E-B60449C01B8A";
paths = (
{
closed = 1;
nodes = (
"275 0 LINE",
"275 404 LINE SMOOTH",
"275 525 OFFCURVE",
"339 588 OFFCURVE",
"445 588 CURVE SMOOTH",
"503 588 OFFCURVE",
"551 573 OFFCURVE",
"590 551 CURVE",
"600 632 LINE",
"385 420 LINE",
"385 325 LINE",
"511 325 OFFCURVE",
"566 276 OFFCURVE",
"566 186 CURVE SMOOTH",
"566 138 OFFCURVE",
"550 110 OFFCURVE",
"516 110 CURVE",
"546 -9 LINE",
"672 -9 OFFCURVE",
"758 66 OFFCURVE",
"758 188 CURVE SMOOTH",
"758 343 OFFCURVE",
"645 420 OFFCURVE",
"470 420 CURVE",
"500 384 LINE",
"715 596 LINE",
"670 639 OFFCURVE",
"570 696 OFFCURVE",
"424 696 CURVE SMOOTH",
"213 696 OFFCURVE",
"85 593 OFFCURVE",
"85 385 CURVE SMOOTH",
"85 0 LINE"
);
},
{
closed = 1;
nodes = (
"516 110 LINE",
"488 110 OFFCURVE",
"471 130 OFFCURVE",
"470 160 CURVE",
"356 160 LINE",
"356 54 OFFCURVE",
"420 -9 OFFCURVE",
"546 -9 CURVE"
);
}
);
width = 800;
},
{
hints = (
{
origin = "{0, 32}";
scale = "{0.86, 1}";
type = Corner;
name = _corner.Serif;
}
);
layerId = "0C29AA02-E021-4BD1-A2C4-87F681D64C35";
paths = (
{
closed = 1;
nodes = (
"277 0 LINE",
"277 431 LINE SMOOTH",
"277 542 OFFCURVE",
"335 605 OFFCURVE",
"450 605 CURVE SMOOTH",
"495 605 OFFCURVE",
"534 590 OFFCURVE",
"565 571 CURVE",
"583 646 LINE",
"374 415 LINE",
"374 329 LINE",
"483 329 OFFCURVE",
"531 279 OFFCURVE",
"531 187 CURVE SMOOTH",
"531 137 OFFCURVE",
"515 108 OFFCURVE",
"479 108 CURVE",
"535 -6 LINE",
"646 -6 OFFCURVE",
"723 72 OFFCURVE",
"723 198 CURVE SMOOTH",
"723 343 OFFCURVE",
"600 415 OFFCURVE",
"466 415 CURVE",
"469 380 LINE",
"678 610 LINE",
"632 647 OFFCURVE",
"535 696 OFFCURVE",
"416 696 CURVE SMOOTH",
"215 696 OFFCURVE",
"87 604 OFFCURVE",
"87 417 CURVE SMOOTH",
"87 0 LINE"
);
},
{
closed = 1;
nodes = (
"479 108 LINE",
"445 108 OFFCURVE",
"426 140 OFFCURVE",
"426 185 CURVE",
"346 185 LINE",
"346 66 OFFCURVE",
"406 -6 OFFCURVE",
"535 -6 CURVE"
);
}
);
width = 757;
},
{
hints = (
{
origin = "{0, 32}";
scale = "{0.86, 1}";
type = Corner;
name = _corner.Serif;
}
);
layerId = "2B88661E-23DD-4EDA-82FC-C2AEA983F097";
paths = (
{
closed = 1;
nodes = (
"143 0 LINE",
"143 472 LINE SMOOTH",
"143 625 OFFCURVE",
"241 702 OFFCURVE",
"396 702 CURVE SMOOTH",
"483 702 OFFCURVE",
"556 674 OFFCURVE",
"592 647 CURVE",
"599 660 LINE",
"387 435 LINE",
"387 414 LINE",
"541 414 OFFCURVE",
"638 359 OFFCURVE",
"638 202 CURVE SMOOTH",
"638 97 OFFCURVE",
"583 15 OFFCURVE",
"461 15 CURVE",
"462 -9 LINE",
"597 -9 OFFCURVE",
"666 79 OFFCURVE",
"666 204 CURVE SMOOTH",
"666 374 OFFCURVE",
"548 435 OFFCURVE",
"401 435 CURVE",
"408 423 LINE",
"627 656 LINE",
"568 700 OFFCURVE",
"497 725 OFFCURVE",
"396 725 CURVE SMOOTH",
"226 725 OFFCURVE",
"115 641 OFFCURVE",
"115 472 CURVE SMOOTH",
"115 0 LINE"
);
},
{
closed = 1;
nodes = (
"461 15 LINE",
"363 15 OFFCURVE",
"292 67 OFFCURVE",
"286 169 CURVE",
"263 169 LINE",
"267 52 OFFCURVE",
"345 -9 OFFCURVE",
"462 -9 CURVE"
);
}
);
width = 736;
}
);
leftKerningGroup = I;
leftMetricsKey = I;
rightMetricsKey = S;
unicode = 1E9E;
},
{
color = 8;
glyphname = Schwa;
lastChange = "2021-07-14 22:06:56 +0000";
layers = (
{
layerId = "1E61A082-F045-49A7-AB52-DD1B03FD9B54";
paths = (
{
closed = 1;
nodes = (
"145 695 OFFCURVE",
"71 549 OFFCURVE",
"62 447 CURVE",
"80 447 LINE",
"89 540 OFFCURVE",
"159 678 OFFCURVE",
"332 678 CURVE SMOOTH",
"487 678 OFFCURVE",
"589 552 OFFCURVE",
"589 344 CURVE SMOOTH",
"589 136 OFFCURVE",
"485 7 OFFCURVE",
"327 7 CURVE",
"327 -10 LINE",
"496 -10 OFFCURVE",
"611 118 OFFCURVE",
"611 343 CURVE SMOOTH",
"611 567 OFFCURVE",
"498 695 OFFCURVE",
"333 695 CURVE SMOOTH"
);
},
{
closed = 1;
nodes = (
"54 310 LINE",
"54 305 LINE",
"74 293 LINE",
"595 293 LINE",
"595 310 LINE"
);
},
{
closed = 1;
nodes = (
"54 119 OFFCURVE",
"147 -10 OFFCURVE",
"327 -10 CURVE",
"327 7 LINE",
"161 7 OFFCURVE",
"77 130 OFFCURVE",
"74 293 CURVE",
"54 305 LINE"
);
}
);
width = 665;
},
{
layerId = "219068EA-2B9B-40DC-949E-B60449C01B8A";
paths = (
{
closed = 1;
nodes = (
"154 696 OFFCURVE",
"59 566 OFFCURVE",
"55 445 CURVE",
"167 445 LINE",
"180 498 OFFCURVE",
"225 550 OFFCURVE",
"312 550 CURVE SMOOTH",
"430 550 OFFCURVE",
"492 465 OFFCURVE",
"492 327 CURVE SMOOTH",
"492 157 OFFCURVE",
"450 90 OFFCURVE",
"356 90 CURVE",
"358 -14 LINE",
"548 -14 OFFCURVE",
"682 113 OFFCURVE",
"682 341 CURVE SMOOTH",
"682 570 OFFCURVE",
"550 696 OFFCURVE",
"354 696 CURVE SMOOTH"
);
},
{
closed = 1;
nodes = (
"38 352 LINE",
"38 311 LINE",
"226 250 LINE",
"597 250 LINE",
"597 352 LINE"
);
},
{
closed = 1;
nodes = (
"38 118 OFFCURVE",
"150 -14 OFFCURVE",
"358 -14 CURVE",
"356 90 LINE",
"269 90 OFFCURVE",
"227 158 OFFCURVE",
"226 250 CURVE",
"38 311 LINE"
);
}
);
width = 720;
},
{
layerId = "0C29AA02-E021-4BD1-A2C4-87F681D64C35";
paths = (
{
closed = 1;
nodes = (
"141 700 OFFCURVE",
"39 556 OFFCURVE",
"36 402 CURVE",
"122 402 LINE",
"133 483 OFFCURVE",
"184 565 OFFCURVE",
"297 565 CURVE SMOOTH",
"413 565 OFFCURVE",
"478 474 OFFCURVE",
"478 325 CURVE SMOOTH",
"478 142 OFFCURVE",
"425 72 OFFCURVE",
"342 72 CURVE",
"346 -15 LINE",
"541 -15 OFFCURVE",
"678 118 OFFCURVE",
"678 343 CURVE SMOOTH",
"678 568 OFFCURVE",
"541 700 OFFCURVE",
"346 700 CURVE SMOOTH"
);
},
{
closed = 1;
nodes = (
"34 338 LINE",
"34 306 LINE",
"224 248 LINE",
"582 248 LINE",
"582 338 LINE"
);
},
{
closed = 1;
nodes = (
"34 120 OFFCURVE",
"144 -15 OFFCURVE",
"346 -15 CURVE",
"342 72 LINE",
"266 72 OFFCURVE",
"226 144 OFFCURVE",
"224 248 CURVE",
"34 306 LINE"
);
}
);
width = 712;
},
{
layerId = "2B88661E-23DD-4EDA-82FC-C2AEA983F097";
paths = (
{
closed = 1;
nodes = (
"171 693 OFFCURVE",
"96 568 OFFCURVE",
"79 482 CURVE",
"107 482 LINE",
"123 553 OFFCURVE",
"188 670 OFFCURVE",
"369 670 CURVE SMOOTH",
"544 670 OFFCURVE",
"656 547 OFFCURVE",
"656 342 CURVE SMOOTH",
"656 136 OFFCURVE",
"539 13 OFFCURVE",
"363 13 CURVE",
"362 -10 LINE",
"556 -10 OFFCURVE",
"684 118 OFFCURVE",
"684 342 CURVE SMOOTH",
"684 565 OFFCURVE",
"560 693 OFFCURVE",
"368 693 CURVE SMOOTH"
);
},
{
closed = 1;
nodes = (
"62 315 LINE",
"62 304 LINE",
"88 292 LINE",
"665 292 LINE",
"665 315 LINE"
);
},
{
closed = 1;
nodes = (
"62 120 OFFCURVE",
"165 -10 OFFCURVE",
"362 -10 CURVE",
"363 13 LINE",
"182 13 OFFCURVE",
"94 135 OFFCURVE",
"88 292 CURVE",
"62 304 LINE"
);
}
);
width = 746;
}
);
leftMetricsKey = O;
rightMetricsKey = O;
unicode = 018F;
},
{
color = 8;
glyphname = T;
lastChange = "2021-08-09 11:24:42 +0000";
layers = (
{
anchors = (
{
name = bottom;
position = "{363, 0}";
},
{
name = center;
position = "{363, 332}";
},
{
name = top;
position = "{363, 682}";
}
);
hints = (
{
origin = "{0, 3}";
scale = "{1.6, 1}";
type = Corner;
name = _corner.Serif;
},
{
origin = "{0, 0}";
scale = "{-1.6, 1}";
type = Corner;
name = _corner.Serif;
options = 1;
}
);
layerId = "1E61A082-F045-49A7-AB52-DD1B03FD9B54";
paths = (
{
closed = 1;
nodes = (
"374 0 LINE",
"374 682 LINE",
"352 682 LINE",
"352 0 LINE"
);
},
{
closed = 1;
nodes = (
"70 445 LINE",
"70 605 LINE SMOOTH",
"70 653 OFFCURVE",
"82 665 OFFCURVE",
"127 665 CURVE",
"52 665 LINE",
"52 445 LINE"
);
},
{
closed = 1;
nodes = (
"674 665 LINE",
"674 682 LINE",
"52 682 LINE",
"52 665 LINE"
);
},
{
closed = 1;
nodes = (
"674 445 LINE",
"674 665 LINE",
"599 665 LINE",
"645 665 OFFCURVE",
"656 653 OFFCURVE",
"656 605 CURVE SMOOTH",
"656 445 LINE"
);
}
);
width = 725;
},
{
anchors = (
{
name = bottom;
position = "{407, 0}";
},
{
name = center;
position = "{407, 323}";
},
{
name = top;
position = "{407, 682}";
}
);
hints = (
{
origin = "{0, 3}";
scale = "{1.4, 1}";
type = Corner;
name = _corner.Serif;
},
{
origin = "{0, 0}";
scale = "{-1.4, 1}";
type = Corner;
name = _corner.Serif;
options = 1;
}
);
layerId = "219068EA-2B9B-40DC-949E-B60449C01B8A";
paths = (
{
closed = 1;
nodes = (
"502 0 LINE",
"502 682 LINE",
"312 682 LINE",
"312 0 LINE"
);
},
{
closed = 1;
nodes = (
"147 427 LINE",
"147 475 LINE SMOOTH",
"147 550 OFFCURVE",
"175 582 OFFCURVE",
"247 582 CURVE",
"42 582 LINE",
"42 427 LINE"
);
},
{
closed = 1;
nodes = (
"772 582 LINE",
"772 682 LINE",
"42 682 LINE",
"42 582 LINE"
);
},
{
closed = 1;
nodes = (
"772 427 LINE",
"772 582 LINE",
"567 582 LINE",
"640 582 OFFCURVE",
"667 550 OFFCURVE",
"667 475 CURVE SMOOTH",
"667 427 LINE"
);
}
);
width = 814;
},
{
anchors = (
{
name = bottom;
position = "{374, 0}";
},
{
name = center;
position = "{374, 323}";
},
{
name = top;
position = "{373, 682}";
}
);
hints = (
{
origin = "{0, 3}";
scale = "{1.8, 1}";
type = Corner;
name = _corner.Serif;
},
{
origin = "{0, 0}";
scale = "{-1.8, 1}";
type = Corner;
name = _corner.Serif;
options = 1;
}
);
layerId = "0C29AA02-E021-4BD1-A2C4-87F681D64C35";
paths = (
{
closed = 1;
nodes = (
"468 0 LINE",
"468 682 LINE",
"278 682 LINE",
"278 0 LINE"
);
},
{
closed = 1;
nodes = (
"127 418 LINE",
"127 483 LINE SMOOTH",
"127 560 OFFCURVE",
"155 591 OFFCURVE",
"227 591 CURVE",
"37 591 LINE",
"37 418 LINE"
);
},
{
closed = 1;
nodes = (
"709 591 LINE",
"709 682 LINE",
"37 682 LINE",
"37 591 LINE"
);
},
{
closed = 1;
nodes = (
"709 418 LINE",
"709 591 LINE",
"519 591 LINE",
"592 591 OFFCURVE",
"619 560 OFFCURVE",
"619 483 CURVE SMOOTH",
"619 418 LINE"
);
}
);
width = 746;
},
{
anchors = (
{
name = bottom;
position = "{386, 0}";
},
{
name = center;
position = "{386, 331}";
},
{
name = top;
position = "{386, 682}";
}
);
hints = (
{
origin = "{0, 3}";
scale = "{1.4, 1}";
type = Corner;
name = _corner.Serif;
},
{
origin = "{0, 0}";
scale = "{-1.4, 1}";
type = Corner;
name = _corner.Serif;
options = 1;
}
);
layerId = "2B88661E-23DD-4EDA-82FC-C2AEA983F097";
paths = (
{
closed = 1;
nodes = (
"400 0 LINE",
"400 682 LINE",
"372 682 LINE",
"372 0 LINE"
);
},
{
closed = 1;
nodes = (
"83 471 LINE",
"83 598 LINE SMOOTH",
"83 646 OFFCURVE",
"95 659 OFFCURVE",
"141 659 CURVE",
"60 659 LINE",
"60 471 LINE"
);
},
{
closed = 1;
nodes = (
"712 659 LINE",
"712 682 LINE",
"60 682 LINE",
"60 659 LINE"
);
},
{
closed = 1;
nodes = (
"712 471 LINE",
"712 659 LINE",
"631 659 LINE",
"677 659 OFFCURVE",
"689 646 OFFCURVE",
"689 598 CURVE SMOOTH",
"689 471 LINE"
);
}
);
width = 772;
}
);
leftKerningGroup = T;
rightKerningGroup = T;
unicode = 0054;
},
{
color = 8;
glyphname = U;
lastChange = "2021-08-09 11:23:59 +0000";
layers = (
{
anchors = (
{
name = bottom;
position = "{384, 0}";
},
{
name = ogonek;
position = "{522, 0}";
},
{
name = top;
position = "{387, 682}";
},
{
name = topright;
position = "{646, 682}";
}
);
hints = (
{
origin = "{0, 3}";
scale = "{1.08, 1}";
type = Corner;
name = _corner.Serif;
},
{
origin = "{0, 4}";
scale = "{-1.18, 1}";
type = Corner;
name = _corner.Serif;
options = 1;
},
{
origin = "{0, 12}";
scale = "{1.18, 1}";
type = Corner;
name = _corner.Serif;
options = 1;
},
{
origin = "{0, 13}";
scale = "{-1.08, 1}";
type = Corner;
name = _corner.Serif;
}
);
layerId = "1E61A082-F045-49A7-AB52-DD1B03FD9B54";
leftMetricsKey = "=H-12";
rightMetricsKey = "=H-12";
paths = (
{
closed = 1;
nodes = (
"558 -11 OFFCURVE",
"646 87 OFFCURVE",
"646 261 CURVE SMOOTH",
"646 682 LINE",
"628 682 LINE",
"628 261 LINE SMOOTH",
"628 105 OFFCURVE",
"551 7 OFFCURVE",
"386 7 CURVE SMOOTH",
"221 7 OFFCURVE",
"144 105 OFFCURVE",
"144 261 CURVE SMOOTH",
"144 682 LINE",
"122 682 LINE",
"122 261 LINE SMOOTH",
"122 87 OFFCURVE",
"210 -11 OFFCURVE",
"384 -11 CURVE SMOOTH"
);
}
);
width = 767;
},
{
anchors = (
{
name = bottom;
position = "{415, 0}";
},
{
name = ogonek;
position = "{572, 0}";
},
{
name = top;
position = "{441, 682}";
},
{
name = topright;
position = "{735, 682}";
}
);
hints = (
{
origin = "{0, 3}";
scale = "{1.08, 1}";
type = Corner;
name = _corner.Serif;
},
{
origin = "{0, 4}";
scale = "{-1.18, 1}";
type = Corner;
name = _corner.Serif;
options = 1;
},
{
origin = "{0, 12}";
scale = "{1.18, 1}";
type = Corner;
name = _corner.Serif;
options = 1;
},
{
origin = "{0, 13}";
scale = "{-1.08, 1}";
type = Corner;
name = _corner.Serif;
}
);
layerId = "219068EA-2B9B-40DC-949E-B60449C01B8A";
leftMetricsKey = "=H-10";
rightMetricsKey = "=H-10";
paths = (
{
closed = 1;
nodes = (
"626 -10 OFFCURVE",
"735 92 OFFCURVE",
"735 285 CURVE SMOOTH",
"735 682 LINE",
"589 682 LINE",
"589 272 LINE SMOOTH",
"589 170 OFFCURVE",
"544 110 OFFCURVE",
"439 110 CURVE SMOOTH",
"335 110 OFFCURVE",
"287 170 OFFCURVE",
"287 272 CURVE SMOOTH",
"287 682 LINE",
"97 682 LINE",
"97 285 LINE SMOOTH",
"97 92 OFFCURVE",
"208 -10 OFFCURVE",
"418 -10 CURVE SMOOTH"
);
}
);
width = 832;
},
{
anchors = (
{
name = bottom;
position = "{388, 0}";
},
{
name = ogonek;
position = "{541, 0}";
},
{
name = top;
position = "{418, 682}";
},
{
name = topright;
position = "{686, 682}";
}
);
hints = (
{
origin = "{0, 3}";
scale = "{1, 0.98}";
type = Corner;
name = _corner.Serif;
},
{
origin = "{0, 4}";
scale = "{-1.18, 0.98}";
type = Corner;
name = _corner.Serif;
options = 1;
},
{
origin = "{0, 12}";
scale = "{1.18, 0.98}";
type = Corner;
name = _corner.Serif;
options = 1;
},
{
origin = "{0, 13}";
scale = "{-1, 0.98}";
type = Corner;
name = _corner.Serif;
}
);
layerId = "0C29AA02-E021-4BD1-A2C4-87F681D64C35";
leftMetricsKey = "=H-6";
rightMetricsKey = "=H-6";
paths = (
{
closed = 1;
nodes = (
"587 -10 OFFCURVE",
"689 89 OFFCURVE",
"689 263 CURVE SMOOTH",
"689 682 LINE",
"567 682 LINE",
"567 230 LINE SMOOTH",
"567 140 OFFCURVE",
"521 86 OFFCURVE",
"424 86 CURVE SMOOTH",
"327 86 OFFCURVE",
"281 140 OFFCURVE",
"281 230 CURVE SMOOTH",
"281 682 LINE",
"91 682 LINE",
"91 263 LINE SMOOTH",
"91 89 OFFCURVE",
"190 -10 OFFCURVE",
"388 -10 CURVE SMOOTH"
);
}
);
width = 780;
},
{
anchors = (
{
name = bottom;
position = "{417, 0}";
},
{
name = ogonek;
position = "{560, 0}";
},
{
name = top;
position = "{419, 682}";
},
{
name = topright;
position = "{697, 682}";
}
);
hints = (
{
origin = "{0, 3}";
scale = "{1.08, 1}";
type = Corner;
name = _corner.Serif;
},
{
origin = "{0, 4}";
scale = "{-1.18, 1}";
type = Corner;
name = _corner.Serif;
options = 1;
},
{
origin = "{0, 12}";
scale = "{1.18, 1}";
type = Corner;
name = _corner.Serif;
options = 1;
},
{
origin = "{0, 13}";
scale = "{-1.08, 1}";
type = Corner;
name = _corner.Serif;
}
);
layerId = "2B88661E-23DD-4EDA-82FC-C2AEA983F097";
paths = (
{
closed = 1;
nodes = (
"603 -11 OFFCURVE",
"697 94 OFFCURVE",
"697 279 CURVE SMOOTH",
"697 682 LINE",
"672 682 LINE",
"672 279 LINE SMOOTH",
"672 115 OFFCURVE",
"591 13 OFFCURVE",
"419 13 CURVE SMOOTH",
"246 13 OFFCURVE",
"166 115 OFFCURVE",
"166 279 CURVE SMOOTH",
"166 682 LINE",
"138 682 LINE",
"138 279 LINE SMOOTH",
"138 94 OFFCURVE",
"232 -11 OFFCURVE",
"417 -11 CURVE SMOOTH"
);
}
);
width = 835;
}
);
leftKerningGroup = U;
leftMetricsKey = H;
rightKerningGroup = U;
rightMetricsKey = H;
unicode = 0055;
},
{
color = 8;
glyphname = V;
lastChange = "2021-08-09 11:24:35 +0000";
layers = (
{
anchors = (
{
name = bottom;
position = "{379, 0}";
},
{
name = top;
position = "{379, 682}";
}
);
hints = (
{
origin = "{0, 2}";
scale = "{-1.28, 1}";
type = Corner;
name = _corner.Serif;
options = 1;
},
{
origin = "{0, 5}";
scale = "{1.28, 1}";
type = Corner;
name = _corner.Serif;
},
{
origin = "{0, 6}";
scale = "{-0.74, 1}";
type = Corner;
name = _corner.Serif;
options = 1;
},
{
origin = "{0, 1}";
scale = "{0.74, 1}";
type = Corner;
name = _corner.Serif;
}
);
layerId = "1E61A082-F045-49A7-AB52-DD1B03FD9B54";
paths = (
{
closed = 1;
nodes = (
"387 -6 LINE",
"665 682 LINE",
"646 682 LINE",
"377 15 LINE",
"385 15 LINE",
"117 682 LINE",
"93 682 LINE",
"371 -6 LINE"
);
}
);
width = 758;
},
{
anchors = (
{
name = bottom;
position = "{422, 0}";
},
{
name = top;
position = "{422, 682}";
}
);
hints = (
{
origin = "{0, 2}";
scale = "{-1.7, 1}";
type = Corner;
name = _corner.Serif;
options = 1;
},
{
origin = "{0, 5}";
scale = "{1.7, 1}";
type = Corner;
name = _corner.Serif;
},
{
origin = "{0, 6}";
scale = "{-0.6, 1}";
type = Corner;
name = _corner.Serif;
options = 1;
},
{
origin = "{0, 1}";
scale = "{0.6, 1}";
type = Corner;
name = _corner.Serif;
}
);
layerId = "219068EA-2B9B-40DC-949E-B60449C01B8A";
paths = (
{
closed = 1;
nodes = (
"510 0 LINE",
"799 682 LINE",
"671 682 LINE",
"429 105 LINE",
"489 105 LINE",
"252 682 LINE",
"46 682 LINE",
"335 0 LINE"
);
}
);
width = 845;
},
{
anchors = (
{
name = bottom;
position = "{403, 0}";
},
{
name = top;
position = "{403, 682}";
}
);
hints = (
{
origin = "{0, 2}";
scale = "{-1.7, 0.98}";
type = Corner;
name = _corner.Serif;
options = 1;
},
{
origin = "{0, 5}";
scale = "{1.7, 0.98}";
type = Corner;
name = _corner.Serif;
},
{
origin = "{0, 6}";
scale = "{-0.6, 0.98}";
type = Corner;
name = _corner.Serif;
options = 1;
},
{
origin = "{0, 1}";
scale = "{0.6, 0.98}";
type = Corner;
name = _corner.Serif;
}
);
layerId = "0C29AA02-E021-4BD1-A2C4-87F681D64C35";
paths = (
{
closed = 1;
nodes = (
"482 -3 LINE",
"762 682 LINE",
"652 682 LINE",
"417 102 LINE",
"482 102 LINE",
"255 682 LINE",
"50 682 LINE",
"330 -3 LINE"
);
}
);
width = 812;
},
{
anchors = (
{
name = bottom;
position = "{393, 0}";
},
{
name = top;
position = "{393, 682}";
}
);
hints = (
{
origin = "{0, 2}";
scale = "{-1.3, 1}";
type = Corner;
name = _corner.Serif;
options = 1;
},
{
origin = "{0, 5}";
scale = "{1.3, 1}";
type = Corner;
name = _corner.Serif;
},
{
origin = "{0, 6}";
scale = "{-0.74, 1}";
type = Corner;
name = _corner.Serif;
options = 1;
},
{
origin = "{0, 1}";
scale = "{0.74, 1}";
type = Corner;
name = _corner.Serif;
}
);
layerId = "2B88661E-23DD-4EDA-82FC-C2AEA983F097";
paths = (
{
closed = 1;
nodes = (
"404 -8 LINE",
"696 682 LINE",
"669 682 LINE",
"388 16 LINE",
"400 16 LINE",
"120 682 LINE",
"90 682 LINE",
"381 -8 LINE"
);
}
);
width = 786;
}
);
leftKerningGroup = V;
leftMetricsKey = A;
rightKerningGroup = V;
rightMetricsKey = A;
unicode = 0056;
},
{
color = 8;
glyphname = W;
lastChange = "2021-08-09 11:24:32 +0000";
layers = (
{
anchors = (
{
name = bottom;
position = "{512, 0}";
},
{
name = top;
position = "{505, 682}";
}
);
hints = (
{
origin = "{0, 2}";
scale = "{-1.28, 1}";
type = Corner;
name = _corner.Serif;
options = 1;
},
{
origin = "{0, 5}";
scale = "{1.28, 1}";
type = Corner;
name = _corner.Serif;
},
{
origin = "{0, 6}";
scale = "{-0.74, 1}";
type = Corner;
name = _corner.Serif;
options = 1;
},
{
origin = "{0, 1}";
scale = "{0.74, 1}";
type = Corner;
name = _corner.Serif;
},
{
origin = "{1, 5}";
scale = "{1.28, 1}";
type = Corner;
name = _corner.Serif;
},
{
origin = "{1, 6}";
scale = "{-0.74, 1}";
type = Corner;
name = _corner.Serif;
options = 1;
}
);
layerId = "1E61A082-F045-49A7-AB52-DD1B03FD9B54";
paths = (
{
closed = 1;
nodes = (
"703 -6 LINE",
"930 682 LINE",
"911 682 LINE",
"692 15 LINE",
"701 15 LINE",
"482 682 LINE",
"459 682 LINE",
"686 -6 LINE"
);
},
{
closed = 1;
nodes = (
"338 -6 LINE",
"518 540 LINE",
"509 569 LINE",
"327 15 LINE",
"335 15 LINE",
"116 682 LINE",
"93 682 LINE",
"320 -6 LINE"
);
}
);
width = 1023;
},
{
anchors = (
{
name = bottom;
position = "{570, 0}";
},
{
name = top;
position = "{590, 682}";
}
);
hints = (
{
origin = "{0, 2}";
scale = "{-1.66, 1}";
type = Corner;
name = _corner.Serif;
options = 1;
},
{
origin = "{0, 5}";
scale = "{1.66, 1}";
type = Corner;
name = _corner.Serif;
},
{
origin = "{0, 6}";
scale = "{-0.64, 1}";
type = Corner;
name = _corner.Serif;
options = 1;
},
{
origin = "{0, 1}";
scale = "{0.63, 1}";
type = Corner;
name = _corner.Serif;
},
{
origin = "{1, 5}";
scale = "{1.26, 1}";
type = Corner;
name = _corner.Serif;
},
{
origin = "{1, 6}";
scale = "{-0.63, 1}";
type = Corner;
name = _corner.Serif;
options = 1;
}
);
layerId = "219068EA-2B9B-40DC-949E-B60449C01B8A";
paths = (
{
closed = 1;
nodes = (
"857 0 LINE",
"1106 682 LINE",
"980 682 LINE",
"772 105 LINE",
"839 105 LINE",
"637 682 LINE",
"447 682 LINE",
"696 0 LINE"
);
},
{
closed = 1;
nodes = (
"463 0 LINE",
"611 407 LINE",
"553 571 LINE",
"383 105 LINE",
"452 105 LINE",
"250 682 LINE",
"50 682 LINE",
"298 0 LINE"
);
}
);
width = 1156;
},
{
anchors = (
{
name = bottom;
position = "{559, 0}";
},
{
name = top;
position = "{580, 682}";
}
);
hints = (
{
origin = "{0, 2}";
scale = "{-1.62, 0.98}";
type = Corner;
name = _corner.Serif;
options = 1;
},
{
origin = "{0, 5}";
scale = "{1.62, 0.98}";
type = Corner;
name = _corner.Serif;
},
{
origin = "{0, 6}";
scale = "{-0.64, 0.98}";
type = Corner;
name = _corner.Serif;
options = 1;
},
{
origin = "{0, 1}";
scale = "{0.64, 0.98}";
type = Corner;
name = _corner.Serif;
},
{
origin = "{1, 5}";
scale = "{1.27, 0.98}";
type = Corner;
name = _corner.Serif;
},
{
origin = "{1, 6}";
scale = "{-0.64, 0.98}";
type = Corner;
name = _corner.Serif;
options = 1;
}
);
layerId = "0C29AA02-E021-4BD1-A2C4-87F681D64C35";
paths = (
{
closed = 1;
nodes = (
"812 0 LINE",
"1042 682 LINE",
"934 682 LINE",
"742 105 LINE",
"811 105 LINE",
"628 682 LINE",
"436 682 LINE",
"666 0 LINE"
);
},
{
closed = 1;
nodes = (
"429 0 LINE",
"556 378 LINE",
"506 518 LINE",
"368 105 LINE",
"435 105 LINE",
"251 682 LINE",
"55 682 LINE",
"285 0 LINE"
);
}
);
width = 1097;
},
{
anchors = (
{
name = bottom;
position = "{515, 0}";
},
{
name = top;
position = "{508, 682}";
}
);
hints = (
{
origin = "{0, 2}";
scale = "{-1.3, 1}";
type = Corner;
name = _corner.Serif;
options = 1;
},
{
origin = "{0, 5}";
scale = "{1.3, 1}";
type = Corner;
name = _corner.Serif;
},
{
origin = "{0, 6}";
scale = "{-0.72, 1}";
type = Corner;
name = _corner.Serif;
options = 1;
},
{
origin = "{0, 1}";
scale = "{0.74, 1}";
type = Corner;
name = _corner.Serif;
},
{
origin = "{1, 5}";
scale = "{1.24, 1}";
type = Corner;
name = _corner.Serif;
},
{
origin = "{1, 6}";
scale = "{-0.74, 1}";
type = Corner;
name = _corner.Serif;
options = 1;
}
);
layerId = "2B88661E-23DD-4EDA-82FC-C2AEA983F097";
paths = (
{
closed = 1;
nodes = (
"713 -8 LINE",
"940 682 LINE",
"914 682 LINE",
"696 16 LINE",
"707 16 LINE",
"488 682 LINE",
"460 682 LINE",
"688 -8 LINE"
);
},
{
closed = 1;
nodes = (
"345 -8 LINE",
"523 534 LINE",
"509 569 LINE",
"328 16 LINE",
"338 16 LINE",
"119 682 LINE",
"90 682 LINE",
"318 -8 LINE"
);
}
);
width = 1030;
}
);
leftKerningGroup = W;
leftMetricsKey = V;
rightKerningGroup = W;
rightMetricsKey = V;
unicode = 0057;
},
{
color = 8;
glyphname = X;
lastChange = "2021-07-06 17:18:36 +0000";
layers = (
{
anchors = (
{
name = bottom;
position = "{380, 0}";
},
{
name = top;
position = "{380, 682}";
}
);
hints = (
{
origin = "{1, 1}";
scale = "{0.64, 1}";
type = Corner;
name = _corner.Serif;
},
{
origin = "{1, 2}";
scale = "{-1.38, 1}";
type = Corner;
name = _corner.Serif;
options = 1;
},
{
origin = "{1, 5}";
scale = "{1.38, 1}";
type = Corner;
name = _corner.Serif;
},
{
origin = "{1, 6}";
scale = "{-0.64, 1}";
type = Corner;
name = _corner.Serif;
options = 1;
},
{
origin = "{0, 0}";
scale = "{-1.4, 1}";
type = Corner;
name = _corner.Serif;
options = 1;
},
{
origin = "{0, 3}";
scale = "{1.4, 1}";
type = Corner;
name = _corner.Serif;
},
{
origin = "{0, 4}";
scale = "{-0.66, 1}";
type = Corner;
name = _corner.Serif;
options = 1;
},
{
origin = "{0, 7}";
scale = "{0.66, 1}";
type = Corner;
name = _corner.Serif;
}
);
layerId = "1E61A082-F045-49A7-AB52-DD1B03FD9B54";
paths = (
{
closed = 1;
nodes = (
"114 0 LINE",
"386 347 LINE",
"373 347 LINE",
"642 0 LINE",
"670 0 LINE",
"385 365 LINE",
"378 365 LINE",
"91 0 LINE"
);
},
{
closed = 1;
nodes = (
"383 339 LINE",
"652 682 LINE",
"629 682 LINE",
"375 357 LINE",
"388 357 LINE",
"136 682 LINE",
"108 682 LINE",
"376 339 LINE"
);
}
);
width = 760;
},
{
anchors = (
{
name = bottom;
position = "{411, 0}";
},
{
name = top;
position = "{411, 682}";
}
);
hints = (
{
origin = "{1, 1}";
scale = "{0.28, 1}";
type = Corner;
name = _corner.Serif;
},
{
origin = "{1, 2}";
scale = "{-1.72, 1}";
type = Corner;
name = _corner.Serif;
options = 1;
},
{
origin = "{1, 5}";
scale = "{1.72, 1}";
type = Corner;
name = _corner.Serif;
},
{
origin = "{1, 6}";
scale = "{-0.28, 1}";
type = Corner;
name = _corner.Serif;
options = 1;
},
{
origin = "{0, 7}";
scale = "{0.3, 1}";
type = Corner;
name = _corner.Serif;
},
{
origin = "{0, 0}";
scale = "{-1.8, 1}";
type = Corner;
name = _corner.Serif;
options = 1;
},
{
origin = "{0, 3}";
scale = "{1.8, 1}";
type = Corner;
name = _corner.Serif;
},
{
origin = "{0, 4}";
scale = "{-0.3, 1}";
type = Corner;
name = _corner.Serif;
options = 1;
}
);
layerId = "219068EA-2B9B-40DC-949E-B60449C01B8A";
paths = (
{
closed = 1;
nodes = (
"163 0 LINE",
"405 293 LINE",
"345 293 LINE",
"573 0 LINE",
"814 0 LINE",
"499 394 LINE",
"343 394 LINE",
"15 0 LINE"
);
},
{
closed = 1;
nodes = (
"475 314 LINE",
"781 682 LINE",
"632 682 LINE",
"413 415 LINE",
"473 415 LINE",
"265 682 LINE",
"24 682 LINE",
"319 314 LINE"
);
}
);
width = 826;
},
{
anchors = (
{
name = bottom;
position = "{393, 0}";
},
{
name = top;
position = "{393, 682}";
}
);
hints = (
{
origin = "{1, 1}";
scale = "{0.28, 0.98}";
type = Corner;
name = _corner.Serif;
},
{
origin = "{1, 2}";
scale = "{-1.72, 0.98}";
type = Corner;
name = _corner.Serif;
options = 1;
},
{
origin = "{1, 5}";
scale = "{1.72, 0.98}";
type = Corner;
name = _corner.Serif;
},
{
origin = "{1, 6}";
scale = "{-0.28, 0.98}";
type = Corner;
name = _corner.Serif;
options = 1;
},
{
origin = "{0, 0}";
scale = "{-1.8, 1}";
type = Corner;
name = _corner.Serif;
options = 1;
},
{
origin = "{0, 3}";
scale = "{1.8, 1}";
type = Corner;
name = _corner.Serif;
},
{
origin = "{0, 4}";
scale = "{-0.3, 1}";
type = Corner;
name = _corner.Serif;
options = 1;
},
{
origin = "{0, 7}";
scale = "{0.3, 1}";
type = Corner;
name = _corner.Serif;
}
);
layerId = "0C29AA02-E021-4BD1-A2C4-87F681D64C35";
paths = (
{
closed = 1;
nodes = (
"148 0 LINE",
"381 287 LINE",
"321 287 LINE",
"529 0 LINE",
"764 0 LINE",
"474 388 LINE",
"338 388 LINE",
"18 0 LINE"
);
},
{
closed = 1;
nodes = (
"435 308 LINE",
"744 682 LINE",
"614 682 LINE",
"392 409 LINE",
"452 409 LINE",
"254 682 LINE",
"19 682 LINE",
"299 308 LINE"
);
}
);
width = 780;
},
{
anchors = (
{
name = bottom;
position = "{390, 0}";
},
{
name = top;
position = "{390, 682}";
}
);
hints = (
{
origin = "{1, 1}";
scale = "{0.62, 1}";
type = Corner;
name = _corner.Serif;
},
{
origin = "{1, 2}";
scale = "{-1.4, 1}";
type = Corner;
name = _corner.Serif;
options = 1;
},
{
origin = "{1, 5}";
scale = "{1.4, 1}";
type = Corner;
name = _corner.Serif;
},
{
origin = "{1, 6}";
scale = "{-0.62, 1}";
type = Corner;
name = _corner.Serif;
options = 1;
},
{
origin = "{0, 7}";
scale = "{0.65, 1}";
type = Corner;
name = _corner.Serif;
},
{
origin = "{0, 0}";
scale = "{-1.42, 1}";
type = Corner;
name = _corner.Serif;
options = 1;
},
{
origin = "{0, 3}";
scale = "{1.42, 1}";
type = Corner;
name = _corner.Serif;
},
{
origin = "{0, 4}";
scale = "{-0.65, 1}";
type = Corner;
name = _corner.Serif;
options = 1;
}
);
layerId = "2B88661E-23DD-4EDA-82FC-C2AEA983F097";
paths = (
{
closed = 1;
nodes = (
"115 0 LINE",
"398 346 LINE",
"381 346 LINE",
"662 0 LINE",
"698 0 LINE",
"399 366 LINE",
"384 366 LINE",
"83 0 LINE"
);
},
{
closed = 1;
nodes = (
"397 339 LINE",
"680 682 LINE",
"648 682 LINE",
"383 359 LINE",
"400 359 LINE",
"137 682 LINE",
"101 682 LINE",
"382 339 LINE"
);
}
);
width = 781;
}
);
leftKerningGroup = X;
rightKerningGroup = X;
unicode = 0058;
},
{
color = 8;
glyphname = Y;
lastChange = "2021-08-09 11:24:09 +0000";
layers = (
{
anchors = (
{
name = bottom;
position = "{376, 0}";
},
{
name = top;
position = "{378, 682}";
},
{
name = topleft;
position = "{14, 682}";
}
);
hints = (
{
origin = "{1, 3}";
scale = "{1.6, 1}";
type = Corner;
name = _corner.Serif;
},
{
origin = "{1, 0}";
scale = "{-1.6, 1}";
type = Corner;
name = _corner.Serif;
options = 1;
},
{
origin = "{0, 2}";
scale = "{-1.38, 1}";
type = Corner;
name = _corner.Serif;
options = 1;
},
{
origin = "{0, 5}";
scale = "{1.38, 1}";
type = Corner;
name = _corner.Serif;
},
{
origin = "{0, 6}";
scale = "{-0.64, 1}";
type = Corner;
name = _corner.Serif;
options = 1;
},
{
origin = "{0, 1}";
scale = "{0.64, 1}";
type = Corner;
name = _corner.Serif;
}
);
layerId = "1E61A082-F045-49A7-AB52-DD1B03FD9B54";
paths = (
{
closed = 1;
nodes = (
"385 276 LINE",
"672 682 LINE",
"650 682 LINE",
"375 292 LINE",
"380 292 LINE",
"107 682 LINE",
"80 682 LINE",
"366 276 LINE"
);
},
{
closed = 1;
nodes = (
"387 0 LINE",
"387 291 LINE",
"365 291 LINE",
"365 0 LINE"
);
}
);
width = 752;
},
{
anchors = (
{
name = bottom;
position = "{406, 0}";
},
{
name = top;
position = "{445, 682}";
},
{
name = topleft;
position = "{17, 682}";
}
);
hints = (
{
origin = "{1, 3}";
scale = "{1.4, 1}";
type = Corner;
name = _corner.Serif;
},
{
origin = "{1, 0}";
scale = "{-1.4, 1}";
type = Corner;
name = _corner.Serif;
options = 1;
},
{
origin = "{0, 2}";
scale = "{-1.7, 1}";
type = Corner;
name = _corner.Serif;
options = 1;
},
{
origin = "{0, 5}";
scale = "{1.7, 1}";
type = Corner;
name = _corner.Serif;
},
{
origin = "{0, 6}";
scale = "{-0.36, 1}";
type = Corner;
name = _corner.Serif;
options = 1;
},
{
origin = "{0, 1}";
scale = "{0.36, 1}";
type = Corner;
name = _corner.Serif;
}
);
layerId = "219068EA-2B9B-40DC-949E-B60449C01B8A";
paths = (
{
closed = 1;
nodes = (
"494 240 LINE",
"794 682 LINE",
"655 682 LINE",
"428 341 LINE",
"471 341 LINE",
"245 682 LINE",
"18 682 LINE",
"318 240 LINE"
);
},
{
closed = 1;
nodes = (
"501 0 LINE",
"501 351 LINE",
"311 351 LINE",
"311 0 LINE"
);
}
);
width = 812;
},
{
anchors = (
{
name = bottom;
position = "{386, 0}";
},
{
name = top;
position = "{432, 682}";
},
{
name = topleft;
position = "{17, 682}";
}
);
hints = (
{
origin = "{1, 3}";
scale = "{1.8, 1}";
type = Corner;
name = _corner.Serif;
},
{
origin = "{1, 0}";
scale = "{-1.8, 1}";
type = Corner;
name = _corner.Serif;
options = 1;
},
{
origin = "{0, 2}";
scale = "{-1.7, 0.98}";
type = Corner;
name = _corner.Serif;
options = 1;
},
{
origin = "{0, 5}";
scale = "{1.7, 0.98}";
type = Corner;
name = _corner.Serif;
},
{
origin = "{0, 6}";
scale = "{-0.36, 0.98}";
type = Corner;
name = _corner.Serif;
options = 1;
},
{
origin = "{0, 1}";
scale = "{0.36, 0.98}";
type = Corner;
name = _corner.Serif;
}
);
layerId = "0C29AA02-E021-4BD1-A2C4-87F681D64C35";
paths = (
{
closed = 1;
nodes = (
"474 249 LINE",
"747 682 LINE",
"626 682 LINE",
"418 346 LINE",
"453 346 LINE",
"247 682 LINE",
"25 682 LINE",
"298 249 LINE"
);
},
{
closed = 1;
nodes = (
"481 0 LINE",
"481 360 LINE",
"291 360 LINE",
"291 0 LINE"
);
}
);
width = 772;
},
{
anchors = (
{
name = bottom;
position = "{387, 0}";
},
{
name = top;
position = "{389, 682}";
},
{
name = topleft;
position = "{29, 682}";
}
);
hints = (
{
origin = "{1, 3}";
scale = "{1.4, 1}";
type = Corner;
name = _corner.Serif;
},
{
origin = "{1, 0}";
scale = "{-1.4, 1}";
type = Corner;
name = _corner.Serif;
options = 1;
},
{
origin = "{0, 2}";
scale = "{-1.3912, 1}";
type = Corner;
name = _corner.Serif;
options = 1;
},
{
origin = "{0, 5}";
scale = "{1.3912, 1}";
type = Corner;
name = _corner.Serif;
},
{
origin = "{0, 6}";
scale = "{-0.6302, 1}";
type = Corner;
name = _corner.Serif;
options = 1;
},
{
origin = "{0, 1}";
scale = "{0.6302, 1}";
type = Corner;
name = _corner.Serif;
}
);
layerId = "2B88661E-23DD-4EDA-82FC-C2AEA983F097";
paths = (
{
closed = 1;
nodes = (
"399 270 LINE",
"697 682 LINE",
"666 682 LINE",
"384 290 LINE",
"393 290 LINE",
"110 682 LINE",
"76 682 LINE",
"375 270 LINE"
);
},
{
closed = 1;
nodes = (
"401 0 LINE",
"401 289 LINE",
"373 289 LINE",
"373 0 LINE"
);
}
);
width = 773;
}
);
leftKerningGroup = Y;
leftMetricsKey = V;
rightKerningGroup = Y;
rightMetricsKey = V;
unicode = 0059;
},
{
color = 8;
glyphname = Z;
lastChange = "2021-07-13 20:19:00 +0000";
layers = (
{
anchors = (
{
name = bottom;
position = "{338, 0}";
},
{
name = center;
position = "{340, 341}";
},
{
name = top;
position = "{352, 682}";
}
);
layerId = "1E61A082-F045-49A7-AB52-DD1B03FD9B54";
paths = (
{
closed = 1;
nodes = (
"102 17 LINE",
"607 666 LINE",
"578 665 LINE",
"73 15 LINE"
);
},
{
closed = 1;
nodes = (
"602 0 LINE",
"602 17 LINE",
"102 17 LINE",
"73 15 LINE",
"73 0 LINE"
);
},
{
closed = 1;
nodes = (
"114 436 LINE",
"114 605 LINE SMOOTH",
"114 653 OFFCURVE",
"125 665 OFFCURVE",
"171 665 CURVE",
"96 665 LINE",
"96 436 LINE"
);
},
{
closed = 1;
nodes = (
"602 17 LINE",
"602 255 LINE",
"584 255 LINE",
"584 76 LINE SMOOTH",
"584 29 OFFCURVE",
"572 17 OFFCURVE",
"526 17 CURVE"
);
},
{
closed = 1;
nodes = (
"578 665 LINE",
"607 666 LINE",
"607 682 LINE",
"96 682 LINE",
"96 665 LINE"
);
}
);
width = 682;
},
{
anchors = (
{
name = bottom;
position = "{372, 0}";
},
{
name = center;
position = "{375, 341}";
},
{
name = top;
position = "{386, 682}";
}
);
layerId = "219068EA-2B9B-40DC-949E-B60449C01B8A";
paths = (
{
closed = 1;
nodes = (
"302 102 LINE",
"695 590 LINE",
"447 582 LINE",
"54 94 LINE"
);
},
{
closed = 1;
nodes = (
"690 0 LINE",
"690 102 LINE",
"302 102 LINE",
"54 94 LINE",
"54 0 LINE"
);
},
{
closed = 1;
nodes = (
"182 418 LINE",
"182 473 LINE SMOOTH",
"182 550 OFFCURVE",
"209 582 OFFCURVE",
"282 582 CURVE",
"76 582 LINE",
"76 418 LINE"
);
},
{
closed = 1;
nodes = (
"690 102 LINE",
"690 273 LINE",
"584 273 LINE",
"584 208 LINE SMOOTH",
"584 133 OFFCURVE",
"557 102 OFFCURVE",
"484 102 CURVE"
);
},
{
closed = 1;
nodes = (
"447 582 LINE",
"695 590 LINE",
"695 682 LINE",
"76 682 LINE",
"76 582 LINE"
);
}
);
width = 750;
},
{
anchors = (
{
name = bottom;
position = "{338, 0}";
},
{
name = center;
position = "{342, 341}";
},
{
name = top;
position = "{352, 682}";
}
);
layerId = "0C29AA02-E021-4BD1-A2C4-87F681D64C35";
paths = (
{
closed = 1;
nodes = (
"278 92 LINE",
"638 598 LINE",
"403 592 LINE",
"43 85 LINE"
);
},
{
closed = 1;
nodes = (
"633 0 LINE",
"633 92 LINE",
"278 92 LINE",
"43 85 LINE",
"43 0 LINE"
);
},
{
closed = 1;
nodes = (
"155 409 LINE",
"155 483 LINE SMOOTH",
"155 560 OFFCURVE",
"183 592 OFFCURVE",
"255 592 CURVE",
"65 592 LINE",
"65 409 LINE"
);
},
{
closed = 1;
nodes = (
"633 92 LINE",
"633 282 LINE",
"543 282 LINE",
"543 199 LINE SMOOTH",
"543 123 OFFCURVE",
"516 92 OFFCURVE",
"443 92 CURVE"
);
},
{
closed = 1;
nodes = (
"403 592 LINE",
"638 598 LINE",
"638 682 LINE",
"65 682 LINE",
"65 592 LINE"
);
}
);
width = 681;
},
{
anchors = (
{
name = bottom;
position = "{351, 0}";
},
{
name = center;
position = "{355, 341}";
},
{
name = top;
position = "{364, 682}";
}
);
layerId = "2B88661E-23DD-4EDA-82FC-C2AEA983F097";
paths = (
{
closed = 1;
nodes = (
"108 23 LINE",
"633 661 LINE",
"596 659 LINE",
"72 21 LINE"
);
},
{
closed = 1;
nodes = (
"629 0 LINE",
"629 23 LINE",
"108 23 LINE",
"72 21 LINE",
"72 0 LINE"
);
},
{
closed = 1;
nodes = (
"117 462 LINE",
"117 598 LINE SMOOTH",
"117 646 OFFCURVE",
"130 659 OFFCURVE",
"176 659 CURVE",
"94 659 LINE",
"94 462 LINE"
);
},
{
closed = 1;
nodes = (
"629 23 LINE",
"629 229 LINE",
"606 229 LINE",
"606 84 LINE SMOOTH",
"606 35 OFFCURVE",
"594 23 OFFCURVE",
"548 23 CURVE"
);
},
{
closed = 1;
nodes = (
"596 659 LINE",
"633 661 LINE",
"633 682 LINE",
"94 682 LINE",
"94 659 LINE"
);
}
);
width = 706;
}
);
leftKerningGroup = Z;
rightKerningGroup = Z;
unicode = 005A;
},
{
color = 8;
glyphname = a;
lastChange = "2021-08-16 10:24:19 +0000";
layers = (
{
anchors = (
{
name = bottom;
position = "{268, 0}";
},
{
name = ogonek;
position = "{535, 0}";
},
{
name = top;
position = "{262, 490}";
}
);
layerId = "1E61A082-F045-49A7-AB52-DD1B03FD9B54";
paths = (
{
closed = 1;
nodes = (
"139 322 OFFCURVE",
"149 332 OFFCURVE",
"149 347 CURVE SMOOTH",
"149 368 OFFCURVE",
"129 378 OFFCURVE",
"102 378 CURVE",
"106 369 LINE",
"105 452 OFFCURVE",
"182 483 OFFCURVE",
"262 483 CURVE SMOOTH",
"358 483 OFFCURVE",
"399 441 OFFCURVE",
"399 372 CURVE",
"420 364 LINE",
"420 459 OFFCURVE",
"364 500 OFFCURVE",
"263 500 CURVE SMOOTH",
"172 500 OFFCURVE",
"89 461 OFFCURVE",
"89 369 CURVE SMOOTH",
"89 340 OFFCURVE",
"102 322 OFFCURVE",
"123 322 CURVE SMOOTH"
);
},
{
closed = 1;
nodes = (
"523 -5 OFFCURVE",
"549 25 OFFCURVE",
"549 77 CURVE SMOOTH",
"549 300 LINE",
"531 300 LINE",
"531 77 LINE SMOOTH",
"531 39 OFFCURVE",
"513 12 OFFCURVE",
"476 12 CURVE SMOOTH",
"439 12 OFFCURVE",
"420 39 OFFCURVE",
"420 77 CURVE SMOOTH",
"420 364 LINE",
"399 372 LINE",
"399 346 LINE",
"395 321 LINE",
"399 321 LINE",
"399 173 LINE",
"401 173 LINE",
"401 77 LINE SMOOTH",
"401 25 OFFCURVE",
"429 -5 OFFCURVE",
"475 -5 CURVE SMOOTH"
);
},
{
closed = 1;
nodes = (
"328 -7 OFFCURVE",
"411 64 OFFCURVE",
"410 244 CURVE",
"399 244 LINE",
"399 74 OFFCURVE",
"312 10 OFFCURVE",
"208 10 CURVE SMOOTH",
"132 10 OFFCURVE",
"77 51 OFFCURVE",
"77 119 CURVE SMOOTH",
"77 191 OFFCURVE",
"125 223 OFFCURVE",
"211 242 CURVE SMOOTH",
"282 258 LINE SMOOTH",
"356 275 OFFCURVE",
"385 288 OFFCURVE",
"399 321 CURVE",
"404 321 LINE",
"399 368 LINE",
"399 303 OFFCURVE",
"351 291 OFFCURVE",
"279 276 CURVE SMOOTH",
"204 260 LINE SMOOTH",
"116 241 OFFCURVE",
"55 203 OFFCURVE",
"55 119 CURVE SMOOTH",
"55 41 OFFCURVE",
"116 -7 OFFCURVE",
"205 -7 CURVE SMOOTH"
);
}
);
width = 590;
},
{
anchors = (
{
name = bottom;
position = "{334, 0}";
},
{
name = ogonek;
position = "{668, 0}";
},
{
name = top;
position = "{325, 528}";
}
);
layerId = "219068EA-2B9B-40DC-949E-B60449C01B8A";
paths = (
{
closed = 1;
nodes = (
"243 335 OFFCURVE",
"275 365 OFFCURVE",
"276 406 CURVE SMOOTH",
"277 450 OFFCURVE",
"241 470 OFFCURVE",
"184 473 CURVE",
"180 390 LINE",
"190 440 OFFCURVE",
"240 455 OFFCURVE",
"290 455 CURVE SMOOTH",
"340 455 OFFCURVE",
"375 435 OFFCURVE",
"375 390 CURVE",
"544 370 LINE",
"545 482 OFFCURVE",
"469 538 OFFCURVE",
"330 538 CURVE SMOOTH",
"205 538 OFFCURVE",
"87 497 OFFCURVE",
"87 419 CURVE SMOOTH",
"87 361 OFFCURVE",
"135 335 OFFCURVE",
"189 335 CURVE SMOOTH"
);
},
{
closed = 1;
nodes = (
"675 -13 OFFCURVE",
"729 51 OFFCURVE",
"729 153 CURVE SMOOTH",
"729 281 LINE",
"616 281 LINE",
"616 139 LINE SMOOTH",
"616 115 OFFCURVE",
"604 98 OFFCURVE",
"580 98 CURVE SMOOTH",
"557 98 OFFCURVE",
"544 115 OFFCURVE",
"544 139 CURVE SMOOTH",
"544 370 LINE",
"375 390 LINE",
"375 342 LINE",
"368 286 LINE",
"373 286 LINE",
"373 172 LINE",
"393 172 LINE",
"393 156 LINE SMOOTH",
"393 49 OFFCURVE",
"451 -13 OFFCURVE",
"564 -13 CURVE SMOOTH"
);
},
{
closed = 1;
nodes = (
"321 -11 OFFCURVE",
"410 49 OFFCURVE",
"410 207 CURVE",
"373 210 LINE",
"373 140 OFFCURVE",
"331 117 OFFCURVE",
"292 117 CURVE SMOOTH",
"252 117 OFFCURVE",
"225 135 OFFCURVE",
"225 170 CURVE SMOOTH",
"225 207 OFFCURVE",
"252 220 OFFCURVE",
"297 237 CURVE SMOOTH",
"316 244 LINE SMOOTH",
"345 255 OFFCURVE",
"364 265 OFFCURVE",
"373 286 CURVE",
"377 286 LINE",
"375 390 LINE",
"375 350 OFFCURVE",
"349 333 OFFCURVE",
"295 319 CURVE SMOOTH",
"200 295 LINE SMOOTH",
"103 270 OFFCURVE",
"39 226 OFFCURVE",
"39 132 CURVE SMOOTH",
"39 44 OFFCURVE",
"112 -11 OFFCURVE",
"217 -11 CURVE SMOOTH"
);
}
);
width = 744;
},
{
anchors = (
{
name = bottom;
position = "{303, 0}";
},
{
name = ogonek;
position = "{606, 0}";
},
{
name = top;
position = "{300, 518}";
}
);
layerId = "0C29AA02-E021-4BD1-A2C4-87F681D64C35";
paths = (
{
closed = 1;
nodes = (
"221 312 OFFCURVE",
"253 339 OFFCURVE",
"253 383 CURVE SMOOTH",
"253 431 OFFCURVE",
"214 450 OFFCURVE",
"152 450 CURVE",
"151 400 LINE",
"169 435 OFFCURVE",
"207 458 OFFCURVE",
"260 458 CURVE SMOOTH",
"308 458 OFFCURVE",
"342 436 OFFCURVE",
"342 380 CURVE",
"510 361 LINE",
"511 474 OFFCURVE",
"437 530 OFFCURVE",
"303 530 CURVE SMOOTH",
"182 530 OFFCURVE",
"72 484 OFFCURVE",
"72 395 CURVE SMOOTH",
"72 339 OFFCURVE",
"117 312 OFFCURVE",
"167 312 CURVE SMOOTH"
);
},
{
closed = 1;
nodes = (
"614 -13 OFFCURVE",
"660 50 OFFCURVE",
"660 149 CURVE SMOOTH",
"660 336 LINE",
"570 336 LINE",
"570 140 LINE SMOOTH",
"570 119 OFFCURVE",
"559 105 OFFCURVE",
"539 105 CURVE SMOOTH",
"521 105 OFFCURVE",
"510 119 OFFCURVE",
"510 140 CURVE SMOOTH",
"510 361 LINE",
"342 380 LINE",
"342 332 LINE",
"336 287 LINE",
"340 287 LINE",
"340 162 LINE",
"361 162 LINE",
"361 147 LINE SMOOTH",
"361 45 OFFCURVE",
"405 -13 OFFCURVE",
"508 -13 CURVE SMOOTH"
);
},
{
closed = 1;
nodes = (
"305 -12 OFFCURVE",
"369 50 OFFCURVE",
"370 186 CURVE",
"340 197 LINE",
"340 135 OFFCURVE",
"306 110 OFFCURVE",
"267 110 CURVE SMOOTH",
"234 110 OFFCURVE",
"212 131 OFFCURVE",
"212 166 CURVE SMOOTH",
"212 200 OFFCURVE",
"233 219 OFFCURVE",
"271 235 CURVE SMOOTH",
"290 243 LINE SMOOTH",
"316 254 OFFCURVE",
"333 268 OFFCURVE",
"340 287 CURVE",
"345 287 LINE",
"342 381 LINE",
"342 338 OFFCURVE",
"317 319 OFFCURVE",
"268 305 CURVE SMOOTH",
"181 281 LINE SMOOTH",
"91 256 OFFCURVE",
"26 215 OFFCURVE",
"26 125 CURVE SMOOTH",
"26 45 OFFCURVE",
"89 -12 OFFCURVE",
"193 -12 CURVE SMOOTH"
);
}
);
width = 678;
},
{
anchors = (
{
name = bottom;
position = "{291, 0}";
},
{
name = ogonek;
position = "{594, 0}";
},
{
name = top;
position = "{285, 500}";
}
);
layerId = "2B88661E-23DD-4EDA-82FC-C2AEA983F097";
paths = (
{
closed = 1;
nodes = (
"151 340 OFFCURVE",
"162 350 OFFCURVE",
"162 366 CURVE SMOOTH",
"162 388 OFFCURVE",
"143 400 OFFCURVE",
"115 400 CURVE",
"119 387 LINE",
"118 454 OFFCURVE",
"200 484 OFFCURVE",
"286 484 CURVE SMOOTH",
"386 484 OFFCURVE",
"431 445 OFFCURVE",
"431 385 CURVE",
"458 376 LINE",
"458 465 OFFCURVE",
"396 507 OFFCURVE",
"289 507 CURVE SMOOTH",
"188 507 OFFCURVE",
"96 468 OFFCURVE",
"96 387 CURVE SMOOTH",
"96 356 OFFCURVE",
"114 340 OFFCURVE",
"134 340 CURVE SMOOTH"
);
},
{
closed = 1;
nodes = (
"579 -7 OFFCURVE",
"612 29 OFFCURVE",
"612 92 CURVE SMOOTH",
"612 264 LINE",
"589 264 LINE",
"589 92 LINE SMOOTH",
"589 47 OFFCURVE",
"567 16 OFFCURVE",
"524 16 CURVE SMOOTH",
"480 16 OFFCURVE",
"458 47 OFFCURVE",
"458 92 CURVE SMOOTH",
"458 376 LINE",
"431 385 LINE",
"431 353 LINE",
"426 321 LINE",
"431 321 LINE",
"431 151 LINE",
"434 151 LINE",
"434 92 LINE SMOOTH",
"434 29 OFFCURVE",
"468 -7 OFFCURVE",
"523 -7 CURVE SMOOTH"
);
},
{
closed = 1;
nodes = (
"357 -8 OFFCURVE",
"450 65 OFFCURVE",
"450 247 CURVE",
"431 247 LINE",
"431 79 OFFCURVE",
"341 16 OFFCURVE",
"235 16 CURVE SMOOTH",
"149 16 OFFCURVE",
"95 53 OFFCURVE",
"95 123 CURVE SMOOTH",
"95 198 OFFCURVE",
"159 224 OFFCURVE",
"236 238 CURVE SMOOTH",
"304 250 LINE SMOOTH",
"373 262 OFFCURVE",
"414 284 OFFCURVE",
"431 321 CURVE",
"435 321 LINE",
"431 385 LINE",
"431 312 OFFCURVE",
"368 287 OFFCURVE",
"298 275 CURVE SMOOTH",
"222 262 LINE SMOOTH",
"132 247 OFFCURVE",
"67 212 OFFCURVE",
"67 121 CURVE SMOOTH",
"67 39 OFFCURVE",
"133 -8 OFFCURVE",
"230 -8 CURVE SMOOTH"
);
}
);
width = 645;
}
);
leftKerningGroup = a;
rightKerningGroup = a;
unicode = 0061;
},
{
color = 8;
glyphname = ae;
lastChange = "2021-08-11 12:34:03 +0000";
layers = (
{
anchors = (
{
name = top;
position = "{423, 490}";
}
);
layerId = "1E61A082-F045-49A7-AB52-DD1B03FD9B54";
paths = (
{
closed = 1;
nodes = (
"133 323 OFFCURVE",
"142 332 OFFCURVE",
"142 348 CURVE SMOOTH",
"142 368 OFFCURVE",
"119 379 OFFCURVE",
"95 376 CURVE",
"103 369 LINE",
"100 451 OFFCURVE",
"173 480 OFFCURVE",
"255 480 CURVE SMOOTH",
"353 480 OFFCURVE",
"399 440 OFFCURVE",
"399 372 CURVE",
"420 364 LINE",
"420 457 OFFCURVE",
"358 497 OFFCURVE",
"255 497 CURVE SMOOTH",
"163 497 OFFCURVE",
"83 460 OFFCURVE",
"83 369 CURVE SMOOTH",
"83 340 OFFCURVE",
"98 323 OFFCURVE",
"118 323 CURVE SMOOTH"
);
},
{
closed = 1;
nodes = (
"420 364 LINE",
"399 372 LINE",
"399 346 LINE",
"395 320 LINE",
"399 320 LINE",
"399 187 LINE",
"407 190 LINE",
"420 190 LINE"
);
},
{
closed = 1;
nodes = (
"325 -7 OFFCURVE",
"413 64 OFFCURVE",
"414 225 CURVE",
"399 244 LINE",
"399 74 OFFCURVE",
"312 10 OFFCURVE",
"208 10 CURVE SMOOTH",
"132 10 OFFCURVE",
"77 49 OFFCURVE",
"77 116 CURVE SMOOTH",
"77 189 OFFCURVE",
"125 222 OFFCURVE",
"211 240 CURVE SMOOTH",
"281 255 LINE SMOOTH",
"351 270 OFFCURVE",
"382 285 OFFCURVE",
"399 320 CURVE",
"404 320 LINE",
"399 368 LINE",
"399 303 OFFCURVE",
"349 288 OFFCURVE",
"277 272 CURVE SMOOTH",
"204 256 LINE SMOOTH",
"116 237 OFFCURVE",
"55 201 OFFCURVE",
"55 116 CURVE SMOOTH",
"55 39 OFFCURVE",
"117 -7 OFFCURVE",
"206 -7 CURVE SMOOTH"
);
},
{
closed = 1;
nodes = (
"743 -7 OFFCURVE",
"796 97 OFFCURVE",
"802 173 CURVE",
"786 173 LINE",
"780 107 OFFCURVE",
"732 11 OFFCURVE",
"610 11 CURVE SMOOTH",
"497 11 OFFCURVE",
"421 99 OFFCURVE",
"421 245 CURVE SMOOTH",
"421 392 OFFCURVE",
"496 480 OFFCURVE",
"610 480 CURVE",
"610 497 LINE",
"485 497 OFFCURVE",
"401 406 OFFCURVE",
"401 245 CURVE SMOOTH",
"401 85 OFFCURVE",
"486 -7 OFFCURVE",
"610 -7 CURVE SMOOTH"
);
},
{
closed = 1;
nodes = (
"808 267 LINE",
"808 273 LINE",
"789 284 LINE",
"414 284 LINE",
"414 267 LINE"
);
},
{
closed = 1;
nodes = (
"808 405 OFFCURVE",
"739 497 OFFCURVE",
"610 497 CURVE",
"610 480 LINE",
"728 480 OFFCURVE",
"785 393 OFFCURVE",
"789 284 CURVE",
"808 273 LINE"
);
}
);
width = 862;
},
{
anchors = (
{
name = top;
position = "{459, 528}";
}
);
layerId = "219068EA-2B9B-40DC-949E-B60449C01B8A";
paths = (
{
closed = 1;
nodes = (
"224 330 OFFCURVE",
"256 360 OFFCURVE",
"257 402 CURVE SMOOTH",
"258 446 OFFCURVE",
"222 465 OFFCURVE",
"163 468 CURVE",
"159 385 LINE",
"180 427 OFFCURVE",
"223 457 OFFCURVE",
"277 457 CURVE SMOOTH",
"326 457 OFFCURVE",
"363 435 OFFCURVE",
"363 388 CURVE",
"500 345 LINE",
"501 474 OFFCURVE",
"428 539 OFFCURVE",
"288 539 CURVE SMOOTH",
"172 539 OFFCURVE",
"63 496 OFFCURVE",
"63 415 CURVE SMOOTH",
"63 357 OFFCURVE",
"113 330 OFFCURVE",
"168 330 CURVE SMOOTH"
);
},
{
closed = 1;
nodes = (
"500 345 LINE",
"363 388 LINE",
"363 342 LINE",
"356 296 LINE",
"361 296 LINE",
"361 172 LINE",
"390 172 LINE",
"500 151 LINE"
);
},
{
closed = 1;
nodes = (
"334 -12 OFFCURVE",
"405 50 OFFCURVE",
"410 160 CURVE",
"361 210 LINE",
"361 140 OFFCURVE",
"321 117 OFFCURVE",
"284 117 CURVE SMOOTH",
"251 117 OFFCURVE",
"225 136 OFFCURVE",
"225 171 CURVE SMOOTH",
"225 206 OFFCURVE",
"246 224 OFFCURVE",
"288 241 CURVE SMOOTH",
"305 248 LINE SMOOTH",
"333 260 OFFCURVE",
"351 275 OFFCURVE",
"361 296 CURVE",
"365 296 LINE",
"363 388 LINE",
"363 345 OFFCURVE",
"335 329 OFFCURVE",
"284 315 CURVE SMOOTH",
"196 291 LINE SMOOTH",
"102 265 OFFCURVE",
"39 225 OFFCURVE",
"39 132 CURVE SMOOTH",
"39 48 OFFCURVE",
"107 -12 OFFCURVE",
"219 -12 CURVE SMOOTH"
);
},
{
closed = 1;
nodes = (
"790 -12 OFFCURVE",
"865 93 OFFCURVE",
"871 200 CURVE",
"756 200 LINE",
"743 155 OFFCURVE",
"714 121 OFFCURVE",
"655 121 CURVE SMOOTH",
"584 121 OFFCURVE",
"539 181 OFFCURVE",
"539 277 CURVE SMOOTH",
"539 397 OFFCURVE",
"570 444 OFFCURVE",
"626 444 CURVE",
"630 540 LINE",
"484 540 OFFCURVE",
"379 441 OFFCURVE",
"379 264 CURVE SMOOTH",
"379 86 OFFCURVE",
"488 -12 OFFCURVE",
"641 -12 CURVE SMOOTH"
);
},
{
closed = 1;
nodes = (
"877 254 LINE",
"877 290 LINE",
"698 342 LINE",
"443 342 LINE",
"443 254 LINE"
);
},
{
closed = 1;
nodes = (
"877 438 OFFCURVE",
"786 540 OFFCURVE",
"630 540 CURVE",
"626 444 LINE",
"673 444 OFFCURVE",
"697 394 OFFCURVE",
"698 342 CURVE",
"877 290 LINE"
);
}
);
width = 926;
},
{
anchors = (
{
name = top;
position = "{429, 518}";
}
);
layerId = "0C29AA02-E021-4BD1-A2C4-87F681D64C35";
paths = (
{
closed = 1;
nodes = (
"213 310 OFFCURVE",
"248 341 OFFCURVE",
"248 385 CURVE SMOOTH",
"248 432 OFFCURVE",
"208 449 OFFCURVE",
"145 449 CURVE",
"145 393 LINE",
"165 430 OFFCURVE",
"200 458 OFFCURVE",
"252 458 CURVE SMOOTH",
"302 458 OFFCURVE",
"332 433 OFFCURVE",
"332 378 CURVE",
"469 345 LINE",
"470 468 OFFCURVE",
"405 530 OFFCURVE",
"273 530 CURVE SMOOTH",
"158 530 OFFCURVE",
"54 482 OFFCURVE",
"54 392 CURVE SMOOTH",
"54 336 OFFCURVE",
"101 310 OFFCURVE",
"154 310 CURVE SMOOTH"
);
},
{
closed = 1;
nodes = (
"469 345 LINE",
"332 378 LINE",
"332 332 LINE",
"325 287 LINE",
"330 287 LINE",
"330 164 LINE",
"372 166 LINE",
"469 145 LINE"
);
},
{
closed = 1;
nodes = (
"311 -12 OFFCURVE",
"374 68 OFFCURVE",
"372 166 CURVE",
"330 197 LINE",
"330 135 OFFCURVE",
"300 110 OFFCURVE",
"264 110 CURVE SMOOTH",
"233 110 OFFCURVE",
"210 131 OFFCURVE",
"210 166 CURVE SMOOTH",
"210 200 OFFCURVE",
"234 217 OFFCURVE",
"270 235 CURVE SMOOTH",
"284 242 LINE SMOOTH",
"308 254 OFFCURVE",
"323 268 OFFCURVE",
"330 287 CURVE",
"335 287 LINE",
"332 378 LINE",
"332 338 OFFCURVE",
"308 318 OFFCURVE",
"262 305 CURVE SMOOTH",
"180 281 LINE SMOOTH",
"91 255 OFFCURVE",
"26 213 OFFCURVE",
"26 126 CURVE SMOOTH",
"26 45 OFFCURVE",
"90 -12 OFFCURVE",
"196 -12 CURVE SMOOTH"
);
},
{
closed = 1;
nodes = (
"739 -12 OFFCURVE",
"817 95 OFFCURVE",
"820 223 CURVE",
"741 223 LINE",
"733 165 OFFCURVE",
"699 114 OFFCURVE",
"632 114 CURVE SMOOTH",
"554 114 OFFCURVE",
"511 175 OFFCURVE",
"511 285 CURVE SMOOTH",
"511 412 OFFCURVE",
"540 450 OFFCURVE",
"583 450 CURVE",
"589 530 LINE",
"446 530 OFFCURVE",
"344 427 OFFCURVE",
"344 254 CURVE SMOOTH",
"344 87 OFFCURVE",
"445 -12 OFFCURVE",
"590 -12 CURVE SMOOTH"
);
},
{
closed = 1;
nodes = (
"825 260 LINE",
"825 287 LINE",
"642 340 LINE",
"420 340 LINE",
"420 260 LINE"
);
},
{
closed = 1;
nodes = (
"825 428 OFFCURVE",
"742 530 OFFCURVE",
"589 530 CURVE",
"583 450 LINE",
"620 450 OFFCURVE",
"641 408 OFFCURVE",
"642 340 CURVE",
"825 287 LINE"
);
}
);
width = 857;
},
{
anchors = (
{
name = top;
position = "{458, 500}";
}
);
layerId = "2B88661E-23DD-4EDA-82FC-C2AEA983F097";
paths = (
{
closed = 1;
nodes = (
"151 340 OFFCURVE",
"162 350 OFFCURVE",
"162 366 CURVE SMOOTH",
"162 387 OFFCURVE",
"138 399 OFFCURVE",
"114 396 CURVE",
"121 387 LINE",
"120 454 OFFCURVE",
"200 484 OFFCURVE",
"286 484 CURVE SMOOTH",
"386 484 OFFCURVE",
"431 445 OFFCURVE",
"431 385 CURVE",
"456 377 LINE",
"456 466 OFFCURVE",
"396 507 OFFCURVE",
"289 507 CURVE SMOOTH",
"188 507 OFFCURVE",
"96 468 OFFCURVE",
"96 387 CURVE SMOOTH",
"96 357 OFFCURVE",
"113 340 OFFCURVE",
"134 340 CURVE SMOOTH"
);
},
{
closed = 1;
nodes = (
"456 377 LINE",
"431 385 LINE",
"431 353 LINE",
"426 319 LINE",
"431 319 LINE",
"431 199 LINE",
"440 200 LINE",
"456 199 LINE"
);
},
{
closed = 1;
nodes = (
"360 -8 OFFCURVE",
"451 65 OFFCURVE",
"450 247 CURVE",
"431 247 LINE",
"431 79 OFFCURVE",
"341 15 OFFCURVE",
"235 15 CURVE SMOOTH",
"149 15 OFFCURVE",
"95 53 OFFCURVE",
"95 119 CURVE SMOOTH",
"95 199 OFFCURVE",
"156 224 OFFCURVE",
"233 240 CURVE SMOOTH",
"311 256 LINE SMOOTH",
"376 269 OFFCURVE",
"414 284 OFFCURVE",
"431 319 CURVE",
"435 319 LINE",
"431 381 LINE",
"431 311 OFFCURVE",
"380 293 OFFCURVE",
"306 278 CURVE SMOOTH",
"222 261 LINE SMOOTH",
"132 243 OFFCURVE",
"67 208 OFFCURVE",
"67 117 CURVE SMOOTH",
"67 39 OFFCURVE",
"133 -8 OFFCURVE",
"230 -8 CURVE SMOOTH"
);
},
{
closed = 1;
nodes = (
"789 -7 OFFCURVE",
"841 85 OFFCURVE",
"853 149 CURVE",
"830 149 LINE",
"818 97 OFFCURVE",
"773 17 OFFCURVE",
"654 17 CURVE SMOOTH",
"533 17 OFFCURVE",
"458 104 OFFCURVE",
"458 250 CURVE SMOOTH",
"458 397 OFFCURVE",
"533 484 OFFCURVE",
"654 484 CURVE",
"654 507 LINE",
"520 507 OFFCURVE",
"433 414 OFFCURVE",
"433 250 CURVE SMOOTH",
"433 86 OFFCURVE",
"519 -7 OFFCURVE",
"653 -7 CURVE SMOOTH"
);
},
{
closed = 1;
nodes = (
"862 267 LINE",
"862 278 LINE",
"838 290 LINE",
"447 290 LINE",
"447 267 LINE"
);
},
{
closed = 1;
nodes = (
"862 413 OFFCURVE",
"788 507 OFFCURVE",
"654 507 CURVE",
"654 484 LINE",
"775 484 OFFCURVE",
"833 398 OFFCURVE",
"838 290 CURVE",
"862 278 LINE"
);
}
);
width = 926;
}
);
leftKerningGroup = a;
leftMetricsKey = a;
rightKerningGroup = o;
rightMetricsKey = e;
unicode = 00E6;
},
{
color = 8;
glyphname = b;
lastChange = "2021-08-16 10:25:10 +0000";
layers = (
{
anchors = (
{
name = bottom;
position = "{296, 0}";
},
{
name = top;
position = "{296, 682}";
}
);
hints = (
{
origin = "{2, 5}";
scale = "{-0.9, 1}";
type = Corner;
name = _corner.Serif;
}
);
layerId = "1E61A082-F045-49A7-AB52-DD1B03FD9B54";
paths = (
{
closed = 1;
nodes = (
"446 -10 OFFCURVE",
"534 85 OFFCURVE",
"534 245 CURVE SMOOTH",
"534 406 OFFCURVE",
"446 500 OFFCURVE",
"320 500 CURVE SMOOTH",
"190 500 OFFCURVE",
"112 406 OFFCURVE",
"112 246 CURVE",
"112 244 LINE",
"112 84 OFFCURVE",
"190 -10 OFFCURVE",
"320 -10 CURVE SMOOTH"
);
},
{
closed = 1;
nodes = (
"205 7 OFFCURVE",
"123 97 OFFCURVE",
"123 245 CURVE SMOOTH",
"123 395 OFFCURVE",
"205 483 OFFCURVE",
"320 483 CURVE SMOOTH",
"432 483 OFFCURVE",
"512 395 OFFCURVE",
"512 245 CURVE SMOOTH",
"512 97 OFFCURVE",
"432 7 OFFCURVE",
"320 7 CURVE SMOOTH"
);
},
{
closed = 1;
nodes = (
"123 0 LINE",
"123 174 LINE",
"116 245 LINE",
"125 335 LINE",
"125 682 LINE",
"103 682 LINE",
"103 0 LINE"
);
}
);
width = 586;
},
{
anchors = (
{
name = bottom;
position = "{353, 0}";
},
{
name = top;
position = "{353, 718}";
}
);
hints = (
{
origin = "{2, 5}";
scale = "{-0.9, 0.96933}";
type = Corner;
name = _corner.Serif;
}
);
layerId = "219068EA-2B9B-40DC-949E-B60449C01B8A";
paths = (
{
closed = 1;
nodes = (
"568 -10 OFFCURVE",
"666 88 OFFCURVE",
"666 264 CURVE SMOOTH",
"666 439 OFFCURVE",
"568 538 OFFCURVE",
"427 538 CURVE SMOOTH",
"279 538 OFFCURVE",
"232 435 OFFCURVE",
"232 265 CURVE",
"219 263 LINE",
"219 97 OFFCURVE",
"279 -10 OFFCURVE",
"425 -10 CURVE SMOOTH"
);
},
{
closed = 1;
nodes = (
"290 105 OFFCURVE",
"250 159 OFFCURVE",
"250 264 CURVE SMOOTH",
"250 368 OFFCURVE",
"290 423 OFFCURVE",
"360 423 CURVE SMOOTH",
"430 423 OFFCURVE",
"470 368 OFFCURVE",
"470 264 CURVE SMOOTH",
"470 159 OFFCURVE",
"430 105 OFFCURVE",
"360 105 CURVE SMOOTH"
);
},
{
closed = 1;
nodes = (
"245 0 LINE",
"245 119 LINE",
"235 264 LINE",
"259 381 LINE",
"259 718 LINE",
"77 718 LINE",
"77 0 LINE"
);
}
);
width = 711;
},
{
anchors = (
{
name = bottom;
position = "{322, 0}";
},
{
name = top;
position = "{322, 682}";
}
);
hints = (
{
origin = "{2, 5}";
scale = "{-0.9, 0.96933}";
type = Corner;
name = _corner.Serif;
}
);
layerId = "0C29AA02-E021-4BD1-A2C4-87F681D64C35";
paths = (
{
closed = 1;
nodes = (
"533 -10 OFFCURVE",
"622 82 OFFCURVE",
"622 259 CURVE SMOOTH",
"622 436 OFFCURVE",
"533 528 OFFCURVE",
"401 528 CURVE SMOOTH",
"254 528 OFFCURVE",
"211 418 OFFCURVE",
"211 260 CURVE",
"201 258 LINE",
"200 105 OFFCURVE",
"254 -10 OFFCURVE",
"400 -10 CURVE SMOOTH"
);
},
{
closed = 1;
nodes = (
"270 90 OFFCURVE",
"236 148 OFFCURVE",
"236 259 CURVE SMOOTH",
"236 370 OFFCURVE",
"270 428 OFFCURVE",
"331 428 CURVE SMOOTH",
"392 428 OFFCURVE",
"426 370 OFFCURVE",
"426 259 CURVE SMOOTH",
"426 148 OFFCURVE",
"392 90 OFFCURVE",
"331 90 CURVE SMOOTH"
);
},
{
closed = 1;
nodes = (
"232 0 LINE",
"232 119 LINE",
"218 264 LINE",
"246 381 LINE",
"246 682 LINE",
"64 682 LINE",
"64 0 LINE"
);
}
);
width = 660;
},
{
anchors = (
{
name = bottom;
position = "{325, 0}";
},
{
name = top;
position = "{325, 710}";
}
);
hints = (
{
origin = "{2, 5}";
scale = "{-0.9, 1}";
type = Corner;
name = _corner.Serif;
}
);
layerId = "2B88661E-23DD-4EDA-82FC-C2AEA983F097";
paths = (
{
closed = 1;
nodes = (
"495 -8 OFFCURVE",
"592 90 OFFCURVE",
"592 250 CURVE SMOOTH",
"592 410 OFFCURVE",
"495 508 OFFCURVE",
"360 508 CURVE SMOOTH",
"215 508 OFFCURVE",
"129 410 OFFCURVE",
"129 251 CURVE",
"129 249 LINE",
"129 90 OFFCURVE",
"215 -8 OFFCURVE",
"360 -8 CURVE SMOOTH"
);
},
{
closed = 1;
nodes = (
"235 15 OFFCURVE",
"147 103 OFFCURVE",
"147 250 CURVE SMOOTH",
"147 397 OFFCURVE",
"235 485 OFFCURVE",
"357 485 CURVE SMOOTH",
"479 485 OFFCURVE",
"564 397 OFFCURVE",
"564 250 CURVE SMOOTH",
"564 103 OFFCURVE",
"479 15 OFFCURVE",
"357 15 CURVE SMOOTH"
);
},
{
closed = 1;
nodes = (
"146 0 LINE",
"146 150 LINE",
"135 250 LINE",
"149 340 LINE",
"149 710 LINE",
"121 710 LINE",
"121 0 LINE"
);
}
);
width = 656;
}
);
leftKerningGroup = b;
rightKerningGroup = o;
rightMetricsKey = p;
unicode = 0062;
},
{
color = 8;
glyphname = c;
lastChange = "2021-08-16 10:18:48 +0000";
layers = (
{
anchors = (
{
name = bottom;
position = "{278, 0}";
},
{
name = top;
position = "{282, 490}";
}
);
layerId = "1E61A082-F045-49A7-AB52-DD1B03FD9B54";
rightMetricsKey = "=o-14";
paths = (
{
closed = 1;
nodes = (
"413 -9 OFFCURVE",
"472 88 OFFCURVE",
"479 185 CURVE",
"463 185 LINE",
"457 103 OFFCURVE",
"403 9 OFFCURVE",
"278 9 CURVE SMOOTH",
"160 9 OFFCURVE",
"82 98 OFFCURVE",
"82 245 CURVE SMOOTH",
"82 394 OFFCURVE",
"164 483 OFFCURVE",
"285 483 CURVE",
"285 500 LINE",
"152 500 OFFCURVE",
"60 408 OFFCURVE",
"60 245 CURVE SMOOTH",
"60 83 OFFCURVE",
"149 -9 OFFCURVE",
"278 -9 CURVE SMOOTH"
);
},
{
closed = 1;
nodes = (
"459 307 OFFCURVE",
"471 320 OFFCURVE",
"471 350 CURVE SMOOTH",
"471 425 OFFCURVE",
"412 500 OFFCURVE",
"285 500 CURVE",
"285 483 LINE",
"404 483 OFFCURVE",
"456 414 OFFCURVE",
"454 348 CURVE",
"459 358 LINE",
"437 361 OFFCURVE",
"415 352 OFFCURVE",
"415 331 CURVE SMOOTH",
"415 316 OFFCURVE",
"424 307 OFFCURVE",
"439 307 CURVE SMOOTH"
);
}
);
width = 525;
},
{
anchors = (
{
name = bottom;
position = "{317, 0}";
},
{
name = top;
position = "{320, 528}";
}
);
layerId = "219068EA-2B9B-40DC-949E-B60449C01B8A";
rightMetricsKey = "=o+6";
paths = (
{
closed = 1;
nodes = (
"473 -12 OFFCURVE",
"566 84 OFFCURVE",
"569 212 CURVE",
"465 212 LINE",
"455 164 OFFCURVE",
"417 126 OFFCURVE",
"356 126 CURVE SMOOTH",
"266 126 OFFCURVE",
"216 194 OFFCURVE",
"216 290 CURVE SMOOTH",
"216 385 OFFCURVE",
"267 448 OFFCURVE",
"350 448 CURVE",
"326 538 LINE",
"156 538 OFFCURVE",
"35 445 OFFCURVE",
"35 264 CURVE SMOOTH",
"35 83 OFFCURVE",
"153 -12 OFFCURVE",
"318 -12 CURVE SMOOTH"
);
},
{
closed = 1;
nodes = (
"517 310 OFFCURVE",
"561 342 OFFCURVE",
"561 397 CURVE SMOOTH",
"561 478 OFFCURVE",
"468 538 OFFCURVE",
"326 538 CURVE",
"350 448 LINE",
"402 448 OFFCURVE",
"429 430 OFFCURVE",
"464 392 CURVE",
"461 455 LINE",
"400 455 OFFCURVE",
"363 430 OFFCURVE",
"363 385 CURVE SMOOTH",
"363 341 OFFCURVE",
"398 310 OFFCURVE",
"457 310 CURVE SMOOTH"
);
}
);
width = 610;
},
{
anchors = (
{
name = bottom;
position = "{291, 0}";
},
{
name = top;
position = "{296, 518}";
}
);
layerId = "0C29AA02-E021-4BD1-A2C4-87F681D64C35";
rightMetricsKey = "=o+7";
paths = (
{
closed = 1;
nodes = (
"447 -14 OFFCURVE",
"529 83 OFFCURVE",
"532 222 CURVE",
"453 222 LINE",
"444 168 OFFCURVE",
"404 122 OFFCURVE",
"335 122 CURVE SMOOTH",
"250 122 OFFCURVE",
"202 190 OFFCURVE",
"202 286 CURVE SMOOTH",
"202 384 OFFCURVE",
"244 457 OFFCURVE",
"336 457 CURVE",
"300 529 LINE",
"134 529 OFFCURVE",
"24 434 OFFCURVE",
"24 260 CURVE SMOOTH",
"24 83 OFFCURVE",
"134 -14 OFFCURVE",
"292 -14 CURVE SMOOTH"
);
},
{
closed = 1;
nodes = (
"487 280 OFFCURVE",
"527 317 OFFCURVE",
"527 375 CURVE SMOOTH",
"527 459 OFFCURVE",
"430 529 OFFCURVE",
"300 529 CURVE",
"336 457 LINE",
"397 457 OFFCURVE",
"432 427 OFFCURVE",
"450 387 CURVE",
"449 438 LINE",
"376 438 OFFCURVE",
"330 413 OFFCURVE",
"330 358 CURVE SMOOTH",
"330 311 OFFCURVE",
"368 280 OFFCURVE",
"425 280 CURVE SMOOTH"
);
}
);
width = 563;
},
{
anchors = (
{
name = bottom;
position = "{303, 0}";
},
{
name = top;
position = "{310, 500}";
}
);
layerId = "2B88661E-23DD-4EDA-82FC-C2AEA983F097";
paths = (
{
closed = 1;
nodes = (
"450 -9 OFFCURVE",
"510 95 OFFCURVE",
"515 166 CURVE",
"492 166 LINE",
"487 110 OFFCURVE",
"433 16 OFFCURVE",
"304 16 CURVE SMOOTH",
"178 16 OFFCURVE",
"92 105 OFFCURVE",
"92 251 CURVE SMOOTH",
"92 399 OFFCURVE",
"181 489 OFFCURVE",
"312 489 CURVE",
"311 512 LINE",
"166 512 OFFCURVE",
"64 416 OFFCURVE",
"64 250 CURVE SMOOTH",
"64 85 OFFCURVE",
"163 -9 OFFCURVE",
"303 -9 CURVE SMOOTH"
);
},
{
closed = 1;
nodes = (
"495 314 OFFCURVE",
"509 333 OFFCURVE",
"509 363 CURVE SMOOTH",
"509 432 OFFCURVE",
"444 512 OFFCURVE",
"311 512 CURVE",
"312 489 LINE",
"433 489 OFFCURVE",
"486 419 OFFCURVE",
"486 361 CURVE",
"494 376 LINE",
"469 376 OFFCURVE",
"445 366 OFFCURVE",
"445 341 CURVE SMOOTH",
"445 325 OFFCURVE",
"456 314 OFFCURVE",
"473 314 CURVE SMOOTH"
);
}
);
width = 579;
}
);
leftKerningGroup = o;
leftMetricsKey = o;
rightKerningGroup = c;
rightMetricsKey = o;
unicode = 0063;
},
{
color = 8;
glyphname = d;
lastChange = "2021-08-16 10:25:20 +0000";
layers = (
{
anchors = (
{
name = bottom;
position = "{292, 0}";
},
{
name = center;
position = "{294, 245}";
},
{
name = top;
position = "{294, 682}";
},
{
name = topright;
position = "{483, 682}";
}
);
hints = (
{
origin = "{2, 0}";
scale = "{-0.9, 1}";
type = Corner;
name = _corner.Serif;
},
{
origin = "{2, 2}";
scale = "{-0.9, 1}";
type = Corner;
name = _corner.Serif;
}
);
layerId = "1E61A082-F045-49A7-AB52-DD1B03FD9B54";
paths = (
{
closed = 1;
nodes = (
"396 -10 OFFCURVE",
"474 84 OFFCURVE",
"474 244 CURVE",
"474 246 LINE",
"474 406 OFFCURVE",
"396 500 OFFCURVE",
"266 500 CURVE SMOOTH",
"140 500 OFFCURVE",
"52 406 OFFCURVE",
"52 245 CURVE SMOOTH",
"52 85 OFFCURVE",
"140 -10 OFFCURVE",
"266 -10 CURVE SMOOTH"
);
},
{
closed = 1;
nodes = (
"153 7 OFFCURVE",
"74 97 OFFCURVE",
"74 245 CURVE SMOOTH",
"74 394 OFFCURVE",
"153 483 OFFCURVE",
"266 483 CURVE SMOOTH",
"381 483 OFFCURVE",
"463 394 OFFCURVE",
"463 245 CURVE SMOOTH",
"463 97 OFFCURVE",
"381 7 OFFCURVE",
"266 7 CURVE SMOOTH"
);
},
{
closed = 1;
nodes = (
"483 0 LINE",
"483 682 LINE",
"461 682 LINE",
"461 335 LINE",
"468 245 LINE",
"463 168 LINE",
"463 0 LINE"
);
}
);
width = 597;
},
{
anchors = (
{
name = bottom;
position = "{387, 0}";
},
{
name = center;
position = "{365, 264}";
},
{
name = top;
position = "{365, 718}";
},
{
name = topright;
position = "{635, 718}";
}
);
hints = (
{
origin = "{2, 2}";
scale = "{-0.92, 0.98}";
type = Corner;
name = _corner.Serif;
},
{
origin = "{2, 0}";
scale = "{-0.92, 0.98}";
type = Corner;
name = _corner.Serif;
}
);
layerId = "219068EA-2B9B-40DC-949E-B60449C01B8A";
paths = (
{
closed = 1;
nodes = (
"433 -10 OFFCURVE",
"493 97 OFFCURVE",
"493 263 CURVE",
"480 265 LINE",
"480 435 OFFCURVE",
"433 538 OFFCURVE",
"285 538 CURVE SMOOTH",
"144 538 OFFCURVE",
"45 439 OFFCURVE",
"45 264 CURVE SMOOTH",
"45 88 OFFCURVE",
"144 -10 OFFCURVE",
"286 -10 CURVE SMOOTH"
);
},
{
closed = 1;
nodes = (
"282 105 OFFCURVE",
"241 159 OFFCURVE",
"241 264 CURVE SMOOTH",
"241 368 OFFCURVE",
"282 423 OFFCURVE",
"351 423 CURVE SMOOTH",
"421 423 OFFCURVE",
"462 368 OFFCURVE",
"462 264 CURVE SMOOTH",
"462 159 OFFCURVE",
"421 105 OFFCURVE",
"351 105 CURVE SMOOTH"
);
},
{
closed = 1;
nodes = (
"635 0 LINE",
"635 718 LINE",
"453 718 LINE",
"453 381 LINE",
"477 264 LINE",
"467 127 LINE",
"467 0 LINE"
);
}
);
width = 730;
},
{
anchors = (
{
name = bottom;
position = "{357, 0}";
},
{
name = center;
position = "{345, 259}";
},
{
name = top;
position = "{345, 682}";
},
{
name = topright;
position = "{596, 682}";
}
);
hints = (
{
origin = "{2, 0}";
scale = "{-0.92, 0.98}";
type = Corner;
name = _corner.Serif;
},
{
origin = "{2, 2}";
scale = "{-0.96, 0.98}";
type = Corner;
name = _corner.Serif;
}
);
layerId = "0C29AA02-E021-4BD1-A2C4-87F681D64C35";
paths = (
{
closed = 1;
nodes = (
"406 -10 OFFCURVE",
"460 105 OFFCURVE",
"459 258 CURVE",
"449 260 LINE",
"449 418 OFFCURVE",
"406 528 OFFCURVE",
"259 528 CURVE SMOOTH",
"127 528 OFFCURVE",
"38 436 OFFCURVE",
"38 259 CURVE SMOOTH",
"38 82 OFFCURVE",
"127 -10 OFFCURVE",
"260 -10 CURVE SMOOTH"
);
},
{
closed = 1;
nodes = (
"268 90 OFFCURVE",
"234 148 OFFCURVE",
"234 259 CURVE SMOOTH",
"234 370 OFFCURVE",
"268 428 OFFCURVE",
"329 428 CURVE SMOOTH",
"390 428 OFFCURVE",
"424 370 OFFCURVE",
"424 259 CURVE SMOOTH",
"424 148 OFFCURVE",
"390 90 OFFCURVE",
"329 90 CURVE SMOOTH"
);
},
{
closed = 1;
nodes = (
"596 0 LINE",
"596 682 LINE",
"414 682 LINE",
"414 381 LINE",
"443 264 LINE",
"428 127 LINE",
"428 0 LINE"
);
}
);
width = 679;
},
{
anchors = (
{
name = bottom;
position = "{333, 0}";
},
{
name = center;
position = "{333, 250}";
},
{
name = top;
position = "{333, 710}";
},
{
name = topright;
position = "{535, 710}";
}
);
hints = (
{
origin = "{2, 2}";
scale = "{-0.9, 1}";
type = Corner;
name = _corner.Serif;
},
{
origin = "{2, 0}";
scale = "{-0.9, 1}";
type = Corner;
name = _corner.Serif;
}
);
layerId = "2B88661E-23DD-4EDA-82FC-C2AEA983F097";
paths = (
{
closed = 1;
nodes = (
"440 -8 OFFCURVE",
"527 90 OFFCURVE",
"527 249 CURVE",
"527 251 LINE",
"527 410 OFFCURVE",
"440 508 OFFCURVE",
"296 508 CURVE SMOOTH",
"161 508 OFFCURVE",
"64 410 OFFCURVE",
"64 250 CURVE SMOOTH",
"64 90 OFFCURVE",
"161 -8 OFFCURVE",
"296 -8 CURVE SMOOTH"
);
},
{
closed = 1;
nodes = (
"177 15 OFFCURVE",
"92 103 OFFCURVE",
"92 250 CURVE SMOOTH",
"92 397 OFFCURVE",
"177 485 OFFCURVE",
"299 485 CURVE SMOOTH",
"422 485 OFFCURVE",
"509 397 OFFCURVE",
"509 250 CURVE SMOOTH",
"509 103 OFFCURVE",
"422 15 OFFCURVE",
"299 15 CURVE SMOOTH"
);
},
{
closed = 1;
nodes = (
"535 0 LINE",
"535 710 LINE",
"507 710 LINE",
"507 340 LINE",
"521 250 LINE",
"510 151 LINE",
"510 0 LINE"
);
}
);
width = 658;
}
);
leftKerningGroup = o;
leftMetricsKey = q;
rightKerningGroup = l;
rightMetricsKey = l;
unicode = 0064;
},
{
color = 8;
glyphname = eth;
lastChange = "2021-08-11 12:33:53 +0000";
layers = (
{
layerId = "1E61A082-F045-49A7-AB52-DD1B03FD9B54";
paths = (
{
closed = 1;
nodes = (
"418 -8 OFFCURVE",
"511 85 OFFCURVE",
"511 255 CURVE SMOOTH",
"511 461 OFFCURVE",
"418 619 OFFCURVE",
"236 725 CURVE",
"225 709 LINE",
"377 620 OFFCURVE",
"492 480 OFFCURVE",
"492 245 CURVE",
"489 245 LINE",
"489 99 OFFCURVE",
"407 9 OFFCURVE",
"286 9 CURVE SMOOTH",
"165 9 OFFCURVE",
"82 99 OFFCURVE",
"82 245 CURVE SMOOTH",
"82 392 OFFCURVE",
"165 481 OFFCURVE",
"286 481 CURVE SMOOTH",
"407 481 OFFCURVE",
"489 392 OFFCURVE",
"489 245 CURVE",
"501 245 LINE",
"501 416 OFFCURVE",
"413 498 OFFCURVE",
"286 498 CURVE SMOOTH",
"153 498 OFFCURVE",
"60 406 OFFCURVE",
"60 245 CURVE SMOOTH",
"60 85 OFFCURVE",
"153 -8 OFFCURVE",
"286 -8 CURVE SMOOTH"
);
},
{
closed = 1;
nodes = (
"517 637 LINE",
"517 654 LINE",
"199 581 LINE",
"199 565 LINE"
);
}
);
width = 577;
},
{
layerId = "219068EA-2B9B-40DC-949E-B60449C01B8A";
paths = (
{
closed = 1;
nodes = (
"526 -12 OFFCURVE",
"629 103 OFFCURVE",
"629 300 CURVE SMOOTH",
"629 526 OFFCURVE",
"488 705 OFFCURVE",
"290 791 CURVE",
"238 715 LINE",
"373 618 OFFCURVE",
"448 494 OFFCURVE",
"441 248 CURVE",
"433 248 LINE",
"433 146 OFFCURVE",
"393 88 OFFCURVE",
"329 88 CURVE SMOOTH",
"265 88 OFFCURVE",
"226 143 OFFCURVE",
"226 241 CURVE SMOOTH",
"226 337 OFFCURVE",
"265 394 OFFCURVE",
"329 394 CURVE SMOOTH",
"394 394 OFFCURVE",
"433 346 OFFCURVE",
"433 248 CURVE",
"457 248 LINE",
"457 438 OFFCURVE",
"385 503 OFFCURVE",
"269 503 CURVE SMOOTH",
"127 503 OFFCURVE",
"35 411 OFFCURVE",
"35 253 CURVE SMOOTH",
"35 83 OFFCURVE",
"145 -12 OFFCURVE",
"329 -12 CURVE SMOOTH"
);
},
{
closed = 1;
nodes = (
"600 612 LINE",
"600 693 LINE",
"178 630 LINE",
"178 549 LINE"
);
}
);
width = 664;
},
{
layerId = "0C29AA02-E021-4BD1-A2C4-87F681D64C35";
rightMetricsKey = "=o+12";
paths = (
{
closed = 1;
nodes = (
"493 -12 OFFCURVE",
"583 110 OFFCURVE",
"583 300 CURVE SMOOTH",
"583 524 OFFCURVE",
"446 675 OFFCURVE",
"243 779 CURVE",
"196 716 LINE",
"346 588 OFFCURVE",
"404 470 OFFCURVE",
"402 257 CURVE",
"395 251 LINE",
"395 127 OFFCURVE",
"360 67 OFFCURVE",
"306 67 CURVE SMOOTH",
"251 67 OFFCURVE",
"216 123 OFFCURVE",
"216 244 CURVE SMOOTH",
"216 367 OFFCURVE",
"251 420 OFFCURVE",
"306 420 CURVE SMOOTH",
"360 420 OFFCURVE",
"395 372 OFFCURVE",
"395 251 CURVE",
"411 250 LINE",
"411 448 OFFCURVE",
"364 507 OFFCURVE",
"236 507 CURVE SMOOTH",
"107 507 OFFCURVE",
"24 410 OFFCURVE",
"24 257 CURVE SMOOTH",
"24 93 OFFCURVE",
"120 -12 OFFCURVE",
"301 -12 CURVE SMOOTH"
);
},
{
closed = 1;
nodes = (
"547 610 LINE",
"547 682 LINE",
"149 626 LINE",
"149 553 LINE"
);
}
);
width = 619;
},
{
layerId = "2B88661E-23DD-4EDA-82FC-C2AEA983F097";
paths = (
{
closed = 1;
nodes = (
"441 -7 OFFCURVE",
"537 87 OFFCURVE",
"537 260 CURVE SMOOTH",
"537 468 OFFCURVE",
"439 626 OFFCURVE",
"251 732 CURVE",
"239 712 LINE",
"395 623 OFFCURVE",
"514 483 OFFCURVE",
"514 250 CURVE",
"509 250 LINE",
"509 105 OFFCURVE",
"425 16 OFFCURVE",
"301 16 CURVE SMOOTH",
"177 16 OFFCURVE",
"92 104 OFFCURVE",
"92 250 CURVE SMOOTH",
"92 395 OFFCURVE",
"177 484 OFFCURVE",
"301 484 CURVE SMOOTH",
"425 484 OFFCURVE",
"509 396 OFFCURVE",
"509 250 CURVE",
"525 250 LINE",
"525 424 OFFCURVE",
"433 507 OFFCURVE",
"299 507 CURVE SMOOTH",
"163 507 OFFCURVE",
"64 414 OFFCURVE",
"64 250 CURVE SMOOTH",
"64 90 OFFCURVE",
"161 -7 OFFCURVE",
"301 -7 CURVE SMOOTH"
);
},
{
closed = 1;
nodes = (
"533 638 LINE",
"533 661 LINE",
"212 589 LINE",
"212 566 LINE"
);
}
);
width = 601;
}
);
leftKerningGroup = o;
leftMetricsKey = o;
rightMetricsKey = o;
unicode = 00F0;
},
{
color = 8;
glyphname = dcroat;
lastChange = "2021-08-11 20:51:36 +0000";
layers = (
{
anchors = (
{
name = bottom;
position = "{299, 0}";
}
);
hints = (
{
origin = "{2, 0}";
scale = "{-0.9, 1}";
type = Corner;
name = _corner.Serif;
}
);
layerId = "1E61A082-F045-49A7-AB52-DD1B03FD9B54";
paths = (
{
closed = 1;
nodes = (
"400 -10 OFFCURVE",
"474 85 OFFCURVE",
"474 242 CURVE",
"474 244 LINE",
"474 401 OFFCURVE",
"399 496 OFFCURVE",
"266 496 CURVE SMOOTH",
"140 496 OFFCURVE",
"52 403 OFFCURVE",
"52 243 CURVE SMOOTH",
"52 84 OFFCURVE",
"140 -10 OFFCURVE",
"266 -10 CURVE SMOOTH"
);
},
{
closed = 1;
nodes = (
"153 7 OFFCURVE",
"74 96 OFFCURVE",
"74 243 CURVE SMOOTH",
"74 391 OFFCURVE",
"153 479 OFFCURVE",
"266 479 CURVE SMOOTH",
"381 479 OFFCURVE",
"463 391 OFFCURVE",
"463 243 CURVE SMOOTH",
"463 96 OFFCURVE",
"381 7 OFFCURVE",
"266 7 CURVE SMOOTH"
);
},
{
closed = 1;
nodes = (
"483 0 LINE",
"483 682 LINE",
"461 682 LINE",
"461 335 LINE",
"468 245 LINE",
"463 178 LINE",
"463 0 LINE"
);
},
{
closed = 1;
nodes = (
"577 585 LINE",
"577 601 LINE",
"308 601 LINE",
"308 585 LINE"
);
}
);
width = 597;
},
{
anchors = (
{
name = bottom;
position = "{387, 0}";
}
);
hints = (
{
origin = "{2, 0}";
scale = "{-0.92, 0.98}";
type = Corner;
name = _corner.Serif;
}
);
layerId = "219068EA-2B9B-40DC-949E-B60449C01B8A";
paths = (
{
closed = 1;
nodes = (
"433 -10 OFFCURVE",
"493 93 OFFCURVE",
"493 254 CURVE",
"480 256 LINE",
"480 421 OFFCURVE",
"433 520 OFFCURVE",
"285 520 CURVE SMOOTH",
"144 520 OFFCURVE",
"45 425 OFFCURVE",
"45 255 CURVE SMOOTH",
"45 85 OFFCURVE",
"144 -10 OFFCURVE",
"286 -10 CURVE SMOOTH"
);
},
{
closed = 1;
nodes = (
"282 105 OFFCURVE",
"241 157 OFFCURVE",
"241 255 CURVE SMOOTH",
"241 353 OFFCURVE",
"282 406 OFFCURVE",
"351 406 CURVE SMOOTH",
"421 406 OFFCURVE",
"462 353 OFFCURVE",
"462 255 CURVE SMOOTH",
"462 157 OFFCURVE",
"421 105 OFFCURVE",
"351 105 CURVE SMOOTH"
);
},
{
closed = 1;
nodes = (
"635 0 LINE",
"635 718 LINE",
"453 718 LINE",
"453 381 LINE",
"477 264 LINE",
"467 127 LINE",
"467 0 LINE"
);
},
{
closed = 1;
nodes = (
"698 580 LINE",
"698 652 LINE",
"331 652 LINE",
"331 580 LINE"
);
}
);
width = 730;
},
{
anchors = (
{
name = bottom;
position = "{368, 0}";
}
);
hints = (
{
origin = "{2, 0}";
scale = "{-0.92, 0.98}";
type = Corner;
name = _corner.Serif;
}
);
layerId = "0C29AA02-E021-4BD1-A2C4-87F681D64C35";
paths = (
{
closed = 1;
nodes = (
"406 -10 OFFCURVE",
"459 100 OFFCURVE",
"458 248 CURVE",
"448 250 LINE",
"448 401 OFFCURVE",
"406 507 OFFCURVE",
"258 507 CURVE SMOOTH",
"127 507 OFFCURVE",
"38 419 OFFCURVE",
"38 249 CURVE SMOOTH",
"38 78 OFFCURVE",
"127 -10 OFFCURVE",
"260 -10 CURVE SMOOTH"
);
},
{
closed = 1;
nodes = (
"268 90 OFFCURVE",
"234 145 OFFCURVE",
"234 249 CURVE SMOOTH",
"234 352 OFFCURVE",
"268 407 OFFCURVE",
"329 407 CURVE SMOOTH",
"390 407 OFFCURVE",
"424 352 OFFCURVE",
"424 249 CURVE SMOOTH",
"424 145 OFFCURVE",
"390 90 OFFCURVE",
"329 90 CURVE SMOOTH"
);
},
{
closed = 1;
nodes = (
"596 0 LINE",
"596 682 LINE",
"414 682 LINE",
"414 381 LINE",
"443 264 LINE",
"428 127 LINE",
"428 0 LINE"
);
},
{
closed = 1;
nodes = (
"663 564 LINE",
"663 626 LINE",
"323 626 LINE",
"323 564 LINE"
);
}
);
width = 679;
},
{
anchors = (
{
name = bottom;
position = "{340, 0}";
}
);
hints = (
{
origin = "{2, 0}";
scale = "{-0.9, 1}";
type = Corner;
name = _corner.Serif;
}
);
layerId = "2B88661E-23DD-4EDA-82FC-C2AEA983F097";
paths = (
{
closed = 1;
nodes = (
"440 -8 OFFCURVE",
"527 88 OFFCURVE",
"527 245 CURVE",
"527 247 LINE",
"527 404 OFFCURVE",
"440 500 OFFCURVE",
"296 500 CURVE SMOOTH",
"161 500 OFFCURVE",
"64 404 OFFCURVE",
"64 246 CURVE SMOOTH",
"64 88 OFFCURVE",
"161 -8 OFFCURVE",
"296 -8 CURVE SMOOTH"
);
},
{
closed = 1;
nodes = (
"177 15 OFFCURVE",
"92 102 OFFCURVE",
"92 246 CURVE SMOOTH",
"92 390 OFFCURVE",
"177 477 OFFCURVE",
"299 477 CURVE SMOOTH",
"422 477 OFFCURVE",
"509 390 OFFCURVE",
"509 246 CURVE SMOOTH",
"509 102 OFFCURVE",
"422 15 OFFCURVE",
"299 15 CURVE SMOOTH"
);
},
{
closed = 1;
nodes = (
"535 0 LINE",
"535 710 LINE",
"507 710 LINE",
"507 340 LINE",
"521 250 LINE",
"510 151 LINE",
"510 0 LINE"
);
},
{
closed = 1;
nodes = (
"622 596 LINE",
"622 618 LINE",
"341 618 LINE",
"341 596 LINE"
);
}
);
width = 658;
}
);
leftKerningGroup = o;
leftMetricsKey = d;
rightKerningGroup = l;
rightMetricsKey = d;
unicode = 0111;
},
{
color = 8;
glyphname = e;
lastChange = "2021-08-16 10:24:06 +0000";
layers = (
{
anchors = (
{
name = bottom;
position = "{280, 0}";
},
{
name = ogonek;
position = "{387, 0}";
},
{
name = top;
position = "{280, 490}";
}
);
layerId = "1E61A082-F045-49A7-AB52-DD1B03FD9B54";
rightMetricsKey = "=o-6";
paths = (
{
closed = 1;
nodes = (
"420 -7 OFFCURVE",
"476 97 OFFCURVE",
"483 173 CURVE",
"467 173 LINE",
"461 106 OFFCURVE",
"409 11 OFFCURVE",
"280 11 CURVE SMOOTH",
"162 11 OFFCURVE",
"82 98 OFFCURVE",
"82 245 CURVE SMOOTH",
"82 392 OFFCURVE",
"161 480 OFFCURVE",
"280 480 CURVE",
"280 497 LINE",
"149 497 OFFCURVE",
"60 406 OFFCURVE",
"60 245 CURVE SMOOTH",
"60 85 OFFCURVE",
"149 -7 OFFCURVE",
"280 -7 CURVE SMOOTH"
);
},
{
closed = 1;
nodes = (
"487 267 LINE",
"487 273 LINE",
"468 284 LINE",
"76 284 LINE",
"76 267 LINE"
);
},
{
closed = 1;
nodes = (
"487 405 OFFCURVE",
"416 497 OFFCURVE",
"280 497 CURVE",
"280 480 LINE",
"403 480 OFFCURVE",
"463 393 OFFCURVE",
"468 284 CURVE",
"487 273 LINE"
);
}
);
width = 541;
},
{
anchors = (
{
name = bottom;
position = "{315, 0}";
},
{
name = ogonek;
position = "{456, 0}";
},
{
name = top;
position = "{308, 528}";
}
);
layerId = "219068EA-2B9B-40DC-949E-B60449C01B8A";
rightMetricsKey = "=o+14";
paths = (
{
closed = 1;
nodes = (
"483 -12 OFFCURVE",
"566 94 OFFCURVE",
"576 200 CURVE",
"462 200 LINE",
"446 155 OFFCURVE",
"412 121 OFFCURVE",
"345 121 CURVE SMOOTH",
"264 121 OFFCURVE",
"213 181 OFFCURVE",
"213 277 CURVE SMOOTH",
"213 397 OFFCURVE",
"249 444 OFFCURVE",
"313 444 CURVE",
"308 540 LINE",
"149 540 OFFCURVE",
"35 441 OFFCURVE",
"35 264 CURVE SMOOTH",
"35 86 OFFCURVE",
"150 -12 OFFCURVE",
"315 -12 CURVE SMOOTH"
);
},
{
closed = 1;
nodes = (
"578 254 LINE",
"578 299 LINE",
"399 342 LINE",
"116 342 LINE",
"116 254 LINE"
);
},
{
closed = 1;
nodes = (
"578 442 OFFCURVE",
"483 540 OFFCURVE",
"308 540 CURVE",
"313 444 LINE",
"369 444 OFFCURVE",
"397 395 OFFCURVE",
"399 342 CURVE",
"578 299 LINE"
);
}
);
width = 627;
},
{
anchors = (
{
name = bottom;
position = "{293, 0}";
},
{
name = ogonek;
position = "{431, 0}";
},
{
name = top;
position = "{293, 518}";
}
);
layerId = "0C29AA02-E021-4BD1-A2C4-87F681D64C35";
rightMetricsKey = "=o+8";
paths = (
{
closed = 1;
nodes = (
"459 -12 OFFCURVE",
"544 96 OFFCURVE",
"545 224 CURVE",
"466 224 LINE",
"457 165 OFFCURVE",
"420 114 OFFCURVE",
"344 114 CURVE SMOOTH",
"255 114 OFFCURVE",
"206 176 OFFCURVE",
"206 276 CURVE SMOOTH",
"206 409 OFFCURVE",
"243 450 OFFCURVE",
"297 450 CURVE",
"293 530 LINE",
"135 530 OFFCURVE",
"24 429 OFFCURVE",
"24 259 CURVE SMOOTH",
"24 89 OFFCURVE",
"135 -12 OFFCURVE",
"293 -12 CURVE SMOOTH"
);
},
{
closed = 1;
nodes = (
"546 260 LINE",
"546 287 LINE",
"365 340 LINE",
"114 340 LINE",
"114 260 LINE"
);
},
{
closed = 1;
nodes = (
"546 428 OFFCURVE",
"456 530 OFFCURVE",
"293 530 CURVE",
"297 450 LINE",
"340 450 OFFCURVE",
"365 408 OFFCURVE",
"365 340 CURVE",
"546 287 LINE"
);
}
);
width = 578;
},
{
anchors = (
{
name = bottom;
position = "{298, 0}";
},
{
name = ogonek;
position = "{412, 0}";
},
{
name = top;
position = "{299, 500}";
}
);
layerId = "2B88661E-23DD-4EDA-82FC-C2AEA983F097";
paths = (
{
closed = 1;
nodes = (
"443 -7 OFFCURVE",
"497 85 OFFCURVE",
"509 149 CURVE",
"486 149 LINE",
"474 98 OFFCURVE",
"426 17 OFFCURVE",
"299 17 CURVE SMOOTH",
"172 17 OFFCURVE",
"91 105 OFFCURVE",
"91 250 CURVE SMOOTH",
"91 397 OFFCURVE",
"172 484 OFFCURVE",
"299 484 CURVE",
"299 507 LINE",
"157 507 OFFCURVE",
"64 414 OFFCURVE",
"64 250 CURVE SMOOTH",
"64 86 OFFCURVE",
"156 -7 OFFCURVE",
"298 -7 CURVE SMOOTH"
);
},
{
closed = 1;
nodes = (
"519 267 LINE",
"519 278 LINE",
"494 290 LINE",
"81 290 LINE",
"81 267 LINE"
);
},
{
closed = 1;
nodes = (
"519 413 OFFCURVE",
"443 507 OFFCURVE",
"299 507 CURVE",
"299 484 LINE",
"427 484 OFFCURVE",
"489 398 OFFCURVE",
"494 290 CURVE",
"519 278 LINE"
);
}
);
width = 583;
}
);
leftKerningGroup = o;
leftMetricsKey = o;
rightKerningGroup = o;
rightMetricsKey = o;
unicode = 0065;
},
{
color = 8;
glyphname = f;
lastChange = "2021-08-16 10:26:39 +0000";
layers = (
{
anchors = (
{
name = bottom;
position = "{195, 0}";
},
{
name = top;
position = "{195, 682}";
}
);
hints = (
{
origin = "{0, 3}";
type = Corner;
name = _corner.Serif;
},
{
origin = "{0, 0}";
scale = "{-1.6, 1}";
type = Corner;
name = _corner.Serif;
options = 1;
}
);
layerId = "1E61A082-F045-49A7-AB52-DD1B03FD9B54";
paths = (
{
closed = 1;
nodes = (
"178 0 LINE",
"178 511 LINE",
"156 510 LINE",
"156 0 LINE"
);
},
{
closed = 1;
nodes = (
"360 473 LINE",
"360 490 LINE",
"20 490 LINE",
"20 473 LINE"
);
},
{
closed = 1;
nodes = (
"178 511 LINE",
"178 628 OFFCURVE",
"223 680 OFFCURVE",
"315 680 CURVE",
"315 697 LINE",
"209 697 OFFCURVE",
"156 638 OFFCURVE",
"156 510 CURVE"
);
},
{
closed = 1;
nodes = (
"406 587 OFFCURVE",
"417 605 OFFCURVE",
"417 626 CURVE SMOOTH",
"417 672 OFFCURVE",
"371 697 OFFCURVE",
"315 697 CURVE",
"315 680 LINE",
"362 680 OFFCURVE",
"395 666 OFFCURVE",
"401 632 CURVE",
"404 643 LINE",
"375 643 OFFCURVE",
"358 632 OFFCURVE",
"358 612 CURVE SMOOTH",
"358 597 OFFCURVE",
"370 587 OFFCURVE",
"384 587 CURVE SMOOTH"
);
}
);
width = 394;
},
{
anchors = (
{
name = bottom;
position = "{232, 0}";
},
{
name = top;
position = "{232, 718}";
}
);
hints = (
{
origin = "{0, 3}";
scale = "{1, 0.98}";
type = Corner;
name = _corner.Serif;
},
{
origin = "{0, 0}";
scale = "{-1.5, 0.98}";
type = Corner;
name = _corner.Serif;
options = 1;
}
);
layerId = "219068EA-2B9B-40DC-949E-B60449C01B8A";
paths = (
{
closed = 1;
nodes = (
"302 0 LINE",
"302 580 LINE",
"122 553 LINE",
"122 0 LINE"
);
},
{
closed = 1;
nodes = (
"459 426 LINE",
"459 528 LINE",
"18 528 LINE",
"18 426 LINE"
);
},
{
closed = 1;
nodes = (
"302 580 LINE",
"302 644 OFFCURVE",
"329 669 OFFCURVE",
"375 669 CURVE",
"366 746 LINE",
"235 746 OFFCURVE",
"122 695 OFFCURVE",
"122 553 CURVE"
);
},
{
closed = 1;
nodes = (
"517 577 OFFCURVE",
"551 607 OFFCURVE",
"551 645 CURVE SMOOTH",
"551 706 OFFCURVE",
"476 746 OFFCURVE",
"366 746 CURVE",
"375 669 LINE",
"404 669 OFFCURVE",
"425 662 OFFCURVE",
"440 653 CURVE",
"455 682 LINE",
"407 682 OFFCURVE",
"370 671 OFFCURVE",
"370 633 CURVE SMOOTH",
"370 595 OFFCURVE",
"409 577 OFFCURVE",
"455 577 CURVE SMOOTH"
);
}
);
width = 496;
},
{
anchors = (
{
name = bottom;
position = "{204, 0}";
},
{
name = top;
position = "{204, 682}";
}
);
hints = (
{
origin = "{0, 3}";
scale = "{1, 0.98}";
type = Corner;
name = _corner.Serif;
},
{
origin = "{0, 0}";
scale = "{-1.7, 0.98}";
type = Corner;
name = _corner.Serif;
options = 1;
}
);
layerId = "0C29AA02-E021-4BD1-A2C4-87F681D64C35";
paths = (
{
closed = 1;
nodes = (
"284 0 LINE",
"284 582 LINE",
"104 536 LINE",
"104 0 LINE"
);
},
{
closed = 1;
nodes = (
"427 428 LINE",
"427 518 LINE",
"0 518 LINE",
"0 428 LINE"
);
},
{
closed = 1;
nodes = (
"284 581 LINE",
"284 640 OFFCURVE",
"315 664 OFFCURVE",
"361 664 CURVE",
"347 730 LINE",
"201 730 OFFCURVE",
"104 673 OFFCURVE",
"104 536 CURVE"
);
},
{
closed = 1;
nodes = (
"486 559 OFFCURVE",
"520 586 OFFCURVE",
"520 629 CURVE SMOOTH",
"520 688 OFFCURVE",
"446 730 OFFCURVE",
"347 730 CURVE",
"361 664 LINE",
"393 664 OFFCURVE",
"415 658 OFFCURVE",
"429 649 CURVE",
"436 675 LINE",
"394 675 OFFCURVE",
"361 658 OFFCURVE",
"361 620 CURVE SMOOTH",
"361 580 OFFCURVE",
"392 559 OFFCURVE",
"435 559 CURVE SMOOTH"
);
}
);
width = 451;
},
{
anchors = (
{
name = bottom;
position = "{215, 0}";
},
{
name = top;
position = "{215, 710}";
}
);
hints = (
{
origin = "{0, 3}";
type = Corner;
name = _corner.Serif;
},
{
origin = "{0, 0}";
scale = "{-1.2, 1}";
type = Corner;
name = _corner.Serif;
options = 1;
}
);
layerId = "2B88661E-23DD-4EDA-82FC-C2AEA983F097";
paths = (
{
closed = 1;
nodes = (
"204 0 LINE",
"204 531 LINE",
"176 528 LINE",
"176 0 LINE"
);
},
{
closed = 1;
nodes = (
"376 477 LINE",
"376 500 LINE",
"41 500 LINE",
"41 477 LINE"
);
},
{
closed = 1;
nodes = (
"204 531 LINE",
"204 645 OFFCURVE",
"253 695 OFFCURVE",
"354 695 CURVE",
"353 717 LINE",
"235 717 OFFCURVE",
"176 657 OFFCURVE",
"176 528 CURVE"
);
},
{
closed = 1;
nodes = (
"449 615 OFFCURVE",
"461 631 OFFCURVE",
"461 651 CURVE SMOOTH",
"461 692 OFFCURVE",
"411 717 OFFCURVE",
"353 717 CURVE",
"354 695 LINE",
"399 695 OFFCURVE",
"429 682 OFFCURVE",
"437 658 CURVE",
"444 676 LINE",
"421 676 OFFCURVE",
"399 665 OFFCURVE",
"399 642 CURVE SMOOTH",
"399 626 OFFCURVE",
"411 615 OFFCURVE",
"428 615 CURVE SMOOTH"
);
}
);
width = 432;
}
);
leftKerningGroup = f;
rightKerningGroup = f;
unicode = 0066;
},
{
color = 8;
glyphname = g;
lastChange = "2021-08-16 10:26:37 +0000";
layers = (
{
anchors = (
{
name = bottom;
position = "{285, -190}";
},
{
name = top;
position = "{282, 490}";
}
);
layerId = "1E61A082-F045-49A7-AB52-DD1B03FD9B54";
paths = (
{
closed = 1;
nodes = (
"345 -182 LINE SMOOTH",
"472 -182 OFFCURVE",
"519 -120 OFFCURVE",
"519 -49 CURVE SMOOTH",
"519 16 OFFCURVE",
"481 53 OFFCURVE",
"405 53 CURVE SMOOTH",
"151 53 LINE SMOOTH",
"90 53 OFFCURVE",
"58 87 OFFCURVE",
"58 133 CURVE SMOOTH",
"58 183 OFFCURVE",
"95 207 OFFCURVE",
"143 212 CURVE",
"141 225 LINE",
"90 223 OFFCURVE",
"37 196 OFFCURVE",
"37 131 CURVE SMOOTH",
"37 72 OFFCURVE",
"82 35 OFFCURVE",
"149 35 CURVE SMOOTH",
"403 35 LINE SMOOTH",
"467 35 OFFCURVE",
"497 5 OFFCURVE",
"497 -50 CURVE SMOOTH",
"497 -110 OFFCURVE",
"456 -165 OFFCURVE",
"343 -165 CURVE SMOOTH",
"236 -165 LINE SMOOTH",
"144 -165 OFFCURVE",
"91 -128 OFFCURVE",
"91 -61 CURVE SMOOTH",
"91 -2 OFFCURVE",
"140 27 OFFCURVE",
"168 36 CURVE",
"165 45 LINE",
"124 36 OFFCURVE",
"70 6 OFFCURVE",
"70 -64 CURVE SMOOTH",
"70 -141 OFFCURVE",
"131 -182 OFFCURVE",
"235 -182 CURVE SMOOTH"
);
},
{
closed = 1;
nodes = (
"380 164 OFFCURVE",
"453 227 OFFCURVE",
"453 330 CURVE SMOOTH",
"453 418 OFFCURVE",
"400 463 OFFCURVE",
"343 477 CURVE",
"277 494 LINE",
"163 494 OFFCURVE",
"91 431 OFFCURVE",
"91 329 CURVE SMOOTH",
"91 227 OFFCURVE",
"163 164 OFFCURVE",
"272 164 CURVE SMOOTH"
);
},
{
closed = 1;
nodes = (
"177 181 OFFCURVE",
"113 239 OFFCURVE",
"113 329 CURVE SMOOTH",
"113 419 OFFCURVE",
"177 477 OFFCURVE",
"272 477 CURVE SMOOTH",
"367 477 OFFCURVE",
"431 419 OFFCURVE",
"431 329 CURVE SMOOTH",
"431 239 OFFCURVE",
"367 181 OFFCURVE",
"272 181 CURVE SMOOTH"
);
},
{
closed = 1;
nodes = (
"533 477 LINE",
"533 494 LINE",
"277 494 LINE",
"343 477 LINE"
);
}
);
width = 569;
},
{
anchors = (
{
name = bottom;
position = "{332, -200}";
},
{
name = top;
position = "{330, 528}";
}
);
layerId = "219068EA-2B9B-40DC-949E-B60449C01B8A";
paths = (
{
closed = 1;
nodes = (
"390 -190 LINE SMOOTH",
"545 -190 OFFCURVE",
"625 -120 OFFCURVE",
"625 0 CURVE SMOOTH",
"625 80 OFFCURVE",
"563 132 OFFCURVE",
"449 132 CURVE SMOOTH",
"208 132 LINE SMOOTH",
"178 132 OFFCURVE",
"160 143 OFFCURVE",
"160 170 CURVE SMOOTH",
"160 195 OFFCURVE",
"179 211 OFFCURVE",
"210 211 CURVE",
"207 247 LINE",
"102 247 OFFCURVE",
"33 202 OFFCURVE",
"33 112 CURVE SMOOTH",
"33 32 OFFCURVE",
"100 -18 OFFCURVE",
"202 -18 CURVE SMOOTH",
"421 -18 LINE SMOOTH",
"452 -18 OFFCURVE",
"471 -30 OFFCURVE",
"471 -57 CURVE SMOOTH",
"471 -87 OFFCURVE",
"450 -107 OFFCURVE",
"407 -107 CURVE SMOOTH",
"271 -107 LINE SMOOTH",
"226 -107 OFFCURVE",
"201 -90 OFFCURVE",
"201 -55 CURVE SMOOTH",
"201 -39 OFFCURVE",
"210 -25 OFFCURVE",
"225 -12 CURVE",
"223 -4 LINE",
"148 -4 OFFCURVE",
"72 -32 OFFCURVE",
"72 -97 CURVE SMOOTH",
"72 -163 OFFCURVE",
"137 -190 OFFCURVE",
"240 -190 CURVE SMOOTH"
);
},
{
closed = 1;
nodes = (
"478 191 OFFCURVE",
"562 254 OFFCURVE",
"562 340 CURVE SMOOTH",
"562 394 OFFCURVE",
"526 425 OFFCURVE",
"491 436 CURVE",
"326 532 LINE",
"174 532 OFFCURVE",
"77 469 OFFCURVE",
"77 361 CURVE SMOOTH",
"77 253 OFFCURVE",
"174 191 OFFCURVE",
"326 191 CURVE SMOOTH"
);
},
{
closed = 1;
nodes = (
"284 275 OFFCURVE",
"259 308 OFFCURVE",
"259 362 CURVE SMOOTH",
"259 415 OFFCURVE",
"284 449 OFFCURVE",
"326 449 CURVE SMOOTH",
"369 449 OFFCURVE",
"394 415 OFFCURVE",
"394 362 CURVE SMOOTH",
"394 308 OFFCURVE",
"369 275 OFFCURVE",
"326 275 CURVE SMOOTH"
);
},
{
closed = 1;
nodes = (
"615 436 LINE",
"615 532 LINE",
"326 532 LINE",
"491 436 LINE"
);
}
);
width = 667;
},
{
anchors = (
{
name = bottom;
position = "{314, -200}";
},
{
name = top;
position = "{315, 518}";
}
);
layerId = "0C29AA02-E021-4BD1-A2C4-87F681D64C35";
paths = (
{
closed = 1;
nodes = (
"378 -191 LINE SMOOTH",
"530 -191 OFFCURVE",
"609 -121 OFFCURVE",
"609 -6 CURVE SMOOTH",
"609 75 OFFCURVE",
"548 128 OFFCURVE",
"437 128 CURVE SMOOTH",
"200 128 LINE SMOOTH",
"168 128 OFFCURVE",
"150 141 OFFCURVE",
"150 168 CURVE SMOOTH",
"150 196 OFFCURVE",
"168 209 OFFCURVE",
"200 209 CURVE",
"191 240 LINE",
"90 241 OFFCURVE",
"22 191 OFFCURVE",
"22 108 CURVE SMOOTH",
"22 31 OFFCURVE",
"90 -22 OFFCURVE",
"191 -22 CURVE SMOOTH",
"393 -22 LINE SMOOTH",
"428 -22 OFFCURVE",
"451 -34 OFFCURVE",
"451 -62 CURVE SMOOTH",
"451 -93 OFFCURVE",
"427 -113 OFFCURVE",
"379 -113 CURVE SMOOTH",
"263 -113 LINE SMOOTH",
"215 -113 OFFCURVE",
"190 -97 OFFCURVE",
"190 -59 CURVE SMOOTH",
"190 -40 OFFCURVE",
"200 -25 OFFCURVE",
"217 -12 CURVE",
"210 -5 LINE",
"127 -5 OFFCURVE",
"61 -32 OFFCURVE",
"61 -94 CURVE SMOOTH",
"61 -162 OFFCURVE",
"126 -191 OFFCURVE",
"229 -191 CURVE SMOOTH"
);
},
{
closed = 1;
nodes = (
"459 185 OFFCURVE",
"546 244 OFFCURVE",
"546 335 CURVE SMOOTH",
"546 390 OFFCURVE",
"508 423 OFFCURVE",
"470 435 CURVE",
"311 523 LINE",
"159 523 OFFCURVE",
"62 461 OFFCURVE",
"62 354 CURVE SMOOTH",
"62 247 OFFCURVE",
"159 185 OFFCURVE",
"311 185 CURVE SMOOTH"
);
},
{
closed = 1;
nodes = (
"271 257 OFFCURVE",
"248 295 OFFCURVE",
"248 354 CURVE SMOOTH",
"248 411 OFFCURVE",
"271 451 OFFCURVE",
"311 451 CURVE SMOOTH",
"351 451 OFFCURVE",
"374 411 OFFCURVE",
"374 354 CURVE SMOOTH",
"374 295 OFFCURVE",
"351 257 OFFCURVE",
"311 257 CURVE SMOOTH"
);
},
{
closed = 1;
nodes = (
"604 435 LINE",
"604 523 LINE",
"311 523 LINE",
"470 435 LINE"
);
}
);
width = 627;
},
{
anchors = (
{
name = bottom;
position = "{298, -200}";
},
{
name = top;
position = "{305, 500}";
}
);
layerId = "2B88661E-23DD-4EDA-82FC-C2AEA983F097";
paths = (
{
closed = 1;
nodes = (
"376 -182 LINE SMOOTH",
"497 -182 OFFCURVE",
"545 -115 OFFCURVE",
"545 -47 CURVE SMOOTH",
"545 19 OFFCURVE",
"507 57 OFFCURVE",
"430 57 CURVE SMOOTH",
"179 57 LINE SMOOTH",
"120 57 OFFCURVE",
"84 91 OFFCURVE",
"84 136 CURVE SMOOTH",
"84 187 OFFCURVE",
"120 213 OFFCURVE",
"167 218 CURVE",
"165 236 LINE",
"111 234 OFFCURVE",
"58 200 OFFCURVE",
"58 135 CURVE SMOOTH",
"58 74 OFFCURVE",
"106 34 OFFCURVE",
"177 34 CURVE SMOOTH",
"428 34 LINE SMOOTH",
"490 34 OFFCURVE",
"517 4 OFFCURVE",
"517 -50 CURVE SMOOTH",
"517 -105 OFFCURVE",
"480 -160 OFFCURVE",
"377 -160 CURVE SMOOTH",
"246 -160 LINE SMOOTH",
"155 -160 OFFCURVE",
"115 -121 OFFCURVE",
"115 -61 CURVE SMOOTH",
"115 -7 OFFCURVE",
"162 23 OFFCURVE",
"189 35 CURVE",
"185 45 LINE",
"142 38 OFFCURVE",
"89 4 OFFCURVE",
"89 -62 CURVE SMOOTH",
"89 -137 OFFCURVE",
"140 -182 OFFCURVE",
"245 -182 CURVE SMOOTH"
);
},
{
closed = 1;
nodes = (
"407 170 OFFCURVE",
"481 235 OFFCURVE",
"481 337 CURVE SMOOTH",
"481 417 OFFCURVE",
"438 465 OFFCURVE",
"380 483 CURVE",
"300 505 LINE",
"185 505 OFFCURVE",
"109 439 OFFCURVE",
"109 337 CURVE SMOOTH",
"109 235 OFFCURVE",
"186 170 OFFCURVE",
"295 170 CURVE SMOOTH"
);
},
{
closed = 1;
nodes = (
"201 193 OFFCURVE",
"137 249 OFFCURVE",
"137 337 CURVE SMOOTH",
"137 425 OFFCURVE",
"202 482 OFFCURVE",
"295 482 CURVE SMOOTH",
"391 482 OFFCURVE",
"453 425 OFFCURVE",
"453 337 CURVE SMOOTH",
"453 249 OFFCURVE",
"390 193 OFFCURVE",
"295 193 CURVE SMOOTH"
);
},
{
closed = 1;
nodes = (
"551 483 LINE",
"551 505 LINE",
"300 505 LINE",
"380 483 LINE"
);
}
);
width = 598;
}
);
leftKerningGroup = g;
rightKerningGroup = g;
unicode = 0067;
},
{
color = 8;
glyphname = h;
lastChange = "2021-08-16 10:19:01 +0000";
layers = (
{
anchors = (
{
name = bottom;
position = "{295, 0}";
},
{
name = center;
position = "{288, 341}";
},
{
name = top;
position = "{124, 682}";
}
);
hints = (
{
origin = "{0, 2}";
scale = "{-0.9, 1}";
type = Corner;
name = _corner.Serif;
},
{
origin = "{0, 3}";
type = Corner;
name = _corner.Serif;
options = 1;
},
{
origin = "{0, 0}";
scale = "{-1.28, 1}";
type = Corner;
name = _corner.Serif;
},
{
origin = "{1, 15}";
scale = "{1.28, 1}";
type = Corner;
name = _corner.Serif;
},
{
origin = "{1, 0}";
scale = "{-0.84, 1}";
type = Corner;
name = _corner.Serif;
}
);
layerId = "1E61A082-F045-49A7-AB52-DD1B03FD9B54";
paths = (
{
closed = 1;
nodes = (
"142 0 LINE",
"142 682 LINE",
"120 682 LINE",
"120 0 LINE"
);
},
{
closed = 1;
nodes = (
"470 0 LINE",
"470 352 LINE SMOOTH",
"470 454 OFFCURVE",
"409 497 OFFCURVE",
"323 497 CURVE SMOOTH",
"218 497 OFFCURVE",
"132 435 OFFCURVE",
"132 265 CURVE",
"142 265 LINE",
"142 413 OFFCURVE",
"229 480 OFFCURVE",
"322 480 CURVE SMOOTH",
"400 480 OFFCURVE",
"448 440 OFFCURVE",
"448 352 CURVE SMOOTH",
"448 0 LINE"
);
}
);
width = 576;
},
{
anchors = (
{
name = bottom;
position = "{364, 0}";
},
{
name = center;
position = "{346, 359}";
},
{
name = top;
position = "{198, 718}";
}
);
hints = (
{
origin = "{0, 2}";
scale = "{-0.92, 0.98}";
type = Corner;
name = _corner.Serif;
},
{
origin = "{0, 3}";
scale = "{1, 0.98}";
type = Corner;
name = _corner.Serif;
options = 1;
},
{
origin = "{0, 0}";
scale = "{-0.66, 0.98}";
type = Corner;
name = _corner.Serif;
},
{
origin = "{1, 15}";
scale = "{0.66, 0.98}";
type = Corner;
name = _corner.Serif;
options = 1;
},
{
origin = "{1, 0}";
scale = "{-0.76, 0.98}";
type = Corner;
name = _corner.Serif;
}
);
layerId = "219068EA-2B9B-40DC-949E-B60449C01B8A";
paths = (
{
closed = 1;
nodes = (
"284 0 LINE",
"284 718 LINE",
"102 718 LINE",
"102 0 LINE"
);
},
{
closed = 1;
nodes = (
"626 0 LINE",
"626 350 LINE SMOOTH",
"626 478 OFFCURVE",
"554 534 OFFCURVE",
"450 534 CURVE SMOOTH",
"306 534 OFFCURVE",
"269 451 OFFCURVE",
"269 324 CURVE",
"284 325 LINE",
"284 391 OFFCURVE",
"324 414 OFFCURVE",
"371 414 CURVE SMOOTH",
"416 414 OFFCURVE",
"446 391 OFFCURVE",
"446 345 CURVE SMOOTH",
"446 0 LINE"
);
}
);
width = 714;
},
{
anchors = (
{
name = bottom;
position = "{333, 0}";
},
{
name = center;
position = "{326, 341}";
},
{
name = top;
position = "{174, 682}";
}
);
hints = (
{
origin = "{0, 3}";
scale = "{1, 0.98}";
type = Corner;
name = _corner.Serif;
options = 1;
},
{
origin = "{0, 0}";
scale = "{-0.6, 0.98}";
type = Corner;
name = _corner.Serif;
},
{
origin = "{0, 2}";
scale = "{-0.96, 0.98}";
type = Corner;
name = _corner.Serif;
},
{
origin = "{1, 15}";
scale = "{0.6, 0.98}";
type = Corner;
name = _corner.Serif;
options = 1;
},
{
origin = "{1, 0}";
scale = "{-0.76, 0.98}";
type = Corner;
name = _corner.Serif;
}
);
layerId = "0C29AA02-E021-4BD1-A2C4-87F681D64C35";
paths = (
{
closed = 1;
nodes = (
"271 0 LINE",
"271 682 LINE",
"89 682 LINE",
"89 0 LINE"
);
},
{
closed = 1;
nodes = (
"575 0 LINE",
"575 358 LINE SMOOTH",
"575 475 OFFCURVE",
"511 527 OFFCURVE",
"417 527 CURVE SMOOTH",
"290 527 OFFCURVE",
"260 454 OFFCURVE",
"261 338 CURVE",
"271 339 LINE",
"271 398 OFFCURVE",
"302 415 OFFCURVE",
"338 415 CURVE SMOOTH",
"372 415 OFFCURVE",
"395 395 OFFCURVE",
"395 355 CURVE SMOOTH",
"395 0 LINE"
);
}
);
width = 650;
},
{
anchors = (
{
name = bottom;
position = "{325, 0}";
},
{
name = center;
position = "{315, 355}";
},
{
name = top;
position = "{138, 710}";
}
);
hints = (
{
origin = "{0, 2}";
scale = "{-0.9, 1}";
type = Corner;
name = _corner.Serif;
},
{
origin = "{0, 3}";
type = Corner;
name = _corner.Serif;
options = 1;
},
{
origin = "{0, 0}";
scale = "{-0.98, 1}";
type = Corner;
name = _corner.Serif;
},
{
origin = "{1, 0}";
scale = "{-0.86, 1}";
type = Corner;
name = _corner.Serif;
},
{
origin = "{1, 15}";
scale = "{0.98, 1}";
type = Corner;
name = _corner.Serif;
options = 1;
}
);
layerId = "2B88661E-23DD-4EDA-82FC-C2AEA983F097";
paths = (
{
closed = 1;
nodes = (
"159 0 LINE",
"159 710 LINE",
"131 710 LINE",
"131 0 LINE"
);
},
{
closed = 1;
nodes = (
"516 0 LINE",
"516 346 LINE SMOOTH",
"516 462 OFFCURVE",
"448 507 OFFCURVE",
"352 507 CURVE SMOOTH",
"239 507 OFFCURVE",
"142 434 OFFCURVE",
"142 253 CURVE",
"159 253 LINE",
"159 412 OFFCURVE",
"251 484 OFFCURVE",
"349 484 CURVE SMOOTH",
"435 484 OFFCURVE",
"488 443 OFFCURVE",
"488 346 CURVE SMOOTH",
"488 0 LINE"
);
}
);
width = 633;
}
);
leftKerningGroup = l;
leftMetricsKey = l;
rightKerningGroup = n;
rightMetricsKey = n;
unicode = 0068;
},
